<?xml version="1.0" standalone="no"?>
<!DOCTYPE svg PUBLIC "-//W3C//DTD SVG 1.1//EN" "http://www.w3.org/Graphics/SVG/1.1/DTD/svg11.dtd" >
<svg xmlns="http://www.w3.org/2000/svg" xmlns:xlink="http://www.w3.org/1999/xlink" version="1.1">
<metadata>
Created by FontForge 20170731 at Wed Dec 13 14:05:42 2017
 By Aleksey,,,
Copyright (c) 2017 by Denise Chandler. All rights reserved.
</metadata>
<defs>
<font id="" horiz-adv-x="1003" >
  <font-face 
    font-family=""
    font-weight="400"
    font-stretch="normal"
    units-per-em="2048"
    panose-1="0 0 0 0 0 0 0 0 0 0"
    ascent="1536"
    descent="-512"
    x-height="1028"
    cap-height="1315"
    bbox="-211.581 -522.286 1774 1828.53"
    underline-thickness="0"
    underline-position="0"
    unicode-range="U+0020-2212"
  />
<missing-glyph horiz-adv-x="512" 
 />
    <glyph glyph-name=".notdef" horiz-adv-x="512" 
 />
    <glyph glyph-name="glyph1" horiz-adv-x="0" 
 />
    <glyph glyph-name="glyph2" horiz-adv-x="681" 
 />
    <glyph glyph-name="space" unicode=" " horiz-adv-x="409" 
 />
    <glyph glyph-name="exclam" unicode="!" horiz-adv-x="481" 
d="M84 864q-2 82 12 223q8 76 25 158q8 47 53 71.5t105 16.5q63 -10 90 -41q27 -41 18 -123q-12 -53 -20 -432q0 -88 -25 -272q-12 -78 -14 -86q-18 -49 -76 -49q-82 0 -96 49q-8 20 -33 127q-8 31 -23.5 165t-15.5 193zM338 236q68 -25 74 -117q2 -33 -21.5 -70t-71.5 -59
q-33 -16 -73 -10q-29 4 -65 25.5t-48 51.5q-12 8 -10 63.5t37 90.5q27 20 87 29.5t91 -4.5z" />
    <glyph glyph-name="quotedbl" unicode="&#x22;" horiz-adv-x="628" 
d="M68 942q-2 20 -6.5 71.5t-7.5 96.5t-3 78q2 61 30 98t91 35q39 -2 63.5 -14.5t35 -36t12.5 -41t2 -43.5q0 -80 -31 -240q-16 -70 -35.5 -97.5t-58.5 -25.5q-41 0 -63.5 30t-26.5 60zM356 942q-2 20 -6 71.5t-7 96.5t-3 78q2 61 29.5 98t91.5 35q39 -2 63.5 -14.5
t34.5 -36t12 -41t2 -43.5q0 -80 -30 -240q-16 -70 -36 -97.5t-58 -25.5q-41 0 -64 30t-25 60z" />
    <glyph glyph-name="numbersign" unicode="#" horiz-adv-x="1024" 
d="M774 586q98 -4 141 -27.5t41 -75t-40.5 -67t-120.5 -13.5h-2q12 -164 -78 -174q-51 -6 -71.5 29t-31.5 117q0 8 -4 41q-66 2 -162 10v-8q2 -98 -18 -143.5t-71.5 -47.5t-70 36t-20.5 118q-2 14 -2 51q-84 2 -129 18.5t-55 33t-12 46.5q-2 45 35.5 66.5t76.5 19.5l41 -2
q4 0 18.5 -1t22.5 -1q0 86 -2 125q-80 -2 -124 10.5t-54 29t-14 44.5q-6 45 30.5 69.5t77.5 27.5h39h41q-2 82 9 128t27.5 56t45.5 14q45 6 69.5 -30.5t26.5 -77.5v-39v-47q41 2 123 2q-8 76 2 118.5t24.5 54t43.5 17.5q45 8 71.5 -26.5t30.5 -73.5l4 -39q2 -6 3 -22.5
t1 -24.5q20 0 29 2q98 2 143 -18.5t47 -71.5q2 -53 -34.5 -70.5t-118.5 -21.5h-45q4 -60 16 -162zM438 604q25 -2 75 -5t75 -3q-8 102 -15 149q-94 0 -139 -2q0 -23 2 -69.5t2 -69.5z" />
    <glyph glyph-name="dollar" unicode="$" horiz-adv-x="741" 
d="M264 168q0 14 -1 25.5t-2 19.5t-5 16.5t-6 12.5t-12.5 12t-14.5 10t-18.5 12.5t-20.5 14.5q-39 31 -84 84q-33 41 -40 89t32 91q27 23 57.5 12.5t49 -27t43.5 -44.5q6 -6 8 -11q31 -41 54.5 -58t60.5 -19q82 -6 75 79q-12 98 -110 127q-90 23 -158 66q-104 68 -94 201
q8 111 110 170q10 6 22.5 11t28 10t23.5 9q43 16 41 62q0 31 -4 92q0 41 15.5 58.5t58.5 25.5q51 6 75.5 -8.5t30.5 -71.5q6 -51 4 -94q-2 -47 43 -68q23 -10 29 -12q86 -37 100 -113q12 -76 -41 -110q-39 -16 -63.5 -5t-38.5 35q-45 92 -152 60q-20 -4 -39.5 -27.5
t-21.5 -50.5q-2 -18 14.5 -38.5t40.5 -29.5q72 -23 133 -36q66 -16 115 -54q70 -49 87.5 -148t-27.5 -173q-41 -66 -152 -103q-12 -4 -21.5 -10t-13.5 -18.5t-6 -17.5t-4 -26.5t-2 -25.5q-16 -131 -103 -123q-66 -2 -84 30t-12 87z" />
    <glyph glyph-name="percent" unicode="%" horiz-adv-x="882" 
d="M154 1018q-49 35 -74 98q-14 61 -12 84q2 53 22 96q8 29 41 60q31 27 68 35q94 25 155 -7q37 -18 58 -32q49 -47 57 -107q8 -25 3 -79t-28 -87q-35 -57 -108 -80q-25 -8 -66 -12q-65 0 -116 31zM221 1214q-4 -20 2 -40q2 -10 13 -27q16 -16 38 -19q27 -4 43 7q18 8 27 20
q14 14 14 33q0 29 -10 51q-12 23 -39 35q-25 8 -47 -2q-8 -4 -14 -10q-19 -23 -27 -48zM774 1391q45 -25 41 -80q-4 -25 -11 -54.5t-16.5 -58.5t-28 -75t-33.5 -79.5t-45 -101.5t-51.5 -114t-65.5 -139t-72 -157q-227 -485 -347 -540q-18 -6 -43.5 5t-35.5 28q-8 16 -7 59
q8 76 88 261t150 325q43 86 107.5 218t91 183t64.5 123t65.5 107.5t56.5 64.5q41 52 92 25zM741 344q49 -47 60 -106q16 -100 -25 -166q-33 -55 -108 -80q-18 -8 -68 -12q-70 0 -117 32.5t-71 96.5q-16 51 -15 84q2 39 23 96q14 37 43 61q23 20 65 33q90 27 158 -6
q37 -17 55 -33zM676 147q12 16 12 33q0 29 -10 51q-12 25 -39 35q-23 10 -45 -2l-14 -10q-20 -20 -27 -49q-4 -20 0 -39l12 -27q18 -14 39 -18q23 -4 45 6q19 8 27 20z" />
    <glyph glyph-name="ampersand" unicode="&#x26;" horiz-adv-x="1087" 
d="M1034 471q25 -113 -55 -186q-76 -72 -211 -39q0 -92 -68 -166q-63 -70 -161 -88q-37 -6 -68 -4q-162 8 -213 153q-35 100 6 187q43 86 156 147q-55 12 -115 41q-248 113 -258 356q-10 195 98 312q119 127 357 137q182 6 303 -85t127 -241q6 -127 -52.5 -215t-168.5 -114
q-129 -35 -217 32q-70 53 -70 145.5t65 135.5q55 41 129 10q14 -6 21.5 -21.5t1.5 -29.5q-18 -37 -53 -23q-31 12 -56 -2q-29 -18 -28 -69q0 -53 37 -82q55 -45 151 -21q82 23 124 87.5t38 162.5q-6 115 -104.5 185.5t-243.5 64.5q-203 -4 -301 -111q-86 -94 -78 -256
q6 -190 211 -286q121 -57 221 -58q33 -4 37 -34q4 -33 -37 -47q-178 -59 -223 -156q-27 -53 -2 -125q23 -66 76 -88.5t114 -9.5q82 16 125 71.5t41 118.5v4q-53 8 -87 2t-50 -16l-14 -10q-12 -16 -31 -13q-12 0 -27 11q-29 29 0 57q33 33 96.5 47t182.5 -12q115 -35 166 14
q47 41 30 111q-4 18 -22.5 27.5t-34.5 6.5q-33 -6 -35 -28q-2 -16 -14 -26.5t-28.5 -8.5t-28 14.5t-9.5 28.5q4 41 34 68.5t75 31.5q47 4 88 -22.5t53 -75.5z" />
    <glyph glyph-name="quotesingle" unicode="'" horiz-adv-x="337" 
d="M68 942q-2 20 -6.5 71.5t-7.5 96.5t-3 78q2 61 30 98t91 35q39 -2 63.5 -14.5t35 -36t12.5 -41t2 -43.5q0 -80 -31 -240q-16 -70 -35.5 -97.5t-58.5 -25.5q-41 0 -63.5 30t-26.5 60z" />
    <glyph glyph-name="parenleft" unicode="(" horiz-adv-x="593" 
d="M66 647q-4 240 81 387q123 217 316 301q43 14 66.5 -5t17.5 -66q-8 -43 -47 -86q-141 -162 -146 -420q-2 -57 29 -281q23 -162 109 -330q57 -90 59 -106q8 -55 -53 -64q-12 -6 -32 -0.5t-29 6.5t-26.5 10t-24.5 14t-23.5 17.5t-24.5 16.5q-113 78 -199 246
q-20 45 -39 127q-28 120 -34 233z" />
    <glyph glyph-name="parenright" unicode=")" horiz-adv-x="598" 
d="M530 676q4 -240 -81 -387q-123 -217 -316 -301q-43 -14 -66.5 5t-17.5 66q8 43 47 86q141 162 146 420q2 57 -29 281q-23 162 -109 330q-57 90 -59 106q-8 55 53 64q12 6 32 0.5t29 -6.5t26.5 -10t24.5 -14t23.5 -17.5t24.5 -16.5q113 -78 199 -246q20 -45 39 -127
q28 -120 34 -233z" />
    <glyph glyph-name="asterisk" unicode="*" horiz-adv-x="575" 
d="M332 1219q-8 6 -13 -17v-41q0 -25 -2 -28q-16 -47 -49 -46q-43 -4 -51 33q-8 23 -4 64q4 47 2 49q-6 2 -14 -3t-18.5 -13.5t-16.5 -10.5q-4 -2 -11.5 -8t-11.5 -10q-45 -31 -73 4q-33 41 12 80q12 10 38.5 29.5t33.5 23.5q14 10 15 15.5t-11 19.5q-51 55 -64 84
q-25 59 21 74q39 12 96 -45q2 -2 9 -10.5t10 -10.5t14 0q6 2 8 9t1 14.5t1 15.5q0 4 1 15.5t2 16.5t4 13t9 14t15 11q29 16 51 4.5t24 -43.5v-18.5t2 -18.5q0 -33 5 -35q8 0 16 2t18.5 8t14.5 8q27 14 57 11q27 -2 37 -21.5t-2 -42.5q-16 -23 -47 -41q-53 -29 -80 -41
q-25 -12 -6 -30q14 -16 41.5 -35t38.5 -29q27 -16 35 -44t-17 -44q-16 -10 -41.5 -7t-42.5 19q-2 2 -22.5 24t-34.5 32z" />
    <glyph glyph-name="plus" unicode="+" horiz-adv-x="839" 
d="M772 649q10 -55 -45 -79.5t-133 -28.5h-72q0 -35 2 -49q4 -184 -102 -207q-55 -10 -80 45t-29 133v78q-31 0 -75 -4q-84 -10 -130.5 18.5t-50.5 73.5q-6 51 35 79.5t84 30.5l45 2q10 0 41 1t51 1q0 35 -4 76q-10 86 17.5 131t74.5 51q51 4 80 -36.5t31 -83.5l2 -45
q0 -51 2 -86q10 0 26.5 1t24.5 1q182 3 205 -103z" />
    <glyph glyph-name="comma" unicode="," horiz-adv-x="366" 
d="M303 162q18 -53 0 -127q-12 -47 -53 -86t-82 -45q-27 -2 -37 4t-8 14t10 17q25 29 33 61q-33 -4 -51 6q-63 25 -66 107q-2 31 19.5 63.5t64.5 52.5q33 16 66 11q27 -4 59.5 -23.5t42.5 -48.5l2 -2v-4z" />
    <glyph glyph-name="hyphen" unicode="-" horiz-adv-x="761" 
d="M684 700q10 -66 -38 -95.5t-114 -33.5q-16 0 -149 1t-158 -7q-74 -12 -113.5 22t-43.5 89q-4 61 31.5 95t72.5 36l39 2q86 2 297 12q160 4 176 -121z" />
    <glyph glyph-name="period" unicode="." horiz-adv-x="370" 
d="M174 2q-72 6 -108 84q-12 29 -7 59q18 80 93 105q37 12 73 4q47 -12 66 -61q10 -18 20 -70q4 -45 -31.5 -82t-105.5 -39z" />
    <glyph glyph-name="slash" unicode="/" horiz-adv-x="827" 
d="M287 664q53 98 127.5 241.5t107.5 202.5t77 137t76 119t66 74q53 55 111 26q53 -27 49 -88q-4 -33 -13 -67.5t-28.5 -83.5t-38 -92t-55.5 -119t-66.5 -135.5t-84 -171t-97.5 -197.5q-281 -543 -412 -600q-20 -8 -50.5 5t-43.5 32q-12 20 -6 65q10 82 105.5 291t175.5 361
z" />
    <glyph glyph-name="zero" unicode="0" horiz-adv-x="1230" 
d="M1149 856q18 -78 4 -260t-72 -289q-41 -82 -116.5 -154.5t-173.5 -111.5q-66 -35 -179 -41q-190 0 -309 104q-139 123 -197 324q-43 158 -36 281q2 160 57 319q43 121 113 199q78 86 182 114q111 39 226.5 33t195.5 -53q72 -41 149 -119q131 -145 156 -346zM358 754
q-16 -115 9 -289l6 -19q131 246 405 574q-35 47 -73 74q-41 27 -105.5 24.5t-101.5 -33.5q-97 -79 -140 -331zM846 346q53 117 53 211q0 170 -35 291q-74 -135 -199.5 -316.5t-209.5 -279.5q37 -49 114 -64q104 -18 174 37q76 58 103 121z" />
    <glyph glyph-name="one" unicode="1" horiz-adv-x="634" 
d="M412 1288q31 -27 73 -153q51 -207 33 -555q-6 -180 -20 -273q-12 -63 -17 -98q-2 -35 33 -41q35 0 47 -8q33 -16 29 -56q-8 -27 -43 -49q-55 -37 -152 -51q-33 -8 -108 -8q-63 0 -109 14q-49 16 -67 51q-18 33 6 58q20 20 51 26q33 6 37 39q6 47 18 140q6 35 21 186
q18 135 18 313q0 227 -8 262q-4 43 -43 19q-8 -4 -25.5 -16.5t-32 -22.5t-34 -18.5t-39 -7.5t-35.5 12q-33 20 -24.5 58t30 70.5t49.5 61.5q74 76 179 88q90 12 133 -41z" />
    <glyph glyph-name="two" unicode="2" horiz-adv-x="983" 
d="M678 303q88 39 137 24.5t67.5 -47t18.5 -81.5q0 -102 -45 -130t-219 -55q-168 -16 -309 -12q-174 10 -217 96q-55 88 -13 215q20 61 88 139t224 230l67 68q129 135 164 190q33 57 19.5 135t-76.5 105q-92 33 -162 -13q-43 -29 -61.5 -84t10.5 -98q31 -37 29.5 -84
t-27.5 -80q-39 -41 -103.5 -44t-124.5 42q-70 74 -69 168q-2 51 16 129q12 45 42 88t61 64q59 43 153 65q86 18 217 13q164 -23 258 -125q78 -84 78 -244q0 -109 -55 -197q-37 -63 -103 -137q-18 -25 -57 -59q-45 -41 -121 -106.5t-128 -112t-58 -54.5q-23 -37 10 -50
t109 -9q57 4 180 51z" />
    <glyph glyph-name="three" unicode="3" horiz-adv-x="997" 
d="M627 23q-131 -27 -233.5 -18t-172.5 46q-88 59 -127 123q-88 147 -8 219q68 57 137 -31q41 -53 86 -84.5t125 -46.5q109 -14 168 72q29 72 25 137.5t-23 112.5q-53 158 -184 164q-10 0 -115 -8q-43 -10 -73.5 16.5t-30.5 79.5q6 57 38.5 72.5t110.5 19.5q68 0 158 33
q43 18 51 78q6 74 -49 112q-57 45 -133 35q-53 0 -103 -57q-25 -33 -67.5 -47.5t-85.5 8.5q-35 37 -33 79t33 79q109 129 328 135q119 0 179 -18.5t130 -84.5q80 -80 73 -172q-4 -137 -98 -217q-10 -12 -24 -20q-12 -8 -16.5 -12.5t-4.5 -9.5t4 -8t17 -13q33 -33 77 -68
q94 -82 129 -205q45 -135 9 -262q-10 -39 -45 -96q-82 -102 -252 -143z" />
    <glyph glyph-name="four" unicode="4" horiz-adv-x="983" 
d="M909 1151q12 -188 -16 -455q-6 -201 -64 -499q-23 -86 -36 -119q-27 -72 -63 -86.5t-103 -3.5q-53 12 -74 42.5t-6 98.5q51 240 59 408q-10 18 -28 16q-16 -8 -93 -35q-86 -29 -172 -20q-166 8 -225 161q-31 80 -27 197q4 98 48 213q63 164 143 225q45 41 119 35
q74 -2 78 -61q0 -31 -41 -113q-57 -170 -62 -197q-16 -84 -10 -157q2 -39 43 -94q25 -37 86 -27q41 4 86 39q82 59 94 168q4 39 -2 219q-2 25 -27 147q-4 16 -12 44t-12 51q-4 35 17.5 47t70.5 14q33 0 98 -8q78 -12 94 -66q29 -98 37 -184z" />
    <glyph glyph-name="five" unicode="5" horiz-adv-x="999" 
d="M664 1047q-125 43 -179 43q-76 4 -115.5 -23t-31.5 -86v-10t1 -13.5t3 -15.5t5 -17t8 -18.5t13.5 -18.5t19.5 -16.5t25.5 -16.5t35 -13t43.5 -11q250 -27 368 -163q35 -41 58.5 -112t23.5 -140q0 -172 -90 -279q-96 -111 -254 -135q-121 -14 -217 0q-90 18 -156 61
q-31 18 -61.5 60.5t-44.5 85.5q-23 68 -23 129q-4 90 60 172q57 45 122.5 45t106.5 -39q29 -31 31 -79t-25 -87q-29 -43 -7 -97t67 -81q68 -41 159 -6q61 29 73.5 122t-19.5 148q-45 78 -145.5 130t-178.5 65l-76 14q-51 6 -88 33t-56.5 70t-28.5 77.5t-16 82.5t-12 61
q-18 178 27 258q16 39 58 62.5t73 29.5t82 12q125 12 309 2q172 -18 219.5 -43.5t51.5 -128.5q6 -80 -44 -119.5t-175 5.5z" />
    <glyph glyph-name="six" unicode="6" horiz-adv-x="1056" 
d="M868 772q199 -160 142 -440q-61 -219 -295 -303q-68 -18 -109 -26.5t-119.5 -7.5t-138.5 30q-106 45 -174 156.5t-92 258.5l-2 -2q-2 18 -6 51t-7.5 127.5t5 182.5t37 196.5t79.5 190.5q57 94 160 137q106 47 238 35q137 -18 186 -86q117 -160 -31 -311q-33 -31 -84 -35
q-47 -2 -84 22q-37 20 -26 56q6 16 37 59q31 41 26 59q-2 14 -3 19.5t-6 15.5t-15.5 17.5t-26.5 15.5q-90 25 -153 -66q-4 -8 -11.5 -20t-22 -52t-22.5 -79t-5 -92.5t22 -100.5q16 6 18 8q109 68 268 60q137 -13 215 -76zM766 399q20 113 -25 174q-68 92 -194 74
q-39 -6 -90 -35.5t-76 -70.5q-51 -70 -6 -219q33 -76 88 -95q125 -35 215 33q74 59 88 139z" />
    <glyph glyph-name="seven" unicode="7" horiz-adv-x="802" 
d="M727 786q4 -51 -2 -233t-35 -334q-31 -154 -96 -221q-8 -14 -31 -23q-35 -14 -73.5 1.5t-49.5 43.5q-12 33 -4 111q8 66 13 223q12 170 8 267q0 16 -1 97t-6.5 184.5t-17.5 205.5q-4 33 -39 41q-18 4 -67 8q-8 0 -138 12q0 -39 5 -67q8 -84 -56 -105q-55 -12 -88 19
q-29 23 -41 104q-12 137 -8 170q4 43 59 51q27 4 131 0q23 -2 101 -8t157.5 -10t145.5 -4q31 0 51.5 -8t32.5 -32t16 -36t9.5 -55t7.5 -53q16 -144 16 -349z" />
    <glyph glyph-name="eight" unicode="8" horiz-adv-x="1062" 
d="M961 518q39 -88 32 -156q-2 -82 -51 -172q-31 -63 -92 -110q-68 -47 -152 -62q-207 -47 -358 11q-96 41 -125 59q-111 80 -133 195q-16 43 -4 142t61 159q47 61 142 106q-2 2 -9.5 6t-11.5 6q-121 63 -166 168q-35 80 -33 146q6 82 52 164q33 61 94 102q59 45 151 61
q207 43 357 -12q82 -31 127 -55q109 -78 131 -184q16 -41 4 -134.5t-62 -150.5q-47 -61 -139 -102q6 -2 19 -11q123 -67 166 -176zM358 1012q-10 -68 2 -125q16 -51 37 -78q31 -47 103 -57q2 -2 12 -2q2 0 10 1t13 1h18q39 4 61 16q51 29 70 61q37 59 37 103q0 98 -31 160
q-35 72 -100 104q-66 29 -121 -6q-27 -14 -37 -29q-54 -71 -74 -149zM696 352q12 55 -2 119q-10 41 -35 78q-29 45 -102 55q-68 10 -117 -16q-51 -27 -69 -60q-37 -59 -37 -100q6 -104 31 -154q33 -68 100 -102q63 -31 123 4l37 31q53 65 71 145z" />
    <glyph glyph-name="nine" unicode="9" horiz-adv-x="950" 
d="M874 631q-2 -29 -6 -129.5t-10 -186.5q0 -6 -2 -34.5t-3 -33.5t-3 -29.5t-3 -32t-4 -28t-7.5 -30.5t-8.5 -26.5t-10 -30t-14 -27.5q-63 -74 -130 -53.5t-65 88.5q-2 88 0 212t2 154q0 8 -1 14.5t-2 12.5t-5 6t-10 -2q-104 -57 -248 -31q-121 25 -188 103
q-76 86 -96.5 179t20.5 269q90 242 295 297q98 20 223 -6q27 10 27 39q-2 6 0 10q0 45 16 61.5t61 16.5q16 2 50 -6q35 -8 57 -47q27 -53 47 -168q28 -235 18 -561zM653 956q0 41 -2 62q-6 47 -51 72q-98 37 -194 -21q-92 -66 -117 -151q-29 -115 4 -183q51 -104 168 -96
q68 0 125 37q51 33 57 92q4 35 8 113z" />
    <glyph glyph-name="colon" unicode=":" horiz-adv-x="370" 
d="M170 676q-72 6 -109 84q-12 29 -6 59q18 80 92 105q37 12 74 4q47 -12 66 -62q10 -18 20 -69q4 -45 -31.5 -82t-105.5 -39zM176 2q-72 6 -108 84q-12 29 -7 59q18 80 93 105q37 12 73 4q47 -12 66 -61q10 -18 20 -70q4 -45 -31.5 -82t-105.5 -39z" />
    <glyph glyph-name="semicolon" unicode=";" horiz-adv-x="368" 
d="M303 162q18 -53 0 -127q-12 -47 -53 -86t-82 -45q-27 -2 -37 4t-8 14t10 17q25 29 33 61q-33 -4 -51 6q-63 25 -66 107q-2 31 19.5 63.5t64.5 52.5q33 16 66 11q27 -4 59.5 -23.5t42.5 -48.5l2 -2v-4zM168 678q-72 6 -109 84q-12 29 -6 59q18 80 92 105q37 12 74 4
q47 -12 66 -62q10 -18 20 -69q4 -45 -31.5 -82t-105.5 -39z" />
    <glyph glyph-name="less" unicode="&#x3c;" horiz-adv-x="655" 
d="M109 772q25 39 79 135q86 150 117 195q41 63 103.5 83.5t123.5 -7.5q31 -14 41 -48q20 -59 -47 -161q-18 -31 -75 -107q-100 -141 -117 -170l-6 -10l6 -10l20 -33q20 -33 33 -51q100 -164 141 -211q59 -70 54 -129q-4 -41 -43 -74q-41 -29 -82 -22q-29 6 -58.5 27.5
t-44.5 39.5l-14 19q-33 45 -96 124q-88 111 -135 181q-35 47 -39 104q-2 51 22 96l2 2z" />
    <glyph glyph-name="equal" unicode="=" horiz-adv-x="757" 
d="M686 903q10 -66 -38 -95.5t-113 -33.5q-16 0 -149.5 1t-158.5 -7q-74 -12 -113.5 21.5t-43.5 89.5q-4 61 31.5 95t74.5 36l37 2q86 2 297 12q160 4 176 -121zM682 535q10 -66 -38 -95.5t-114 -33.5q-16 0 -149 1t-158 -8q-74 -12 -113.5 22t-43.5 89q-4 61 31.5 95
t74.5 36l37 2q86 2 297 12q160 5 176 -120z" />
    <glyph glyph-name="greater" unicode="&#x3e;" horiz-adv-x="655" 
d="M543 772q6 -10 14 -27l2 -2q25 -45 23 -96q-4 -57 -39 -104q-47 -70 -135 -181q-63 -80 -97 -124q-51 -74 -116 -86q-41 -6 -82 22q-39 33 -43 74q-6 59 53 129q41 47 141 211q12 18 33 51l20 33l7 10l-7 10q-16 29 -116 170q-57 76 -76 107q-68 102 -47 161q10 33 41 48
q61 29 123.5 8t103.5 -84q31 -45 117 -195q55 -96 80 -135z" />
    <glyph glyph-name="question" unicode="?" horiz-adv-x="968" 
d="M827 1241q66 -78 82.5 -177t-24.5 -196q-33 -80 -123 -137q-111 -74 -121 -80q-76 -41 -88 -94q-18 -92 -29 -158q-8 -55 -32.5 -78.5t-73.5 -23.5q-51 0 -60 41q-31 100 -34 205q-14 127 49 207q16 18 37.5 30.5t52.5 24.5t37 14q63 33 95 100.5t17 135.5
q-14 78 -65 102.5t-84 5.5q-57 -25 -57 -67q0 -80 43 -109q45 -59 -33 -115q-23 -14 -55.5 -22t-53.5 -10h-22q-92 -8 -161 47t-71 147q-6 205 215 305q43 23 125 39.5t139 10.5q102 -10 168 -43t127 -105zM387 240q41 23 89 9.5t77 -50.5q49 -66 31 -142
q-12 -45 -58.5 -71.5t-97.5 -22.5q-94 12 -115 94q-14 53 6.5 103.5t67.5 79.5z" />
    <glyph glyph-name="at" unicode="@" horiz-adv-x="1120" 
d="M1034 768q16 -61 3 -201.5t-62 -222.5q-45 -82 -123 -78q-59 2 -111 51q-39 29 -57 72q-10 23 -16 35q-14 31 -58 -2q-55 -45 -88 -55q-74 -31 -141 14q-37 23 -49 65q-57 168 61 336q35 55 96 101q49 39 129 32q72 -8 111 -65q20 -41 4 -62q-8 -12 -28.5 -17t-45.5 13
q-12 18 -53 19q-41 -2 -82 -43q-47 -53 -61 -133q-10 -49 6 -90q14 -25 42 -24t42 19q37 41 61 93q33 66 41 86q29 53 72 2q16 -16 12 -41q0 -8 1 -27.5t1 -30.5q8 -102 50 -172q23 -27 45 0q25 55 24 107q-6 166 -49 256q-57 117 -168 172q-45 23 -117.5 20.5t-115.5 -26.5
q-104 -63 -156 -266q-18 -102 12 -232q16 -70 60 -129q55 -78 166 -92q57 -8 131 6h4q4 2 10 3t13 1t15.5 -1t16.5 -5t16.5 -11t14.5 -20q14 -31 8 -51t-21 -31l-14 -8q-55 -27 -127 -29q-170 0 -272 82q-125 94 -176 248q-39 119 -33 219q6 127 53 246q39 94 98 154
q68 63 160 88q100 29 202.5 23.5t172.5 -40.5q70 -37 131 -92q119 -112 139 -266z" />
    <glyph glyph-name="A" unicode="A" horiz-adv-x="1011" 
d="M135 416q-4 2 -37 -4q-57 -8 -82 24q-29 37 -2 74q20 20 84 37q6 2 16.5 4t16.5 4q23 8 29 31q2 4 8 41l8 39q18 84 55 211q74 233 140 372q2 4 18.5 35t26.5 50.5t29.5 42t37.5 30.5q94 47 168 -57q82 -104 156 -303q63 -193 98 -373q14 -70 36 -218.5t22 -218
t-29 -106.5t-55 -41q-68 -6 -93 41q-18 37 -8 111q4 47 -2 112q-12 84 -33 158l-2 8q-4 6 -6 10q-6 14 -12 17.5t-23 1.5q-14 -2 -53 -10q-25 -4 -80 -16.5t-84 -18.5q-6 -2 -18 -5t-16 -3q-23 -8 -27 -29q0 -2 -1 -6t-1 -6q-37 -172 -47 -285q-6 -49 -6 -98q-2 -27 -2 -78
q0 -109 -111 -133q-82 -14 -127 61q-35 68 -21 223q4 43 16.5 127t14.5 125q4 13 -2 19zM664 754q0 4 -5 16q-29 86 -96 236q-14 20 -22 -7q-31 -74 -74 -260q-6 -20 -12 -71q0 -6 6 -9.5t12 -1.5q27 4 100 37q4 2 76 35q17 13 15 25z" />
    <glyph glyph-name="B" unicode="B" horiz-adv-x="1110" 
d="M371 31v-51q2 -43 -39 -58q-70 -14 -90 37q-57 182 -80 391q-20 293 -19 432q8 176 23 258q2 31 -5 35t-26 -6l-12 -6q-12 -4 -40 -20.5t-38 -18.5t-31 8q-33 41 2 92q23 33 90 86q109 70 236 92.5t207 16.5q145 -4 260 -61.5t165 -127t73 -155.5q49 -190 -62 -316
q-61 -61 -131 -100q-23 -10 -6 -33q2 -4 26.5 -27.5t45 -48t36 -76.5t9.5 -116q-18 -145 -162 -217q-127 -55 -316 -33q-93 17 -116 23zM727 705q55 41 64 102q18 119 -48 190q-90 100 -280 121q-70 6 -78 -49q-35 -186 -35 -399q0 -25 8.5 -34t32.5 -9q221 -2 336 78z
M354 281q4 -37 29 -66q39 -39 90 -45q57 -6 115 6q51 10 88 53t37 103q-4 66 -46 114t-110 39q-78 -8 -172 -6h-20q-18 -4 -19 -18q0 -98 8 -180z" />
    <glyph glyph-name="C" unicode="C" horiz-adv-x="1034" 
d="M686 205q76 6 172 69q57 35 103 -16q61 -76 -27 -141q-80 -57 -146.5 -83t-160.5 -34q-80 -6 -138.5 4t-126.5 51q-78 47 -131 123q-90 106 -133 250q-20 76 -20 191.5t35 234.5q14 55 51 125q74 139 198 229q102 68 213 80q152 18 250 -76q37 -33 78 -108q14 -39 31 -96
q10 -49 -8 -78q-25 -37 -68 -43q-63 -12 -76 67q-6 43 -49 73t-102 30q-66 0 -117 -49q-37 -27 -80 -111q-31 -63 -43 -147q-16 -123 15 -258q10 -66 40 -136q31 -72 93 -116q69 -45 147 -35z" />
    <glyph glyph-name="D" unicode="D" horiz-adv-x="1124" 
d="M109 578q0 356 71 438q49 51 119 71q68 14 82 -14q12 -16 -4 -92q-18 -109 -25 -207q-4 -31 -8 -107.5t-6 -109.5q-8 -106 8 -283q14 -109 19 -120q8 -16 24 -4q35 27 62.5 49t48 45.5t31 35t27.5 35t22 27.5q82 104 141 250q47 141 25.5 273t-72.5 184q-23 31 -68 61
q-96 63 -233 33q-121 -25 -189 -68q-63 -33 -135 -6q-33 10 -44 37t5 55q70 90 221 129q164 39 304 33q109 2 206 -44t160 -110q102 -113 134 -209t32 -206q0 -184 -121 -355q-109 -160 -303 -272q-109 -53 -197 -74q-35 -12 -36 -20q0 -6 2 -13q27 -78 0 -102
q-70 -61 -121 -8q-33 43 -47 67q-53 100 -74 162q-53 171 -61 439z" />
    <glyph glyph-name="E" unicode="E" horiz-adv-x="960" 
d="M385 -4q-145 0 -246 110q-37 49 -49 93q-41 125 -6 262q27 123 119 211q12 12 36.5 35.5t36.5 35.5q12 10 15.5 14.5t3.5 9.5t-4 8t-17 11q-14 6 -26 19q-98 78 -109 211q-4 31 12.5 85t51.5 91q66 70 136.5 95.5t166.5 21.5q147 -8 215 -41q76 -41 119 -86
q27 -25 27.5 -57.5t-19.5 -51.5q-31 -16 -61.5 -10t-51.5 20q-55 33 -147 37q-74 0 -131 -45q-53 -41 -41 -117q6 -41 57 -45q102 4 170 21q82 14 137 -21q39 -29 35 -69q-2 -20 -5 -29.5t-17.5 -24t-42.5 -26.5q-27 -10 -72 -25.5t-72 -25.5q-100 -43 -137 -90
q-2 -2 -6 -7.5t-6 -9.5q-43 -61 -58 -108q-18 -57 -22 -136q0 -72 29 -118q20 -25 34 -31q59 -31 129 -20q29 6 55.5 15t49 24.5t38 26.5t35 33.5t25.5 31t23.5 33t19.5 26.5q25 39 68 35q66 0 65 -70q-10 -61 -47 -112q-35 -59 -93 -111.5t-91 -71.5q-135 -67 -332 -57z
" />
    <glyph glyph-name="F" unicode="F" horiz-adv-x="704" 
d="M86 809q0 92 25 276q2 41 10 105q0 27 -15 33q-2 2 -22 6q-10 2 -27 6q-43 10 -45 45q-2 18 2 32.5t31 30t78 17.5q213 2 504 33q115 4 135 0q33 -6 43 -22.5t14 -53.5q4 -39 -17.5 -61.5t-88.5 -34.5q-35 -6 -111 -12.5t-110 -12.5q-45 -4 -68 -8t-30 -13.5t-9 -29.5
q-2 -23 -2 -74q0 -20 20 -18q92 6 164 20q80 16 109 -37q16 -47 -12 -78q-25 -29 -101 -43q-20 -4 -155 -18q-23 0 -33 -27q-2 -8 -3 -50t-3 -98t-4 -83q0 -127 10 -277q4 -113 16 -233q8 -80 -2 -113q-10 -31 -50 -48t-77 -3q-18 10 -31 25q-63 68 -100 229
q-29 164 -39 346q-6 224 -6 244z" />
    <glyph glyph-name="G" unicode="G" horiz-adv-x="1271" 
d="M678 0q-143 -4 -219 25q-88 31 -170 94q-233 193 -215 536q16 213 100 351.5t250 250.5q86 63 227 74q154 4 228 -55q66 -53 102 -152q20 -74 -29 -100q-37 -14 -90 55q-49 70 -128 83.5t-150 -34.5q-59 -41 -119 -143q-106 -186 -107 -399q-4 -201 131 -330
q74 -63 187 -61q76 2 139 65q119 113 100 248q-2 59 -63 70q-37 6 -84 -9q-102 -35 -180 -67q-35 -18 -66 -23q-27 -4 -41 8.5t-12 40.5q0 35 28.5 74t61.5 64q131 82 291 86q86 0 148.5 -16.5t119.5 -69.5q66 -53 86 -166q37 -199 -131 -357q-80 -74 -168 -104.5
t-227 -38.5z" />
    <glyph glyph-name="H" unicode="H" horiz-adv-x="1069" 
d="M385 926q2 -35 10 -101q2 -31 39 -24q29 2 84 10t82 10q53 8 84 13q25 2 34 9t13 27q4 16 4 23q8 41 17.5 86t20.5 99.5t18 84.5q2 8 7 35t7 36t8 30.5t11 34t12.5 30t17.5 31.5t23 31q27 37 106.5 45t108.5 -6q37 -8 50 -35t-3 -54q-76 -203 -132.5 -449.5t-72.5 -379.5
q-33 -182 -33 -307q0 -127 -41 -164q-45 -57 -100 -43q-4 2 -13.5 3t-14.5 3t-11 5t-12.5 10.5t-12.5 17.5q-35 61 -26 176q4 33 9 171t7 159q2 25 6 69q0 41 -45 37q-33 -2 -83 -9t-85 -12t-39 -7q-10 -2 -17 -6.5t-10 -7.5t-5 -11t-3.5 -12t-1.5 -18.5v-20.5
q-6 -106 13.5 -281.5t40.5 -240.5q23 -92 -60 -107q-102 -10 -149 70q-82 139 -121 336q-27 111 -31 184q-4 16 -4 22q-4 29 -31 33q-6 2 -30.5 2t-34.5 10q-27 20 -19.5 62.5t39.5 58.5q10 6 30 13.5t26 9.5q33 8 32 39v22q0 98 19 246q14 84 61 201q33 80 142 73
q59 -6 59 -110v-262z" />
    <glyph glyph-name="I" unicode="I" horiz-adv-x="550" 
d="M154 4q-49 6 -64 37q-23 53 29 80q4 2 13 4t14.5 4t7.5 8q4 6 -2 45q-49 211 -35 553q16 236 22 271q8 37 17 98q6 35 -31 41q-37 0 -47 6q-33 16 -29 55q6 25 41 49q51 35 152 54q37 6 108 6q61 0 109 -15q47 -12 65 -49q18 -31 -4 -57q-27 -23 -53 -29q-31 -2 -35 -39
q-10 -78 -20 -135q-2 -10 -19 -188q-18 -131 -18 -311q0 -236 12 -322q2 -12 5 -18.5t10.5 -10.5t19.5 -4q78 0 82 -57q4 -31 -3 -46.5t-38 -23.5q-25 -8 -64 -8q-118 -4 -245 2z" />
    <glyph glyph-name="J" unicode="J" horiz-adv-x="907" 
d="M508 584q-6 252 -84 503q-10 37 -27.5 42.5t-58.5 -3.5q-86 -4 -186 -4q-61 2 -72 62q-2 59 74 78q29 4 83 10t111.5 12t73.5 8q176 27 283 51q88 23 174 37q45 2 67.5 -6t28.5 -39q20 -66 -74 -92q-59 -14 -127 -37q-18 -10 -20 -26v-43q20 -137 26 -256q4 -59 4 -157.5
v-121.5q0 -74 -6 -143q-8 -111 -45 -205q-29 -82 -69.5 -136.5t-114.5 -88.5q-57 -31 -137 -31q-96 0 -189 55q-55 45 -90 101q-12 25 -23.5 56.5t-15.5 39.5q-18 47 -24.5 132t14.5 169q27 80 68 125q23 25 64.5 27t68.5 -23q20 -25 28 -43q14 -29 -2 -57q-57 -98 -26 -254
q10 -51 26 -95q6 -20 31 -57q20 -27 47 -4t45 61q78 150 74 353z" />
    <glyph glyph-name="K" unicode="K" horiz-adv-x="1134" 
d="M1075 195q41 -25 47 -68t-29.5 -81t-101.5 -46q-109 -8 -205 70q-102 102 -145 299q-31 145 -92 508l-10 -9q-135 -76 -181 -108q0 -137 11 -240q2 -18 47 -330q12 -74 12 -145q0 -53 -68 -68q-53 -10 -100 17q-61 43 -84 96q-94 186 -94 557q-2 86 12 250q20 225 58 371
q12 59 53 100q45 41 114 29q84 -6 80 -94q0 -55 -28 -293q72 31 151 84q35 23 154 125t147 120q66 51 129 21q70 -29 62 -113q-6 -25 -31 -57.5t-39 -42.5q-55 -47 -143 -109q-12 -6 -17 -10l-32 -20q80 -373 152.5 -565.5t170.5 -247.5z" />
    <glyph glyph-name="L" unicode="L" horiz-adv-x="763" 
d="M78 420q0 43 10 227q16 115 35 234q37 213 55 280q29 104 66 158q37 43 118 41q35 0 57.5 -18.5t29 -34t6.5 -23.5q6 -41 -2 -119q-16 -135 -23 -202q-8 -61 -12 -91q-2 -20 -4 -53t-4 -51q-16 -178 -11 -354q0 -16 4 -140q4 -43 15 -67q18 -43 129 -21q98 27 158 0
q41 -23 34 -77q-8 -57 -125 -86q-70 -20 -168 -24.5t-157 5.5q-2 0 -31 8t-40 12.5t-29.5 14.5t-30.5 22q-33 45 -41 70q-25 57 -31 121q-10 96 -8 168z" />
    <glyph glyph-name="M" unicode="M" horiz-adv-x="1310" 
d="M1237 33q-25 -33 -84 -29q-72 6 -113 96q-63 111 -63 764q0 100 -25 125v0q-25 18 -39 -4h-2q-35 -37 -57 -104l-6 -15q-6 -18 -17.5 -52t-20.5 -61.5t-17 -52.5q-8 -31 -22.5 -91t-22.5 -89q-12 -74 -111 -69q-61 0 -80 59q-10 33 -14 78q-2 2 -3 6t-1 6q-12 66 -17 107
q-29 168 -47 251q-2 0 -2 9q-12 59 -29 67q-4 4 -14 4q-43 -2 -74 -172v-2l-2 -14q-31 -186 -26 -395q4 -156 28 -301q0 -2 1 -5.5t1 -7.5q12 -90 -10 -125q-25 -35 -80 -41t-88 23q-33 35 -54.5 104.5t-26.5 107.5t-15 130q-18 285 -2 430q25 248 90 416q33 78 71 125
t105 73q119 41 197 -59v-2q57 -76 135 -319v-3q10 -16 20 -16h2q6 0 23 16q2 4 11 25t16 35q80 176 161 256q121 115 226 29q63 -51 82 -144q10 -53 6 -151v-43q0 -10 -1 -42t-1 -51q-4 -98 -4 -147q-2 -72 2 -272.5t8 -231.5q0 -8 2 -14q8 -74 16 -107q17 -73 -12 -110z
" />
    <glyph glyph-name="N" unicode="N" horiz-adv-x="1081" 
d="M768 565q6 6 8 63.5t3 131.5t3 98q6 172 29 307q12 61 21.5 94t39 84.5t76.5 94.5q55 57 176 57q51 0 78 -16q27 -14 37 -46t-8 -53q-14 -14 -27.5 -15t-28 5t-24.5 4q-78 -8 -115 -211q-23 -104 -37 -428q0 -10 -5 -176t-3 -291q2 -39 4 -99t2 -71q4 -55 -32 -73
q-43 -18 -91 -25q-59 -6 -90 25q-27 25 -77 92t-58 82q-119 203 -180 309q-70 127 -86 178q-20 57 -36.5 57t-6.5 -114v-189q2 -29 8 -216t8 -208q2 -14 -18 -28q-14 -6 -32.5 -8.5t-36 1t-32 6.5t-25.5 7t-13 4q-70 20 -88 92q-12 49 -17 113q-25 440 -12 696
q6 106 11 163.5t20.5 113t40.5 69.5q33 18 98 31q27 8 71 4t66 -18q27 -16 38 -32t24 -46q61 -135 81 -176q37 -80 142 -299q70 -133 84 -142q6 -6 10 -2z" />
    <glyph glyph-name="O" unicode="O" horiz-adv-x="1222" 
d="M68 705q2 160 57 317q43 123 113 201q74 82 180 114q113 37 227.5 31t194.5 -53q72 -41 147 -117q131 -150 156 -346q18 -78 4 -259t-72 -288q-90 -186 -289 -266q-76 -35 -178 -41q-188 0 -307 104q-139 121 -197 322q-42 158 -36 281zM377 457q14 -84 49 -158
q43 -92 141 -113q100 -18 164 35q70 59 96 119q51 109 52 207q0 188 -41 313q-51 145 -144 209q-39 27 -99 25t-95 -33q-90 -78 -133 -324q-15 -120 10 -280z" />
    <glyph glyph-name="P" unicode="P" horiz-adv-x="995" 
d="M113 1255q18 111 53 179q18 39 61 47q33 8 49 8q47 -2 64.5 -19.5t17.5 -66.5v-10q0 -29 27 -41q135 27 233 4q217 -61 308 -322q41 -182 17.5 -280.5t-105.5 -188.5q-70 -78 -199 -104q-59 -12 -134 -2t-128 39q-10 6 -14.5 -4.5t-4.5 -28.5v-163.5t-4 -221.5
q0 -43 -31.5 -73t-80.5 -21.5t-92 61.5q-47 90 -54 289q-8 92 -10 205.5t-2 126.5q-8 333 29 587zM332 807q2 -63 57 -98q59 -37 131 -41q123 -8 176 100q37 74 11 190q-25 90 -125 160q-100 68 -203 25q-47 -23 -53 -72q-4 -20 -4 -65q0 -121 10 -199z" />
    <glyph glyph-name="Q" unicode="Q" horiz-adv-x="1228" 
d="M1147 846q18 -78 4 -257t-70 -288q-39 -82 -113.5 -151.5t-174.5 -108.5q-18 -14 -50 -21q-10 -174 -71 -213q-27 -16 -78 -4q-18 6 -29 23q-27 41 -35 178q-127 14 -219 98q-139 123 -196 320q-39 158 -37 278q6 160 59 316q45 121 111 198q74 84 178 113
q113 37 225.5 31t194.5 -53q66 -35 147 -117q129 -143 154 -342zM834 338q53 115 51 205q0 188 -41 311q-49 147 -142 205q-37 27 -98 25.5t-96 -31.5q-88 -74 -131 -322q-14 -133 10 -278q14 -82 49 -156q37 -76 94 -98q4 219 39 260q12 29 66 28q47 0 67 -20
q35 -51 39 -244q68 54 93 115z" />
    <glyph glyph-name="R" unicode="R" horiz-adv-x="1042" 
d="M1001 4q37 -12 49.5 -48t-11 -74t-78.5 -54q-92 -23 -185 25q-98 68 -170 229q-66 154 -153 401q-53 14 -78 31q-16 -4 -21 -33q0 -4 2 -163.5t-6 -221.5q2 -43 -29.5 -72.5t-81 -22.5t-92.5 60q-23 45 -34 96.5t-14 82t-7 110.5q-4 63 -10 332q-12 309 24 590
q25 123 54 176q20 39 61 49q25 6 49 6q47 0 64.5 -18.5t19.5 -65.5v-12q0 -27 27 -39q129 25 233 4q219 -59 306 -319q37 -111 29.5 -202t-34 -149.5t-79.5 -117.5q-70 -76 -170 -101q98 -219 177.5 -334.5t157.5 -144.5zM328 823q2 -63 57 -98q68 -41 131 -41
q125 -8 178 100q35 68 6 191q-14 59 -42.5 93t-77.5 67q-98 68 -205 24q-47 -20 -53 -72q-4 -41 -5 -65q0 -10 1 -49t3.5 -81t6.5 -69z" />
    <glyph glyph-name="S" unicode="S" horiz-adv-x="958" 
d="M203 340q25 33 86 49q63 16 104 -18.5t37 -81.5q-4 -29 -18.5 -49.5t-16.5 -30.5q-16 -43 43 -51q49 -6 105 24q33 18 41 50t-11 61q-10 18 -22 35q-90 98 -141 145q-209 195 -213 197q-59 68 -113 149q-57 94 -57 215q0 176 86 269q106 115 282 135q123 8 238 -13
q102 -25 168 -71q33 -25 64.5 -72t43.5 -94q20 -78 21 -141q0 -106 -78 -185q-66 -49 -135.5 -46t-112.5 46q-31 37 -31 90.5t33 94.5q31 45 10.5 105t-67.5 93q-74 49 -174 15q-70 -29 -84.5 -115t20.5 -150q37 -66 178 -207q213 -219 285 -325q35 -53 43 -96
q12 -63 -6 -131q-29 -102 -109 -162q-172 -115 -360 -58q-72 16 -120 67.5t-54 115.5q0 96 35 141z" />
    <glyph glyph-name="T" unicode="T" horiz-adv-x="804" 
d="M784 1303q8 -12 9.5 -41t-5.5 -39q-6 -18 -24 -31q-45 -29 -229 -37v-16q-12 -98 -19 -203q-2 -12 -4 -39t-6 -51q-4 -86 -4 -103q-12 -147 -6 -356q12 -178 26 -258q12 -68 -13.5 -95.5t-88.5 -35.5q-53 -4 -82 0t-55.5 28.5t-44.5 75.5q-23 63 -29 119q-12 86 -12 166
q-2 104 8 229q8 104 28 234q31 219 46 280q0 2 3 13.5t3 15.5q-193 8 -240 37q-33 23 -33 70q0 43 27 69q63 41 424 41q272 1 321 -73z" />
    <glyph glyph-name="U" unicode="U" horiz-adv-x="1017" 
d="M926 1212q14 -111 2 -307v-26q-10 -305 -43 -457q-31 -143 -117 -277q-4 -6 -59 -73q-61 -66 -158 -70q-113 0 -184 51q-57 41 -104.5 99.5t-64 91t-24.5 55.5q-47 135 -72 252q-14 68 -22 180.5t9 282.5t75 276q55 96 137 121q49 16 84 -2q49 -23 37 -84q-2 -18 -10 -41
q-2 -4 -13 -47q-43 -322 4 -623v-4q25 -203 101 -295q37 -41 76 -18q47 39 100 182q10 27 31 107l2 12q2 10 4 30.5t6 48.5t7 61.5t6 69.5t6 76t4.5 77.5t1.5 75.5t-3 71v0v55q-4 72 13 99q18 27 58 35t65 -9q39 -31 45 -76z" />
    <glyph glyph-name="V" unicode="V" horiz-adv-x="854" 
d="M379 547q4 -20 20 20q4 6 4 8q20 57 189 500q41 121 119 268q20 35 59 81t72 61q106 45 145 -27q18 -37 -18 -115q-27 -45 -78 -157.5t-66 -149.5q-82 -227 -155 -538q-35 -172 -52 -269l-36 -147q-12 -53 -70 -72q-84 -14 -127 4.5t-74 85.5q-68 160 -98 281
q-76 274 -111 502q-33 258 -22 329q16 68 39 84q20 16 55 19q55 2 76 -53q8 -31 22.5 -180.5t28.5 -211.5q29 -160 55 -247q5 -15 23 -76z" />
    <glyph glyph-name="W" unicode="W" horiz-adv-x="1314" 
d="M1239 1350q29 -37 12 -111q-8 -33 -16 -106q-2 -6 -2 -15q-4 -31 -8 -231.5t-2 -272.5q0 -49 4 -147q0 -18 1 -50t1 -42v-43q4 -98 -6 -152q-18 -92 -82 -143q-104 -86 -226 29q-82 80 -161 256q-6 14 -15.5 34.5t-11.5 24.5q-16 16 -22 16h-3q-10 0 -20 -16v-2
q-78 -244 -135 -320v-2q-78 -100 -197 -59q-68 27 -105.5 74t-70.5 125q-66 168 -90 415q-16 145 2 430q23 213 59 287q16 33 37 55q33 29 88.5 23t79.5 -41q23 -35 10 -125q0 -4 -1 -7t-1 -5q-25 -145 -28 -301q-4 -209 26 -396l2 -14v-2q31 -170 74 -172q10 0 14 4
q16 8 29 68q0 8 2 8q18 84 47 252q4 41 17 106q0 2 1 6.5t3 6.5q4 45 14 77q18 59 80 60q98 4 111 -70q8 -29 22 -89t23 -91q8 -25 17 -52.5t20.5 -61t17.5 -52.5l6 -14q23 -68 57 -105h2q14 -23 39 -4v0q25 25 25 125q0 653 63 764q41 90 113 96q59 5 84 -28z" />
    <glyph glyph-name="X" unicode="X" horiz-adv-x="1028" 
d="M500 414q-248 -412 -371 -443q-16 -4 -45 10.5t-37 29t-6 44.5v6q6 70 94 250.5t184 347.5l11 15l-11 14q-111 160 -165 281l-4 6q-70 178 -48 282q10 29 59.5 52.5t82.5 15.5q41 -16 67 -78q45 -111 135 -266q2 -2 3.5 -4t3.5 -5t4 -5l22 -39l21 39q225 365 305 419v3
q43 37 96 8q33 -20 40 -33.5t7 -38.5q-12 -121 -282 -616l-9 -19l19 -20q80 -84 201 -178q45 -35 66.5 -53.5t42 -45t26.5 -53.5q4 -27 -16.5 -47.5t-67.5 -34.5q-135 -27 -256 51q-74 51 -133 111l-23 22z" />
    <glyph glyph-name="Y" unicode="Y" horiz-adv-x="993" 
d="M903 1200q20 -233 -6 -506q-27 -385 -78 -497q0 -2 -6 -15.5t-11 -21.5t-14.5 -23.5t-20.5 -28t-25.5 -25.5t-33 -25.5t-40.5 -20.5q-111 -47 -228 -35q-125 10 -180 86q-111 162 33 313q29 35 78 35q47 2 82 -18q31 -23 24 -58q-12 -31 -35 -61q-29 -35 -26 -61
q8 -45 49 -64q41 -12 83 4.5t64 59.5q49 92 33 247q-12 113 -47 107q-2 0 -6 -2q-29 -12 -90 -35q-92 -33 -170 -27q-160 2 -232 152q-33 80 -32 199q0 98 41 211q49 156 133 231q41 41 118 37q74 0 80 -58q0 -10 -18.5 -60t-18.5 -54q-51 -164 -55 -197q-14 -74 -4 -158
q6 -41 45 -92q27 -35 88 -24q45 12 82 41q82 63 88 172q2 45 -8 217q-4 39 -33 145q-4 16 -13 44t-13 50q-6 35 15 48.5t71 17.5q66 0 98 -6q78 -10 96 -62q29 -88 43 -182z" />
    <glyph glyph-name="Z" unicode="Z" horiz-adv-x="886" 
d="M719 334q63 10 96 -28t33 -111q0 -55 -13.5 -91t-45 -53.5t-50 -22.5t-63.5 -12q-186 -18 -340 -12q-39 2 -65.5 5t-63.5 13.5t-64.5 32t-44.5 54.5q-61 94 -12 237q31 109 229 367q113 143 211 237q33 33 42.5 66t-3.5 45q-35 47 -198 12q-27 -4 -56.5 -14t-61.5 -22.5
t-46 -16.5q-119 -35 -137 117q-12 150 133 188q80 16 227 18q195 0 270 -18q98 -29 121 -104q25 -63 13.5 -153.5t-58.5 -164.5q-29 -47 -61.5 -85t-85 -92t-93.5 -101q-68 -74 -129 -168.5t-59 -124.5q0 -25 11.5 -38t42 -17.5t52 -4.5t72.5 4q33 2 99.5 28t97.5 30z" />
    <glyph glyph-name="bracketleft" unicode="[" horiz-adv-x="573" 
d="M113 10q-43 236 -33 787q0 442 65 592q12 31 31 49q16 18 62 18q8 0 85.5 -1t94.5 3q43 8 65.5 -16.5t24.5 -65.5q2 -45 -19.5 -69.5t-44.5 -26.5l-22 -2q-18 0 -84 -4q23 -201 16 -506q0 -459 -30 -682q63 0 86 4q47 8 71.5 -16.5t26.5 -65.5q2 -47 -21.5 -71.5
t-48.5 -26.5h-22q-25 -2 -97.5 -4t-93 -2t-30.5 2q-39 2 -56 26q-16 17 -26 78z" />
    <glyph glyph-name="backslash" unicode="\" horiz-adv-x="817" 
d="M537 664q80 -152 175 -361t105 -291q6 -45 -6 -65q-12 -18 -43 -31.5t-51 -5.5q-131 57 -412 600q-43 86 -97 197.5t-84 171t-67 135.5t-55 119t-37.5 92t-29 83.5t-13.5 67.5q-4 61 49 88q57 29 111 -26q35 -33 66.5 -74t75.5 -119t77 -137t108 -202.5t128 -241.5z" />
    <glyph glyph-name="bracketright" unicode="]" horiz-adv-x="575" 
d="M461 1364q43 -236 33 -786q0 -442 -66 -592q-12 -31 -31 -49q-16 -18 -61 -19q-8 0 -86 1t-94 -3q-43 -8 -65.5 16.5t-24.5 65.5q-2 45 19 69.5t44 26.5l23 2q18 0 84 4q-23 201 -17 506q0 459 31 682q-63 0 -86 -4q-47 -8 -71.5 16.5t-26.5 65.5q-2 47 21.5 71.5
t47.5 24.5l23 2q25 2 97.5 4t93 2t30.5 -2q39 -2 55 -26q17 -17 27 -78z" />
    <glyph glyph-name="grave" unicode="`" horiz-adv-x="602" 
d="M465 1620q2 -2 6 -4t15.5 -9.5t20.5 -15.5t18.5 -20t13.5 -25.5t2 -31t-13 -33.5q-23 -35 -60.5 -41t-94.5 28q-33 25 -124 71t-106 54q-49 27 -75.5 66t2.5 78q57 74 174 8q76 -41 221 -125z" />
    <glyph glyph-name="a" unicode="a" horiz-adv-x="888" 
d="M754 494q10 -154 104 -361q35 -84 29 -110q-6 -20 -29 -37q-39 -23 -94 6q-27 14 -60.5 57t-46.5 70q-6 14 -13 27.5t-10 19.5t-3 10q-25 51 -96 -4q-86 -70 -148 -92q-123 -47 -233 24q-61 41 -82 109q-92 276 100 557q63 92 162 168q90 70 213 53q121 -14 182 -108
q14 -20 18.5 -53t-8.5 -48q-8 -10 -26.5 -21t-47 -10t-49.5 23q-23 29 -88 29q-72 -2 -135 -70q-74 -80 -104 -221q-14 -84 12 -147q25 -43 70 -41t67 30q72 82 105 156q45 94 69 141q43 92 115 6q25 -27 25 -67q-2 -33 2 -96z" />
    <glyph glyph-name="b" unicode="b" horiz-adv-x="880" 
d="M70 690q-8 147 16 354q6 76 35 189t72 174q23 35 57 29q59 -8 84 -47q18 -33 -2 -250q-25 -221 -25 -248q0 -18 19 -10q16 8 22 14q84 55 184 55q88 2 193 -69q70 -66 94 -117q45 -98 19 -232q-27 -96 -87.5 -178t-189.5 -166q-137 -88 -174 -106q-25 -12 -22 -39
q0 -6 2 -10q0 -43 -14.5 -60.5t-57.5 -21.5q-31 0 -47 4q-37 2 -60 39q-29 49 -57 160q-65 243 -61 536zM307 397l6 -61q4 -20 10.5 -24.5t26.5 1.5q109 25 185 97q57 55 83 141q16 53 9 127q-8 47 -55.5 67.5t-90.5 4.5q-68 -27 -131 -74q-47 -35 -47 -94q-4 -64 4 -185z
" />
    <glyph glyph-name="c" unicode="c" horiz-adv-x="798" 
d="M123 797q88 203 289 250q63 16 112 9t68.5 -15.5t46.5 -28.5q61 -45 88 -138q12 -80 -14 -126q-23 -43 -72 -43q-31 -2 -49.5 15t-18.5 48q0 4 2.5 13.5t2.5 15.5q4 25 4 37q-2 20 -9.5 28t-29.5 12q-66 6 -113 -55q-49 -49 -84 -145q-27 -82 -20 -211q0 -49 31.5 -123
t88.5 -90q117 -14 195 69q33 35 67.5 41.5t49.5 -16.5q41 -55 -19 -145q-18 -29 -57 -65t-49 -40q-96 -59 -223 -59q-55 -2 -121 24.5t-105 65.5q-125 125 -125 334q1 199 64 338z" />
    <glyph glyph-name="d" unicode="d" horiz-adv-x="901" 
d="M803 184q-25 -111 -51 -161q-20 -37 -58 -43q-23 -6 -47 -7q-43 2 -57.5 18.5t-16.5 61.5v10q2 25 -22 37q-119 -20 -215 0q-121 43 -180.5 118t-94.5 179q-37 168 -6 289t117 195q100 78 188 80q104 4 187 -48l24 -12q18 -8 19 10q4 150 0 246q-4 139 16 223q2 2 7 13.5
t6.5 14.5t6.5 12.5t9 12.5t10 9t13.5 9t17.5 5q45 12 64.5 5t35.5 -36q8 -16 14.5 -33.5t10.5 -30.5t8 -37t5 -35t4 -39.5l4 -38t3 -44t2 -43.5q0 -6 11 -401q2 -301 -35 -539zM608 598q-2 59 -51 90q-55 39 -113 60q-45 14 -96 -1.5t-78 -66.5q-37 -72 -14 -180
q25 -100 119 -183q80 -68 184 -26q45 23 51 65q4 41 4 62q0 123 -6 180z" />
    <glyph glyph-name="e" unicode="e" horiz-adv-x="860" 
d="M434 16q-221 -4 -328 199q-72 172 -47 377q25 162 131 299q82 106 244 153q94 25 191 15q82 -8 136 -68.5t58 -136.5q6 -104 -6 -156q-6 -39 -18.5 -73.5t-23.5 -56t-27.5 -43t-26.5 -31t-26.5 -23.5t-20.5 -18q-98 -74 -226 -80q-92 0 -135 12q-10 4 -30 8
q-16 4 -21 -14q-4 -16 5 -57t28 -70q43 -63 106 -72q37 -6 72 17.5t39 58.5q2 4 3 14.5t1 14.5q4 27 37 38t59 -1q31 -14 51 -50q18 -31 14.5 -76.5t-28.5 -74.5q-88 -105 -211 -105zM567 772v41q-6 49 -57 51q-53 0 -92 -33q-49 -43 -84 -102q-49 -96 -62 -141
q-6 -29 0.5 -42.5t32.5 -23.5q8 -4 14 -6q61 -14 115.5 9.5t85.5 70.5q43 72 47 176z" />
    <glyph glyph-name="f" unicode="f" horiz-adv-x="585" 
d="M651 1374q53 -39 54 -98q2 -35 -28 -59.5t-73 -24.5q-33 0 -49 22q-2 2 -6 7l-2 4q-35 41 -78 18q-68 -29 -76 -133q-2 -14 8.5 -18.5t18.5 -1.5q86 16 121 12q63 0 80 -39q14 -53 -12.5 -81t-57.5 -32q-117 -14 -168 -28q-27 -8 -29 -33v-23q25 -420 82 -663
q6 -27 15 -47q8 -25 -4.5 -48.5t-38.5 -33.5q-41 -12 -91 -8q-51 6 -90 53q-23 29 -47 94q-33 100 -49 307q-2 20 -7 120.5t-9 174.5t-4 78q0 23 -23 25q-25 4 -35 10q-57 37 -16 82q33 33 65 43q31 6 37 32q2 8 7.5 22.5t7.5 20.5q27 84 53 129.5t84 92.5q61 49 176.5 58
t183.5 -34z" />
    <glyph glyph-name="g" unicode="g" horiz-adv-x="972" 
d="M635 -45q-4 35 -16.5 93t-12.5 61q-2 12 -10 32q-4 12 -14.5 15.5t-16.5 -4.5q-49 -51 -145 -78q-111 -27 -207 12q-162 76 -162 291q12 205 84 344q66 129 184 199q84 53 209 73q117 8 183.5 -8t134.5 -70q47 -37 57 -90q14 -78 -12 -207q-12 -55 -18.5 -105t-11.5 -123
t-9 -105q-2 -23 -2 -138q0 -166 -4 -213q-16 -193 -33 -241q-39 -127 -135 -174q-100 -51 -207 -39q-113 10 -162 96q-102 176 27 342q31 37 74 37q41 2 71 -23q33 -23 23 -61q-6 -20 -31 -68q-27 -43 -24 -65q8 -49 45 -72q33 -12 66.5 2.5t47.5 46.5q39 97 27 240z
M336 289q16 -35 63 -27q94 12 168 82q96 94 131 268q29 152 -2 193q-20 31 -80 31q-47 4 -92 -22t-69 -54q-86 -109 -129 -256q-31 -135 10 -215z" />
    <glyph glyph-name="h" unicode="h" horiz-adv-x="860" 
d="M780 797q31 -86 31 -215q0 -111 -35 -232q-47 -176 -123 -252q-39 -47 -106 -43q-70 6 -72 66q0 27 33 125q47 180 51 215q10 96 2 170q-2 45 -39 100q-27 39 -80 27q-41 -8 -75 -43q-74 -72 -80 -189q-2 -47 8 -237q4 -51 29 -158q2 -8 11 -43t13 -59q6 -39 -12.5 -52.5
t-63.5 -17.5q-41 -2 -90 4q-72 12 -86 68q-16 57 -30 196q-14 129 -11.5 375t15.5 363q31 270 96 364q23 37 57 29q59 -8 84 -49q18 -31 -2 -260q-2 -14 -4 -37t-4 -47.5t-4 -47t-2 -36.5v-13q106 55 127 66q86 37 155 31q152 -4 207 -168z" />
    <glyph glyph-name="i" unicode="i" horiz-adv-x="448" 
d="M362 481q2 -59 -12 -207q-4 -49 -20 -143q-8 -43 -50 -65.5t-96 -14.5q-63 12 -80 39q-31 39 -18 111q10 45 18 395q2 115 23 246q4 53 12 80q16 45 70 45q74 0 88 -45q10 -29 29 -117q8 -25 21 -147t15 -177zM129 1053q-59 25 -66 106q-2 31 19.5 63.5t64.5 53.5
q35 16 68 10q27 -4 58.5 -23.5t41.5 -48.5q10 -8 10.5 -58t-32.5 -79q-23 -20 -79 -27t-85 3z" />
    <glyph glyph-name="j" unicode="j" horiz-adv-x="471" 
d="M391 104q0 -211 -18 -288q-14 -92 -74 -178q-51 -76 -166 -105q-96 -27 -192 23q-162 94 -152 274q0 49 32 95t95 59q113 14 143 -72q16 -68 -2 -133q-8 -25 -6 -47q6 -29 35 -33t58.5 18.5t33.5 55.5q2 84 -24 250q-31 170 -49.5 405.5t-14.5 345.5q4 49 12 98
q10 57 72 66q106 8 184 -90q27 -35 23 -90v-33.5v-39v-34.5q0 -33 -2 -100.5t-2 -120.5q2 -39 6 -142.5t8 -183.5zM225 1004q-84 6 -125 90q-14 31 -6 63q23 86 107 111q41 12 84 4q53 -14 80 -64q14 -33 20 -78t-35 -84.5t-125 -41.5z" />
    <glyph glyph-name="k" unicode="k" horiz-adv-x="954" 
d="M66 629q-2 115 10 270q43 344 57 401q8 63 49 108.5t111 33.5q80 -6 76 -105q0 -16 -18.5 -223t-20.5 -231q0 -37 8 -41q6 -2 23.5 4t32 15t32.5 20.5t20 13.5q172 125 265 172q70 39 120 4q61 -35 43 -108q-16 -45 -73 -84q-98 -59 -146 -82q-29 -12 -24 -43
q88 -340 219 -422q76 -39 82 -74q8 -47 -19 -78q-29 -33 -145 -22q-90 12 -162 65q-100 92 -139 230q-25 86 -31 176q0 6 -1 14t-1 14q-6 23 -31 17l-4 -2q-49 -20 -57 -34.5t-4 -66.5q6 -47 16.5 -146t19.5 -191.5t9 -100.5q4 -27 8 -79t6 -79q4 -53 -65 -71
q-53 -10 -96 18q-59 45 -80 105q-90 196 -90 602z" />
    <glyph glyph-name="l" unicode="l" horiz-adv-x="430" 
d="M78 653q0 578 53 688q20 55 88 56q61 0 84 -43q31 -72 41 -316.5t8 -410.5q0 -2 -1 -40t-1 -58.5t-2 -65.5t-5 -76t-8 -75t-12.5 -75.5t-16.5 -65.5t-21.5 -57.5t-28.5 -38t-50 -15.5t-48 8q-23 10 -37 43q-29 59 -38 237t-5 305z" />
    <glyph glyph-name="m" unicode="m" horiz-adv-x="1146" 
d="M629 758q4 4 28.5 55t57.5 97t78 85q109 88 202 23q29 -20 46.5 -46t23.5 -58.5t8 -53t0 -58.5t-2 -42q0 -20 -6 -180q0 -301 10 -379q8 -61 17 -90q27 -117 -91 -111q-29 2 -62.5 24.5t-41.5 43.5q-66 100 -66 581q-4 84 -14 94q-8 2 -18 -4q-31 -31 -47 -77
q-37 -90 -52 -136q-18 -57 -38 -133q-10 -59 -103 -59q-57 4 -74 51q-4 12 -9 36.5t-7 31.5q-41 217 -53 268q-16 61 -32.5 57t-45.5 -135q-33 -174 -23 -299q0 -113 19 -235q8 -63 -17 -99q-25 -25 -76 -31t-77 17q-74 76 -92 229q-10 53 -10.5 164t10.5 193q23 201 73 315
q51 111 164 152q106 31 176 -48q49 -57 117 -243q11 -16 27 0z" />
    <glyph glyph-name="n" unicode="n" horiz-adv-x="983" 
d="M319 602q-6 14 -20 12t-16 -16q-2 -20 -11 -211q-2 -41 -5 -183.5t-3 -152.5q-4 -29 -7 -43t-21.5 -35.5t-51.5 -25.5q-53 -10 -75.5 9t-30.5 62q-6 12 -11.5 146.5t-3.5 230.5q10 291 54 436q29 84 88 123q43 29 96 28t92 -34q14 -12 28.5 -37.5t46.5 -87t71 -125.5
q106 -188 137 -188q10 0 16 19.5t11.5 61.5t7.5 74.5t5 92t5 80.5q8 207 18 272q4 29 21.5 51.5t44.5 24.5q31 6 67 -4q41 -12 46 -76v-85v-164v-122q-4 -178 -25 -370q0 -4 -4 -35t-6 -43.5t-10.5 -40t-16.5 -46t-23.5 -43t-35.5 -44.5q-37 -35 -82 -41t-88 18
q-84 43 -193 256q-55 100 -112 248l-3 4v4z" />
    <glyph glyph-name="o" unicode="o" horiz-adv-x="907" 
d="M51 553q6 127 45 231q33 92 82 144q53 63 131 84q84 27 168 22.5t144 -39.5q74 -43 108 -77q94 -100 117 -259q14 -57 3 -188t-54 -209q-68 -137 -213 -192q-55 -29 -131 -31q-137 0 -228 76q-104 92 -143 235q-33 103 -29 203zM311 375q12 -70 33 -111q25 -68 88.5 -80
t102.5 25q45 45 59 84q31 78 31 145q0 137 -25 221q-31 100 -90 148q-23 18 -52.5 16t-52 -24.5t-30.5 -40.5q-49 -100 -64 -209q-12 -78 0 -174z" />
    <glyph glyph-name="p" unicode="p" horiz-adv-x="929" 
d="M106 895q20 109 52 164q23 39 57 45q25 6 49 6q45 -2 60.5 -18.5t15.5 -61.5v-12q-4 -27 25 -37q123 20 219 0q125 -45 186 -123t96 -184q39 -170 6.5 -294t-118.5 -200q-102 -78 -195 -84q-102 -4 -192 49q-6 6 -23 15q-20 8 -20 -13v-90t-2.5 -134.5t-6.5 -137.5
q-2 -68 -66.5 -86t-125.5 57q-20 41 -30.5 91.5t-12.5 77t-4 104.5q-4 88 -5 197.5t-1 113.5q-3 315 36 555zM305 469q2 -61 51 -94q57 -37 119 -60q41 -18 97.5 0.5t82.5 69.5q39 74 15 184q-27 104 -123 189q-82 70 -193 26q-45 -23 -51 -67q-4 -41 -4 -62q0 -129 6 -186z
" />
    <glyph glyph-name="q" unicode="q" horiz-adv-x="940" 
d="M870 344q0 -213 -4 -311q-6 -166 -30 -232q-6 -20 -17 -41q-63 -76 -127.5 -57.5t-64.5 86.5q-8 90 -9.5 217t-1.5 146q0 20 -18 12q-16 -8 -25 -14q-90 -53 -192 -50q-90 6 -193 84q-88 74 -120.5 199t6.5 295q37 109 98 185.5t184 121.5q98 20 222 0q25 10 22 37v12
q2 45 17.5 61.5t60.5 18.5q27 0 47 -6q37 -6 57 -45q29 -49 54 -164q40 -244 34 -555zM643 659q0 20 -4 62q-6 45 -53 67q-111 43 -191 -26q-100 -88 -123 -189q-25 -115 15 -184q27 -51 83 -69.5t97 -0.5q57 20 117 60q51 35 53 94q6 57 6 186z" />
    <glyph glyph-name="r" unicode="r" horiz-adv-x="774" 
d="M315 965q14 -23 35 -15q86 47 150 47q100 -2 169.5 -68.5t57.5 -168.5q-8 -72 -37 -117q-66 -96 -153 -35q-47 31 -29 125q0 4 7 20.5t6 27t-13 18.5q-23 16 -76 -6q-51 -23 -65.5 -46.5t-10.5 -84.5q6 -176 0 -359q-12 -160 -51 -211q-29 -41 -77 -43t-70 31
q-25 33 -47 117q-10 39 -15.5 74.5t-7.5 56t-4 67.5t-4 76q-20 281 -12 496q2 12 5 50t9 62q23 66 90 78q129 20 129 -82q4 -94 14 -110z" />
    <glyph glyph-name="s" unicode="s" horiz-adv-x="870" 
d="M444 1106q131 -6 207 -40t129 -101q70 -111 17 -228q-37 -76 -142 -92q-39 -4 -70.5 10.5t-38.5 34t1 35.5q43 51 28 88q-8 37 -58 57.5t-126 12.5q-90 -10 -90 -84q2 -88 135 -172q178 -125 256 -185q123 -94 94 -256q-51 -215 -368 -211q-172 10 -246 80
q-76 78 -55 189q33 137 196 114q63 -16 72.5 -54t-10.5 -85q-4 -25 16.5 -43t61.5 -20q84 -6 100 51q20 63 -55 121q-37 27 -66 44t-65.5 39.5t-69.5 43.5q-31 25 -67.5 50t-51.5 36q-111 90 -125 215q-16 147 80 248q116 114 311 102z" />
    <glyph glyph-name="t" unicode="t" horiz-adv-x="778" 
d="M199 399q0 68 7 168.5t18.5 192.5t11.5 102q6 29 -27 35q-8 2 -52 -2t-59 -4q-68 0 -57 86q10 45 45 60.5t127 15.5q45 6 51 18q4 8 6 25q2 25 5.5 44t8.5 45.5t9 49.5q12 45 28.5 62.5t47.5 27.5q82 20 133 21q37 -4 48 -18.5t3 -49.5q-2 -10 -15.5 -74.5t-17.5 -83.5
q-2 -27 8.5 -32t46.5 -1q94 8 122 0t36 -36q10 -51 -26 -86q-18 -16 -56.5 -23.5t-79.5 -9.5t-43 -2q-20 -6 -28 -20.5t-15 -51.5q-25 -406 -16 -502q6 -100 46 -125.5t81 -7.5q20 8 62 59.5t79 36.5q29 -10 11 -79q-20 -70 -81 -122t-130 -73q-98 -25 -173 -2t-112 84
q-53 110 -53 272z" />
    <glyph glyph-name="u" unicode="u" horiz-adv-x="878" 
d="M354 59q-98 0 -162.5 49.5t-95 113t-39.5 212.5q-4 106 27 234q41 176 111 254q41 49 106 47q68 0 74 -62q0 -4 -27 -125q-39 -178 -43 -217q-6 -96 4 -172q8 -68 45 -98q33 -33 78 -23q35 4 76 45q68 74 72 193q0 76 -19 238q-4 47 -35 155q-4 18 -14 48t-14 55
q-6 37 12 51t61 20q39 6 91 -2q72 -6 88 -63q33 -94 47 -197q8 -66 16 -203q8 -213 -51 -342q-99 -221 -408 -211z" />
    <glyph glyph-name="v" unicode="v" horiz-adv-x="798" 
d="M315 422q4 -6 12.5 8t16.5 37l8 25q74 219 266 493q41 57 92.5 93t80.5 42q61 20 90 -22q12 -20 -8.5 -59.5t-64.5 -105t-65 -112.5q-100 -205 -223 -667q-2 -4 -7 -22.5t-6 -23t-6 -19.5t-8.5 -19t-8.5 -15.5t-11 -16.5t-14 -13.5t-17.5 -14.5t-21.5 -10
q-100 -31 -170 55q-55 74 -105 232q-86 272 -102 637q-4 27 8 67.5t49 48.5q51 10 72 -7t33 -60q4 -16 14 -73.5t10 -61.5q2 -6 17.5 -101.5t27.5 -148.5q33 -162 41 -166z" />
    <glyph glyph-name="w" unicode="w" horiz-adv-x="1146" 
d="M631 291q-14 20 -27 2q-70 -193 -119 -244q-63 -80 -174 -47q-115 41 -166 152q-49 113 -73 313q-23 205 0 358q31 164 92 230q29 20 80 15t75 -30q25 -35 17 -98q-16 -111 -21 -235q-6 -131 25 -299q29 -131 43 -136q6 -2 11 2.5t9.5 12.5t6.5 15t4 16.5t2 11.5
q2 6 55 268q8 45 16 68q18 49 74 49q88 2 103 -58q16 -72 36 -133q8 -27 26.5 -74t25.5 -63q25 -53 49 -76q10 -10 18 -4q6 4 15 94q0 481 65 582q6 18 40 42t65 26q51 2 74.5 -20.5t19.5 -48.5t-6 -42q-4 -14 -15 -92q-4 -23 -8 -174.5t-2 -202.5q0 -45 6 -180
q0 -2 1 -54.5t-2 -77t-21.5 -63.5t-53.5 -63q-96 -66 -204 22q-45 39 -78 86t-56.5 94.5t-27.5 55.5z" />
    <glyph glyph-name="x" unicode="x" horiz-adv-x="849" 
d="M834 176q12 -61 -82 -88q-117 -25 -220 41q-61 43 -108 90q-201 -332 -307 -360q-20 -4 -48 10t-38 29q-10 18 -8 55q6 63 82.5 219t142.5 264q-96 139 -133 226q-66 139 -43 243q10 31 57 54.5t82 15.5q41 -16 65 -76q55 -125 109 -209q0 -6 4 -10q180 291 246 338
q45 39 100 10q49 -29 49 -78q-12 -94 -227 -497l6 -7q55 -57 125 -111t104 -87t42 -72z" />
    <glyph glyph-name="y" unicode="y" horiz-adv-x="890" 
d="M815 809q18 -248 -4 -551q-27 -424 -72 -543q-49 -133 -135 -176q-104 -51 -207 -39q-111 10 -161 97q-102 176 28 342q27 35 72 38q43 0 74 -24q29 -23 20 -59q-6 -29 -31 -68q-27 -43 -24 -66q8 -51 47 -71q35 -14 72.5 4t58.5 65q45 102 31 275q-12 121 -43 112
q-4 0 -6 -2q-12 -8 -80 -39q-86 -37 -156 -30q-152 4 -207 168q-31 86 -31 215q0 109 35 231q47 172 121 252q43 47 109 43q70 -6 71 -65q0 -10 -16 -66.5t-16 -58.5q-47 -180 -52 -215q-10 -94 -2 -170q2 -45 39 -101q27 -39 80 -26q41 8 76 43q70 70 80 188q4 72 -11 238
q-2 49 -26 157q-2 8 -11.5 43t-13.5 60q-6 39 12.5 52t63.5 17q41 2 90 -4q72 -12 86 -67q29 -103 39 -199z" />
    <glyph glyph-name="z" unicode="z" horiz-adv-x="864" 
d="M678 258q119 14 123 -111q0 -37 -11.5 -62.5t-22.5 -38.5t-39 -22.5t-42 -12.5t-47 -7q-201 -14 -315 -10q-178 10 -222 84q-29 37 -34 106.5t16 122.5q8 25 25.5 56.5t48 69.5t48 60.5t56.5 66.5t43 48q27 31 166 152q37 29 6 63q-27 27 -125 23q-27 -2 -53.5 -9.5
t-58 -18.5t-41.5 -15q-113 -29 -127.5 94t123.5 147q66 12 213 17q180 0 249 -17q90 -16 115 -81q18 -53 9 -133t-46 -136q-29 -41 -111.5 -113.5t-119.5 -109.5q-166 -158 -166 -203q0 -37 40 -49t120 -8q31 2 92 22.5t88 24.5z" />
    <glyph glyph-name="braceleft" unicode="{" horiz-adv-x="532" 
d="M96 1104q4 96 60 156q55 61 147 106q74 35 115 -12q16 -29 9 -68t-21 -63q-35 -53 -13 -119q37 -98 53 -150q53 -158 -51 -262q-20 -20 -22 -29.5t14 -46.5q76 -133 16 -247q-55 -102 5 -238q27 -53 36 -92q16 -51 -41 -62q-178 -31 -258 109q-41 72 -41 160
q-4 92 78 209q25 43 16.5 62.5t-49 48t-71.5 69.5q-39 51 18 88q6 4 20.5 12t20.5 15q72 47 76 67.5t-45 89.5q-60 80 -72 197z" />
    <glyph glyph-name="bar" unicode="|" horiz-adv-x="450" 
d="M86 651q0 4 1 87t4 175.5t8 200t16.5 193.5t25.5 123q25 63 88 63q27 0 45.5 -8t24.5 -15.5t14 -23.5q31 -82 40 -356.5t7 -466.5q0 -524 -96 -627q-16 -16 -50 -16t-48 8q-23 12 -37 49q-51 118 -43 614z" />
    <glyph glyph-name="braceright" unicode="}" horiz-adv-x="532" 
d="M444 1104q-12 -117 -71 -197q-49 -70 -45 -90t75 -67q6 -6 20.5 -14.5t20.5 -12.5q57 -37 19 -88q-31 -41 -72 -69.5t-49 -48t16 -62.5q82 -117 78 -209q0 -88 -41 -160q-80 -139 -258 -109q-57 10 -41 62q10 39 37 92q59 135 4 238q-59 115 17 247q16 37 14 46.5
t-23 29.5q-104 104 -51 262q16 51 53 150q23 66 -12 119q-14 25 -21.5 63.5t9.5 67.5q41 47 115 12q92 -45 147 -106q55 -60 59 -156z" />
    <glyph glyph-name="asciitilde" unicode="~" horiz-adv-x="976" 
d="M614 479q-96 0 -196 86q-45 39 -68 45q-57 16 -84 -59q-14 -43 -55 -62.5t-84 -3.5q-41 14 -59.5 54.5t-4.5 81.5q39 119 135.5 174t209.5 22q74 -18 151 -92q37 -33 57 -33q23 0 54.5 28t46.5 52q25 37 68.5 47t80.5 -16q37 -25 46.5 -68t-15.5 -80q-14 -23 -41 -54.5
t-95.5 -75.5t-137.5 -46h-9z" />
    <glyph glyph-name="exclamdown" unicode="&#xa1;" horiz-adv-x="489" 
d="M403 444q2 -86 -14 -223q-6 -68 -22 -158q-8 -47 -53.5 -71.5t-104.5 -16.5q-63 10 -90 41q-27 41 -19 123q12 53 21 432q0 117 24 271q10 74 15 86q16 51 76 51q82 0 96 -51q10 -20 33 -125q8 -31 23 -165.5t15 -193.5zM150 1073q-68 25 -74 117q-2 33 22.5 69.5
t69.5 59.5q33 16 74 10q29 -4 64.5 -25.5t47.5 -52.5q12 -8 10 -63t-36 -90q-27 -20 -87 -29.5t-91 4.5z" />
    <glyph glyph-name="cent" unicode="&#xa2;" horiz-adv-x="731" 
d="M252 297q-8 14 -20.5 26.5t-33 28t-28.5 21.5q-137 127 -98 362q31 178 202 246q23 8 32 33.5t5 48.5q-12 55 -4 92q12 47 82 55q61 6 79.5 -15t23.5 -89q2 -14 2 -41q4 -88 73 -115q35 -12 60 -41q45 -49 10 -96q-16 -23 -52 -34t-59 1l-67 43q-43 31 -107 6
q-29 -10 -52.5 -38.5t-25.5 -57.5q-14 -170 91 -221q31 -14 81 -13t80 15q82 39 97 39q39 6 61 -45q18 -41 -4 -76q-33 -49 -121 -96q-16 -10 -50 -24.5t-46 -22.5t-23.5 -28.5t-9.5 -53.5q6 -80 -20 -111q-45 -47 -113 -20q-57 20 -49 78q18 114 4 143z" />
    <glyph glyph-name="sterling" unicode="&#xa3;" horiz-adv-x="1067" 
d="M492 422q117 10 200 -74q92 -94 199 -47q43 18 78 4t53 -53q37 -82 -49 -133q-66 -37 -195 -25q-106 14 -182 92q-57 59 -135 51t-142 -75q-31 -33 -80 -43t-89 10q-47 25 -37 84q10 49 34 147q12 55 41 166q6 27 3 42.5t-8 20.5t-25 13q-8 4 -37 8t-37 11
q-39 29 -18 102q16 57 69 76q2 0 29 6q55 8 66.5 18.5t21.5 71.5q31 158 104.5 241t208.5 111q111 23 189 -8q117 -47 131 -195q2 -25 -2 -77q-6 -102 -88 -111q-35 -4 -60.5 19.5t-29.5 70.5q-2 4 -5.5 23.5t-10.5 35t-23 23.5q-47 27 -95 -6q-49 -37 -73 -191
q-6 -29 26 -32q27 -4 63 -14.5t48 -12.5q82 -18 67 -100q-27 -94 -137 -82l-98 6q-25 4 -45 -37q-20 -49 -21 -123q0 -18 27 -18q23 0 64 4z" />
    <glyph glyph-name="currency" unicode="&#xa4;" horiz-adv-x="909" 
d="M100 287q-6 35 23 69q61 74 20 183q-59 156 -18 272q10 31 -8 68q-55 98 -66 125q-35 78 49 98q37 14 66 -6q12 -8 21.5 -18.5t19.5 -26t18 -23.5q31 -37 72 -14q123 76 293 4q29 -10 53 12l29.5 29.5t40.5 36.5q70 55 116 12q51 -41 17 -109q-8 -16 -21.5 -28.5
t-32 -24.5t-28.5 -22q-37 -33 -10 -74q39 -61 43 -168q0 -147 -35 -223q-6 -10 4 -39q23 -53 43 -107q33 -86 -29 -110q-82 -23 -110 35l-37 73q-27 41 -64 21q-104 -53 -217 -15q-55 18 -90 -28q-39 -59 -98 -58q-58 1 -64 56zM324 709q4 -74 26 -111q27 -53 64 -66
q45 -16 95 1.5t75 60.5q70 125 4 240q-31 53 -103.5 62t-117.5 -34q-57 -55 -43 -153z" />
    <glyph glyph-name="yen" unicode="&#xa5;" horiz-adv-x="856" 
d="M39 1159q-4 51 10 92q10 39 47 47.5t72 -16.5q33 -20 67.5 -102t36.5 -86q53 -76 151.5 -73t147.5 83q6 8 17.5 37.5t24 63.5t16.5 42q2 4 7 18.5t9 20.5t11.5 15.5t16.5 12.5t23 3q102 -10 119 -92q16 -111 -78 -244q-59 -84 -166 -145q-29 -16 -39 -66.5t9 -77.5
q12 -16 32 -12q98 8 132 -29q23 -25 13.5 -65.5t-40.5 -57.5q-23 -12 -96 -16q-23 0 -35 -10q-14 -12 -12 -27.5t18 -23.5q25 -8 37 -7q43 0 75.5 -18t32.5 -53q-4 -51 -34 -72q-25 -18 -84 -18q-47 0 -57.5 -9.5t-16.5 -56.5q-2 -12 -5 -36.5t-6 -44t-8 -36.5
q-10 -39 -31.5 -53t-64.5 -18q-35 -6 -63.5 9t-32.5 50q-4 29 -7 75t-5 75q-2 39 -43 34h-50q-29 4 -52 24.5t-25 47.5q-6 66 65 86q8 2 26.5 5t28.5 5q33 6 29 41q-4 23 -33 19q-53 -4 -79 6q-41 18 -48 57q-6 57 35 88q18 12 92 25q37 6 37 41v33q0 39 -8 57t-39 35
q-170 88 -180 317z" />
    <glyph glyph-name="dieresis" unicode="&#xa8;" horiz-adv-x="704" 
d="M203 1720q25 -4 54.5 -21.5t37.5 -43.5q10 -8 9 -53.5t-30 -73.5q-20 -16 -71 -23.5t-80 2.5q-55 20 -57 97q-4 70 75 108q27 14 62 8zM621 1655q29 -78 -23 -127q-23 -16 -73 -23.5t-76 2.5q-59 23 -62 97q-4 70 78 108q27 14 61 8q25 -4 55 -21t40 -44z" />
    <glyph glyph-name="guillemotleft" unicode="&#xab;" horiz-adv-x="1064" 
d="M530 772q25 39 80 135q86 150 117 195q41 63 103.5 83.5t123.5 -7.5q31 -14 41 -48q20 -59 -47 -161q-18 -31 -76 -107q-100 -141 -116 -170l-6 -10l6 -10q4 -8 14 -23.5t20.5 -31t18.5 -29.5q100 -164 141 -211q59 -70 54 -129q-4 -41 -43 -74q-41 -29 -82 -22
q-29 6 -58.5 27.5t-44.5 39.5l-14 19q-33 45 -96 124q-88 111 -136 181q-35 47 -38 104q-2 51 22 96l2 2zM100 764q25 39 80 135q86 150 117 195q41 63 103.5 83.5t123.5 -8.5q31 -14 41 -47q20 -59 -47 -161q-18 -31 -76 -107q-100 -141 -116 -170l-7 -10l7 -10
q4 -8 14 -23.5t20.5 -31t18.5 -29.5q100 -164 141 -211q59 -70 53 -129q-4 -41 -43 -74q-41 -29 -81 -23q-29 6 -59 28t-44 40l-14 18q-33 45 -96 125q-88 111 -136 181q-35 47 -39 104q-2 51 23 96l2 2z" />
    <glyph glyph-name="degree" unicode="&#xb0;" horiz-adv-x="641" 
d="M63 1133q2 66 29 120q18 45 51 76q35 31 86 45q117 31 201 -10q35 -14 70 -41q59 -51 73 -135q10 -29 2 -98.5t-34 -110.5q-41 -72 -138 -100q-25 -12 -84 -17q-86 0 -145 41q-68 45 -92 123q-23 54 -19 107zM260 1098q6 -20 16 -33q16 -20 50 -23q35 -4 55 7
q25 14 35 24q16 29 16 43q0 39 -14 66q-18 33 -49 43q-31 12 -58 -2q-2 -2 -6 -4t-7 -4.5t-5 -4.5q-27 -33 -35 -61q-4 -28 2 -51z" />
    <glyph glyph-name="plusminus" unicode="&#xb1;" horiz-adv-x="831" 
d="M770 836q10 -55 -45 -80t-133 -29h-72q0 -35 2 -49q4 -184 -102 -207q-55 -10 -80 45t-29 133v78q-31 0 -75 -4q-84 -10 -130.5 18.5t-50.5 73.5q-6 51 35 80t86 31l43 2q10 0 41 1t51 1q0 35 -4 76q-10 86 17.5 131t74.5 51q51 4 80 -37t31 -86l2 -43q0 -51 2 -86
q10 0 26.5 1t24.5 1q182 4 205 -102zM731 301q0 -16 -2 -30.5t-10 -23.5t-15.5 -17.5t-22.5 -12.5t-22.5 -7t-28 -5t-25.5 -3t-26.5 -1h-23.5q-18 -2 -148.5 0t-158.5 -6q-74 -8 -114 17.5t-44 70.5q-4 51 32 78.5t75 29.5l36 2q37 0 153 4t144 4q195 4 201 -100z" />
    <glyph glyph-name="acute" unicode="&#xb4;" horiz-adv-x="638" 
d="M152 1620q145 84 221 125q117 66 174 -8q29 -39 2 -78t-76 -66q-14 -8 -105.5 -54t-123.5 -71q-57 -35 -95 -28.5t-61 41.5q-20 43 -7 73.5t42 47.5z" />
    <glyph glyph-name="mu" unicode="&#xb5;" horiz-adv-x="925" 
d="M842 889q2 -51 0 -206t-8 -228q-12 -94 -21 -150q-8 -45 -45 -68.5t-84 -15.5q-55 10 -72 39q-27 39 -18 105q-88 -33 -211 -29q-8 0 -20.5 1t-16.5 1q4 -172 12 -221q12 -86 -18 -140q-23 -37 -84 -47q-57 -10 -100 18.5t-52 82.5q-16 119 -22 180q-10 133 -10 260
q-4 291 41 471q41 176 110 256q41 49 107 47q68 0 73 -63q0 -8 -5 -34t-12 -55.5t-9 -35.5q-39 -172 -43 -217q-12 -92 4 -172q12 -66 43 -97q37 -33 80 -24q39 8 74 47q70 74 73 192q0 27 -18 236q-2 31 -35 158q-27 96 -29 102q-6 37 11.5 51.5t62.5 20.5q37 4 90 -2
q72 -6 88 -64q31 -86 47 -196q9 -64 17 -203z" />
    <glyph glyph-name="periodcentered" unicode="&#xb7;" horiz-adv-x="389" 
d="M178 586q-72 6 -108 84q-12 29 -7 59q18 80 93 105q37 12 73 4q47 -12 66 -62q10 -18 20 -69q4 -45 -31.5 -82t-105.5 -39z" />
    <glyph glyph-name="cedilla" unicode="&#xb8;" horiz-adv-x="413" 
d="M201 -264q-33 0 -80 18q-45 23 -25 70q10 18 29.5 25.5t38.5 -1.5q33 -14 49 -8q6 4 16 23q-2 14 -8 20q-14 12 -39 13q-20 -2 -37 14q-16 12 -16 37v162q0 23 15.5 37t36 14t35.5 -14.5t15 -36.5v-119q35 -10 60 -33q41 -41 41 -102q0 -6 -2 -11q0 -6 -5.5 -21.5
t-22.5 -39t-44 -35.5q-28 -12 -57 -12z" />
    <glyph glyph-name="guillemotright" unicode="&#xbb;" horiz-adv-x="1069" 
d="M539 772q6 -10 14 -27l2 -2q25 -45 23 -96q-4 -57 -39 -104q-47 -70 -136 -181q-63 -80 -96 -124q-51 -74 -117 -86q-41 -6 -81 22q-39 33 -43 74q-6 59 53 129q41 47 141 211q12 18 33 51l20 33l6 10l-6 10q-16 29 -116 170q-57 76 -76 107q-68 102 -47 161q10 33 41 48
q61 29 123.5 8t103.5 -84q31 -45 117 -195q55 -96 80 -135zM969 764q6 -10 14 -27l2 -2q25 -45 23 -96q-4 -57 -39 -104q-47 -70 -135 -181q-63 -80 -97 -125q-51 -74 -116 -86q-41 -6 -82 23q-39 33 -43 74q-6 59 53 129q41 47 141 211q12 18 33 51l20 33l7 10l-7 10
q-16 29 -116 170q-57 76 -76 107q-68 102 -47 161q10 33 41 47q61 29 123.5 8.5t103.5 -83.5q31 -45 117 -195q55 -96 80 -135z" />
    <glyph glyph-name="questiondown" unicode="&#xbf;" horiz-adv-x="962" 
d="M139 113q-66 78 -82 177t25 195q33 80 123 138q111 74 121 79q76 41 88 95q18 92 28 157q8 55 33 79t74 24q51 0 59 -41q31 -100 35 -205q14 -127 -49 -207q-16 -18 -37.5 -30.5t-52.5 -24.5t-37 -14q-63 -33 -95 -100.5t-18 -135.5q14 -78 65.5 -102.5t84.5 -6.5
q57 25 57 68q0 80 -43 109q-45 59 33 114q23 14 55.5 22.5t52.5 8.5l23 2q92 8 160.5 -47t70.5 -148q6 -205 -215 -305q-43 -23 -124.5 -39t-139.5 -10q-102 10 -168 43t-127 105zM580 1114q-41 -23 -89.5 -9.5t-76.5 50.5q-49 66 -31 141q12 45 58 72t98 23q94 -12 114 -95
q14 -53 -6 -103t-67 -79z" />
    <glyph glyph-name="Agrave" unicode="&#xc0;" 
d="M135 416q-4 2 -37 -4q-57 -8 -82 24q-29 37 -2 74q20 20 84 37q6 2 16.5 4t16.5 4q23 8 29 31q2 4 8 41l8 39q18 84 55 211q74 233 140 372q2 4 18.5 35t26.5 50.5t29.5 42t37.5 30.5q94 47 168 -57q82 -104 156 -303q63 -193 98 -373q14 -70 36 -218.5t22 -218
t-29 -106.5t-55 -41q-68 -6 -93 41q-18 37 -8 111q4 47 -2 112q-12 84 -33 158l-2 8q-4 6 -6 10q-6 14 -12 17.5t-23 1.5q-14 -2 -53 -10q-25 -4 -80 -16.5t-84 -18.5q-6 -2 -18 -5t-16 -3q-23 -8 -27 -29q0 -2 -1 -6t-1 -6q-37 -172 -47 -285q-6 -49 -6 -98q-2 -27 -2 -78
q0 -109 -111 -133q-82 -14 -127 61q-35 68 -21 223q4 43 16.5 127t14.5 125q4 13 -2 19zM664 754q0 4 -5 16q-29 86 -96 236q-14 20 -22 -7q-31 -74 -74 -260q-6 -20 -12 -71q0 -6 6 -9.5t12 -1.5q27 4 100 37q4 2 76 35q17 13 15 25zM680 1657q2 -2 6 -4t15.5 -9.5
t20.5 -15.5t18.5 -20.5t13.5 -25.5t2 -30.5t-13 -33.5q-23 -35 -60.5 -41.5t-94.5 28.5q-33 25 -124 71t-106 54q-49 27 -75.5 66t2.5 78q57 74 174 8q76 -41 221 -125z" />
    <glyph glyph-name="Aacute" unicode="&#xc1;" 
d="M135 416q-4 2 -37 -4q-57 -8 -82 24q-29 37 -2 74q20 20 84 37q6 2 16.5 4t16.5 4q23 8 29 31q2 4 8 41l8 39q18 84 55 211q74 233 140 372q2 4 18.5 35t26.5 50.5t29.5 42t37.5 30.5q94 47 168 -57q82 -104 156 -303q63 -193 98 -373q14 -70 36 -218.5t22 -218
t-29 -106.5t-55 -41q-68 -6 -93 41q-18 37 -8 111q4 47 -2 112q-12 84 -33 158l-2 8q-4 6 -6 10q-6 14 -12 17.5t-23 1.5q-14 -2 -53 -10q-25 -4 -80 -16.5t-84 -18.5q-6 -2 -18 -5t-16 -3q-23 -8 -27 -29q0 -2 -1 -6t-1 -6q-37 -172 -47 -285q-6 -49 -6 -98q-2 -27 -2 -78
q0 -109 -111 -133q-82 -14 -127 61q-35 68 -21 223q4 43 16.5 127t14.5 125q4 13 -2 19zM664 754q0 4 -5 16q-29 86 -96 236q-14 20 -22 -7q-31 -74 -74 -260q-6 -20 -12 -71q0 -6 6 -9.5t12 -1.5q27 4 100 37q4 2 76 35q17 13 15 25zM293 1620q145 84 221 125
q117 66 174 -8q29 -39 2.5 -78t-76.5 -66q-14 -8 -105 -54t-124 -71q-57 -35 -95 -28.5t-61 41.5q-20 43 -6.5 73.5t41.5 47.5z" />
    <glyph glyph-name="Acircumflex" unicode="&#xc2;" 
d="M135 416q-4 2 -37 -4q-57 -8 -82 24q-29 37 -2 74q20 20 84 37q6 2 16.5 4t16.5 4q23 8 29 31q2 4 8 41l8 39q18 84 55 211q74 233 140 372q2 4 18.5 35t26.5 50.5t29.5 42t37.5 30.5q94 47 168 -57q82 -104 156 -303q63 -193 98 -373q14 -70 36 -218.5t22 -218
t-29 -106.5t-55 -41q-68 -6 -93 41q-18 37 -8 111q4 47 -2 112q-12 84 -33 158l-2 8q-4 6 -6 10q-6 14 -12 17.5t-23 1.5q-14 -2 -53 -10q-25 -4 -80 -16.5t-84 -18.5q-6 -2 -18 -5t-16 -3q-23 -8 -27 -29q0 -2 -1 -6t-1 -6q-37 -172 -47 -285q-6 -49 -6 -98q-2 -27 -2 -78
q0 -109 -111 -133q-82 -14 -127 61q-35 68 -21 223q4 43 16.5 127t14.5 125q4 13 -2 19zM664 754q0 4 -5 16q-29 86 -96 236q-14 20 -22 -7q-31 -74 -74 -260q-6 -20 -12 -71q0 -6 6 -9.5t12 -1.5q27 4 100 37q4 2 76 35q17 13 15 25zM768 1628q84 -59 47 -141
q-29 -59 -133 -2q-10 6 -41 28.5t-61.5 44t-53.5 35.5q-14 -8 -50 -30.5t-66.5 -43t-47.5 -34.5q-78 -63 -129 -4q-20 35 -12 63.5t29 46.5l22 19q20 12 84 62t88 67q61 45 123 8l17 -8q18 -12 87.5 -52.5t96.5 -58.5z" />
    <glyph glyph-name="Atilde" unicode="&#xc3;" 
d="M135 416q-4 2 -37 -4q-57 -8 -82 24q-29 37 -2 74q20 20 84 37q6 2 16.5 4t16.5 4q23 8 29 31q2 4 8 41l8 39q18 84 55 211q74 233 140 372q2 4 18.5 35t26.5 50.5t29.5 42t37.5 30.5q94 47 168 -57q82 -104 156 -303q63 -193 98 -373q14 -70 36 -218.5t22 -218
t-29 -106.5t-55 -41q-68 -6 -93 41q-18 37 -8 111q4 47 -2 112q-12 84 -33 158l-2 8q-4 6 -6 10q-6 14 -12 17.5t-23 1.5q-14 -2 -53 -10q-25 -4 -80 -16.5t-84 -18.5q-6 -2 -18 -5t-16 -3q-23 -8 -27 -29q0 -2 -1 -6t-1 -6q-37 -172 -47 -285q-6 -49 -6 -98q-2 -27 -2 -78
q0 -109 -111 -133q-82 -14 -127 61q-35 68 -21 223q4 43 16.5 127t14.5 125q4 13 -2 19zM664 754q0 4 -5 16q-29 86 -96 236q-14 20 -22 -7q-31 -74 -74 -260q-6 -20 -12 -71q0 -6 6 -9.5t12 -1.5q27 4 100 37q4 2 76 35q17 13 15 25zM596 1497q-80 0 -150 66q-31 29 -51 32
q-45 14 -65 -43q-10 -33 -41 -48t-62 -5q-33 12 -47 43t-4 64q33 90 104.5 131t157.5 18q66 -23 115 -72q35 -25 45 -24q31 2 76 59q18 29 52 36t60 -11q29 -18 36 -52t-11 -61q-88 -131 -211 -133h-4z" />
    <glyph glyph-name="Adieresis" unicode="&#xc4;" 
d="M135 416q-4 2 -37 -4q-57 -8 -82 24q-29 37 -2 74q20 20 84 37q6 2 16.5 4t16.5 4q23 8 29 31q2 4 8 41l8 39q18 84 55 211q74 233 140 372q2 4 18.5 35t26.5 50.5t29.5 42t37.5 30.5q94 47 168 -57q82 -104 156 -303q63 -193 98 -373q14 -70 36 -218.5t22 -218
t-29 -106.5t-55 -41q-68 -6 -93 41q-18 37 -8 111q4 47 -2 112q-12 84 -33 158l-2 8q-4 6 -6 10q-6 14 -12 17.5t-23 1.5q-14 -2 -53 -10q-25 -4 -80 -16.5t-84 -18.5q-6 -2 -18 -5t-16 -3q-23 -8 -27 -29q0 -2 -1 -6t-1 -6q-37 -172 -47 -285q-6 -49 -6 -98q-2 -27 -2 -78
q0 -109 -111 -133q-82 -14 -127 61q-35 68 -21 223q4 43 16.5 127t14.5 125q4 13 -2 19zM664 754q0 4 -5 16q-29 86 -96 236q-14 20 -22 -7q-31 -74 -74 -260q-6 -20 -12 -71q0 -6 6 -9.5t12 -1.5q27 4 100 37q4 2 76 35q17 13 15 25zM377 1735q25 -4 54.5 -21.5t37.5 -44.5
q10 -8 9 -53t-29 -74q-20 -16 -71.5 -23.5t-80.5 3.5q-55 20 -57 96q-4 70 75 108q27 15 62 9zM795 1669q29 -78 -23 -127q-23 -16 -73 -23.5t-76 3.5q-59 23 -62 96q-4 70 78 108q27 14 61 9q25 -4 55 -21.5t40 -44.5z" />
    <glyph glyph-name="Aring" unicode="&#xc5;" 
d="M905 676q57 -279 58 -438q0 -68 -29 -106t-53 -42q-68 -10 -95 39q-18 37 -8 113q4 39 -2 112q-14 88 -33 160q-2 4 -6 16q-10 20 -37 19q-14 -2 -53 -10q-43 -8 -164 -35q-8 -2 -19 -5t-18 -3q-20 -8 -26 -29q0 -8 -2 -12q-37 -186 -47 -285q-2 -14 -3 -31.5t-2 -38
t-1 -30.5v-78q-6 -109 -113 -133q-84 -10 -127 61q-33 72 -21 225q4 41 16.5 126t16.5 128q0 14 -2 17q-4 2 -37 -4q-25 -6 -46 -1t-38 27q-31 39 -2 72q16 18 86 39q4 0 9.5 2t10.5 3t11 1q20 8 31 33q2 4 8 39t6 39q25 115 57 211q66 215 140 374q23 53 41 82
q-47 35 -68 92q-14 47 -14 84q2 53 22 97q14 37 41 59q27 27 68 35q94 25 157 -6q39 -18 56 -33q49 -43 59 -107q16 -100 -26 -165q-12 -25 -45 -48q66 -90 145 -292q63 -195 98 -373zM485 1524q-4 -23 0 -41q2 -12 15 -27q10 -12 39 -18q20 -2 43 6q18 8 26 20q12 20 13 33
q0 33 -11 51q-12 23 -39 35q-25 8 -45 -2q-8 -4 -14 -10q-21 -22 -27 -47zM649 729q14 10 15 25q-2 2 -3.5 8t-1.5 8q-41 113 -96 238q-14 23 -24 -7q-35 -90 -72 -260q-6 -25 -12 -73q0 -14 18 -11q35 8 100 37q4 2 76 35z" />
    <glyph glyph-name="AE" unicode="&#xc6;" horiz-adv-x="1554" 
d="M1470 424q61 -4 62 -68q-8 -61 -45 -114q-35 -59 -93.5 -111.5t-88.5 -69.5q-131 -68 -334 -61q-145 2 -246 113q-39 49 -49 92q-43 129 -8 264q14 59 47 115h-17q-37 -8 -53 -13q-27 -6 -82 -16t-82 -16q-25 -8 -37 -11q-20 -6 -24 -26q0 -8 -2 -15q-37 -188 -49 -282
q-4 -33 -4 -101v-77q-6 -109 -111 -133q-47 -6 -75.5 8t-53.5 53q-35 68 -21 225q4 49 16.5 137.5t16.5 114.5q0 14 -4 19q-4 2 -37 -5q-57 -8 -82 25q-33 43 0 72q8 10 17.5 16t14.5 8t25.5 7.5t26.5 7.5q25 6 29 8q27 6 33 31q14 57 14 77q25 98 57 211q59 203 138 373
q63 135 110 160q98 49 172 -58q55 -74 119 -210q4 8 18 22q66 72 136.5 97.5t167.5 21.5q139 -6 215 -39q78 -43 118 -88q25 -25 27 -57.5t-18 -49.5q-33 -16 -63 -11t-50 20q-55 31 -147 34q-72 6 -132 -41q-53 -45 -43 -116q8 -43 58 -49q96 8 170 20q86 18 137 -20
q14 -8 25.5 -29t9.5 -41q-4 -53 -64 -78q-16 -6 -65 -22.5t-80 -30.5q-94 -37 -137 -90q-6 -6 -11 -13q-41 -57 -57 -110q-23 -59 -22 -135q-4 -66 28 -119q14 -20 35 -31q51 -27 129 -20q66 12 119 51t73.5 65.5t51.5 75.5q34 35 71 33zM647 764q14 6 15 24q-2 2 -3 7
q-2 6 -2 8q-49 137 -94 237q-14 23 -26 -6q-31 -84 -72 -260q-8 -27 -10 -72q-2 -6 4 -10t14 -2q10 2 96 37q53 25 78 37z" />
    <glyph glyph-name="Ccedilla" unicode="&#xc7;" horiz-adv-x="1024" 
d="M954 264q61 -76 -26 -141q-80 -57 -146.5 -83t-160.5 -34q-10 0 -15 -2v-51q35 -10 60 -33q41 -41 41 -102q0 -6 -2 -11q0 -6 -5.5 -21t-23 -38.5t-43.5 -36.5q-29 -12 -58 -12q-35 0 -79 18q-45 23 -25 70q10 18 29.5 25.5t38.5 -0.5q33 -14 49 -9q6 4 16 23
q-2 14 -8 20q-14 12 -39 13q-20 -2 -37 14q-16 12 -16 37v96q-74 10 -148 55q-78 47 -131 123q-90 106 -133 250q-20 76 -20 191.5t34 234.5q14 55 52 125q74 139 198 229q102 68 213 80q152 18 250 -75q37 -33 78 -109q14 -39 31 -96q10 -49 -8 -78q-25 -37 -68 -43
q-63 -12 -76 68q-6 43 -49 72.5t-102 29.5q-66 0 -117 -49q-37 -27 -80 -111q-31 -63 -43 -147q-16 -123 14 -258q10 -66 41 -136q31 -72 92 -116q70 -45 148 -35q76 6 172 70q57 34 102 -17z" />
    <glyph glyph-name="Egrave" unicode="&#xc8;" horiz-adv-x="962" 
d="M385 -4q-145 0 -246 110q-37 49 -49 93q-41 125 -6 262q27 123 119 211q12 12 36.5 35.5t36.5 35.5q12 10 15.5 14.5t3.5 9.5t-4 8t-17 11q-14 6 -26 19q-98 78 -109 211q-4 31 12.5 85t51.5 91q66 70 136.5 95.5t166.5 21.5q147 -8 215 -41q76 -41 119 -86
q27 -25 27.5 -57.5t-19.5 -51.5q-31 -16 -61.5 -10t-51.5 20q-55 33 -147 37q-74 0 -131 -45q-53 -41 -41 -117q6 -41 57 -45q102 4 170 21q82 14 137 -21q39 -29 35 -69q-2 -20 -5 -29.5t-17.5 -24t-42.5 -26.5q-27 -10 -72 -25.5t-72 -25.5q-100 -43 -137 -90
q-2 -2 -6 -7.5t-6 -9.5q-43 -61 -58 -108q-18 -57 -22 -136q0 -72 29 -118q20 -25 34 -31q59 -31 129 -20q29 6 55.5 15t49 24.5t38 26.5t35 33.5t25.5 31t23.5 33t19.5 26.5q25 39 68 35q66 0 65 -70q-10 -61 -47 -112q-35 -59 -93 -111.5t-91 -71.5q-135 -67 -332 -57z
M662 1573q2 -2 6 -4t15 -9.5t20.5 -15.5t18.5 -20.5t13 -25.5t2 -30.5t-12 -33.5q-23 -35 -60.5 -41.5t-95.5 28.5q-33 25 -124 71t-105 54q-49 27 -75.5 66t1.5 78q57 74 174 8q77 -41 222 -125z" />
    <glyph glyph-name="Eacute" unicode="&#xc9;" horiz-adv-x="962" 
d="M385 -4q-145 0 -246 110q-37 49 -49 93q-41 125 -6 262q27 123 119 211q12 12 36.5 35.5t36.5 35.5q12 10 15.5 14.5t3.5 9.5t-4 8t-17 11q-14 6 -26 19q-98 78 -109 211q-4 31 12.5 85t51.5 91q66 70 136.5 95.5t166.5 21.5q147 -8 215 -41q76 -41 119 -86
q27 -25 27.5 -57.5t-19.5 -51.5q-31 -16 -61.5 -10t-51.5 20q-55 33 -147 37q-74 0 -131 -45q-53 -41 -41 -117q6 -41 57 -45q102 4 170 21q82 14 137 -21q39 -29 35 -69q-2 -20 -5 -29.5t-17.5 -24t-42.5 -26.5q-27 -10 -72 -25.5t-72 -25.5q-100 -43 -137 -90
q-2 -2 -6 -7.5t-6 -9.5q-43 -61 -58 -108q-18 -57 -22 -136q0 -72 29 -118q20 -25 34 -31q59 -31 129 -20q29 6 55.5 15t49 24.5t38 26.5t35 33.5t25.5 31t23.5 33t19.5 26.5q25 39 68 35q66 0 65 -70q-10 -61 -47 -112q-35 -59 -93 -111.5t-91 -71.5q-135 -67 -332 -57z
M291 1567q145 84 221 125q117 66 174 -9q29 -39 2.5 -77.5t-76.5 -65.5q-14 -8 -105 -54t-124 -71q-57 -35 -95 -28.5t-61 40.5q-20 43 -7 74t42 47z" />
    <glyph glyph-name="Ecircumflex" unicode="&#xca;" horiz-adv-x="962" 
d="M385 -4q-145 0 -246 110q-37 49 -49 93q-41 125 -6 262q27 123 119 211q12 12 36.5 35.5t36.5 35.5q14 14 17.5 19.5t0.5 9.5t-20 14q-14 6 -26 19q-98 78 -109 211q-4 31 12.5 85t51.5 91q66 70 136.5 95.5t166.5 21.5q147 -8 215 -41q76 -41 119 -86q27 -25 27.5 -57.5
t-19.5 -51.5q-31 -16 -61.5 -10t-51.5 20q-55 33 -147 37q-74 0 -131 -45q-53 -41 -41 -117q6 -41 57 -45q102 4 170 21q82 14 137 -21q39 -29 35 -69q-2 -20 -5 -29.5t-17.5 -24t-42.5 -26.5q-27 -10 -72 -25.5t-72 -25.5q-100 -43 -137 -90q-2 -2 -6 -7.5t-6 -9.5
q-43 -61 -58 -108q-18 -57 -22 -136q0 -72 29 -118q20 -25 34 -31q59 -31 129 -20q29 6 55.5 15t49 24.5t38 26.5t35 33.5t25.5 31t23.5 33t19.5 26.5q25 39 68 35q66 0 65 -70q-10 -61 -47 -112q-35 -59 -93 -111.5t-91 -71.5q-135 -67 -332 -57zM741 1579q84 -59 47 -141
q-29 -59 -133 -2q-10 6 -40.5 28.5t-61.5 44t-53 35.5q-14 -8 -50 -30.5t-67 -43t-47 -34.5q-78 -63 -129 -4q-20 35 -12 63.5t30 46.5l21 19q20 12 83.5 62t88.5 67q61 45 123 8l16 -8q18 -12 87.5 -52.5t96.5 -58.5z" />
    <glyph glyph-name="Edieresis" unicode="&#xcb;" horiz-adv-x="962" 
d="M385 -4q-145 0 -246 110q-37 49 -49 93q-41 125 -6 262q27 123 119 211q12 12 36.5 35.5t36.5 35.5q14 14 17.5 19.5t0.5 9.5t-20 14q-14 6 -26 19q-98 78 -109 211q-4 31 12.5 85t51.5 91q66 70 136.5 95.5t166.5 21.5q147 -8 215 -41q76 -41 119 -86q27 -25 27.5 -57.5
t-19.5 -51.5q-31 -16 -61.5 -10t-51.5 20q-55 33 -147 37q-74 0 -131 -45q-53 -41 -41 -117q6 -41 57 -45q102 4 170 21q82 14 137 -21q39 -29 35 -69q-2 -20 -5 -29.5t-17.5 -24t-42.5 -26.5q-27 -10 -72 -25.5t-72 -25.5q-100 -43 -137 -90q-2 -2 -6 -7.5t-6 -9.5
q-43 -61 -58 -108q-18 -57 -22 -136q0 -72 29 -118q20 -25 34 -31q59 -31 129 -20q29 6 55.5 15t49 24.5t38 26.5t35 33.5t25.5 31t23.5 33t19.5 26.5q25 39 68 35q66 0 65 -70q-10 -61 -47 -112q-35 -59 -93 -111.5t-91 -71.5q-135 -67 -332 -57zM346 1626
q25 -4 54.5 -21.5t37.5 -43.5q10 -8 9 -53.5t-29 -73.5q-20 -16 -71.5 -23.5t-80.5 2.5q-55 20 -57 96q-4 70 76 109q26 14 61 8zM764 1561q29 -78 -23 -127q-23 -16 -73 -23.5t-76 2.5q-59 23 -62 96q-4 70 78 109q27 14 62 8q25 -4 54.5 -21t39.5 -44z" />
    <glyph glyph-name="Igrave" unicode="&#xcc;" horiz-adv-x="552" 
d="M154 4q-49 6 -64 37q-23 53 29 80q4 2 13 4t14.5 4t7.5 8q4 6 -2 45q-49 211 -35 553q16 236 22 271q8 37 17 98q6 35 -31 41q-37 0 -47 6q-33 16 -29 55q6 25 41 49q51 35 152 54q37 6 108 6q61 0 109 -15q47 -12 65 -49q18 -31 -4 -57q-27 -23 -53 -29q-31 -2 -35 -39
q-10 -78 -20 -135q-2 -10 -19 -188q-18 -131 -18 -311q0 -236 12 -322q2 -12 5 -18.5t10.5 -10.5t19.5 -4q78 0 82 -57q4 -31 -3 -46.5t-38 -23.5q-25 -8 -64 -8q-118 -4 -245 2zM446 1581q2 -2 6.5 -4t15.5 -9t20.5 -15.5t18.5 -20.5t13 -25.5t2 -31t-12 -33.5
q-23 -35 -60.5 -41t-95.5 29q-33 25 -124 70.5t-105 53.5q-49 27 -75.5 66t1.5 78q57 74 174 8q76 -41 221 -125z" />
    <glyph glyph-name="Iacute" unicode="&#xcd;" horiz-adv-x="552" 
d="M154 4q-49 6 -64 37q-23 53 29 80q4 2 13 4t14.5 4t7.5 8q4 6 -2 45q-49 211 -35 553q16 236 22 271q8 37 17 98q6 35 -31 41q-37 0 -47 6q-33 16 -29 55q6 25 41 49q51 35 152 54q37 6 108 6q61 0 109 -15q47 -12 65 -49q18 -31 -4 -57q-27 -23 -53 -29q-31 -2 -35 -39
q-10 -78 -20 -135q-2 -10 -19 -188q-18 -131 -18 -311q0 -236 12 -322q2 -12 5 -18.5t10.5 -10.5t19.5 -4q78 0 82 -57q4 -31 -3 -46.5t-38 -23.5q-25 -8 -64 -8q-118 -4 -245 2zM111 1571q145 84 221 125q117 66 174 -8q29 -39 2 -78t-76 -66q-14 -8 -105 -54t-124 -71
q-57 -35 -95 -28.5t-61 41.5q-20 43 -7 73.5t42 46.5z" />
    <glyph glyph-name="Icircumflex" unicode="&#xce;" horiz-adv-x="552" 
d="M154 4q-49 6 -64 37q-23 53 29 80q4 2 13 4t14.5 4t7.5 8q4 6 -2 45q-49 211 -35 553q16 236 22 271q8 37 17 98q6 35 -31 41q-37 0 -47 6q-33 16 -29 55q6 25 41 49q51 35 152 54q37 6 108 6q61 0 109 -15q47 -12 65 -49q18 -31 -4 -57q-27 -23 -53 -29q-31 -2 -35 -39
q-10 -78 -20 -135q-2 -10 -19 -188q-18 -131 -18 -311q0 -236 12 -322q4 -18 10 -24.5t25 -8.5q78 0 82 -57q4 -31 -3 -46.5t-38 -23.5q-25 -8 -64 -8q-118 -4 -245 2zM539 1579q84 -59 47 -141q-29 -59 -133 -2q-10 6 -41 28.5t-62 44t-53 35.5q-14 -8 -50 -30.5t-66.5 -43
t-47.5 -34.5q-78 -63 -129 -4q-20 35 -12 63.5t28 46.5l23 19q20 12 83.5 62t88.5 67q61 45 123 8l16 -8q18 -12 88 -52.5t97 -58.5z" />
    <glyph glyph-name="Idieresis" unicode="&#xcf;" horiz-adv-x="552" 
d="M154 4q-49 6 -64 37q-23 53 29 80q4 2 13 4t14.5 4t7.5 8q4 6 -2 45q-49 211 -35 553q16 236 22 271q8 37 17 98q6 35 -31 41q-37 0 -47 6q-33 16 -29 55q6 25 41 49q51 35 152 54q37 6 108 6q61 0 109 -15q47 -12 65 -49q18 -31 -4 -57q-27 -23 -53 -29q-31 -2 -35 -39
q-10 -78 -20 -135q-2 -10 -19 -188q-18 -131 -18 -311q0 -236 12 -322q4 -18 10 -24.5t25 -8.5q78 0 82 -57q4 -31 -3 -46.5t-38 -23.5q-25 -8 -64 -8q-118 -4 -245 2zM160 1618q25 -4 54.5 -21.5t37.5 -44.5q10 -8 9 -53t-30 -74q-20 -16 -71 -23t-80 3q-55 20 -57 96
q-4 70 75 109q27 14 62 8zM578 1552q29 -78 -23 -127q-23 -16 -73 -23t-76 3q-59 23 -62 96q-4 70 78 109q27 14 61 8q25 -4 55 -21.5t40 -44.5z" />
    <glyph glyph-name="Eth" unicode="&#xd0;" horiz-adv-x="1126" 
d="M899 1167q102 -113 134 -209t32 -206q0 -184 -121 -355q-109 -160 -303 -272q-109 -53 -197 -74q-35 -12 -36 -20q0 -6 2 -13q27 -78 0 -102q-70 -61 -121 -8l-47 67q-53 100 -74 162q-51 166 -59 389q-41 4 -119 17q-51 10 -53 12q-31 14 -31 59q-2 63 31 78q18 8 77 27
q14 4 99 16q16 225 65 279q49 51 119 71q68 14 82 -14q12 -16 -4 -92q-18 -109 -25 -207q0 -6 -1 -14t-1 -15q16 -4 27 -4q47 -6 98 -18q29 -8 44 -44t11 -83q-10 -55 -26 -70q-23 -27 -76 -16q-25 6 -92 10q0 -123 10 -246q14 -109 18 -120q8 -16 25 -5q35 27 62.5 49.5
t48 46t31 35t27.5 35t22 27.5q82 104 141 250q47 141 25.5 273t-72.5 184q-23 31 -68 61q-96 63 -233 33q-121 -25 -189 -68q-63 -33 -135 -6q-33 10 -44 36.5t5 55.5q70 90 221 129q164 39 303 33q109 2 206.5 -44.5t160.5 -109.5z" />
    <glyph glyph-name="Ntilde" unicode="&#xd1;" horiz-adv-x="1087" 
d="M768 565q6 6 8 63.5t3 131.5t3 98q6 172 29 307q12 61 21.5 94t39 84.5t76.5 94.5q55 57 176 57q51 0 78 -16q27 -14 37 -46t-8 -53q-14 -14 -27.5 -15t-28 5t-24.5 4q-78 -8 -115 -211q-23 -104 -37 -428q0 -10 -5 -176t-3 -291q2 -39 4 -99t2 -71q4 -55 -32 -73
q-43 -18 -91 -25q-59 -6 -90 25q-27 25 -77 92t-58 82q-119 203 -180 309q-70 127 -86 178q-20 57 -36.5 57t-6.5 -114v-189q2 -29 8 -216t8 -208q2 -14 -18 -28q-14 -6 -32.5 -8.5t-36 1t-32 6.5t-25.5 7t-13 4q-70 20 -88 92q-12 49 -17 113q-25 440 -12 696
q6 106 11 163.5t20.5 113t40.5 69.5q33 18 98 31q27 8 71 4t66 -18q27 -16 38 -32t24 -46q61 -135 81 -176q37 -80 142 -299q70 -133 84 -142q6 -6 10 -2zM645 1368q-80 0 -149 66q-31 29 -52 32q-45 14 -65 -43q-10 -33 -41 -48t-62 -5q-33 12 -47 43t-4 64
q33 90 104.5 131t157.5 18q66 -20 115 -72q35 -25 45 -24q31 2 76 59q18 29 52 36t61 -11q29 -18 36 -52t-12 -61q-88 -131 -211 -133h-4z" />
    <glyph glyph-name="Ograve" unicode="&#xd2;" horiz-adv-x="1224" 
d="M68 705q2 160 57 317q43 123 113 201q74 82 180 114q113 37 227.5 31t194.5 -53q72 -41 147 -117q131 -150 156 -346q18 -78 4 -259t-72 -288q-90 -186 -289 -266q-76 -35 -178 -41q-188 0 -307 104q-139 121 -197 322q-42 158 -36 281zM377 457q14 -84 49 -158
q43 -92 141 -113q100 -18 164 35q70 59 96 119q51 109 52 207q0 188 -41 313q-51 145 -144 209q-39 27 -99 25t-95 -33q-90 -78 -133 -324q-15 -120 10 -280zM762 1626q2 -2 6 -4t15.5 -9t20.5 -15.5t18 -20.5t13.5 -25.5t2.5 -31t-13 -33.5q-23 -35 -60.5 -41t-94.5 29
q-33 25 -124 70.5t-106 53.5q-49 27 -75.5 66t2.5 78q57 74 174 8q76 -41 221 -125z" />
    <glyph glyph-name="Oacute" unicode="&#xd3;" horiz-adv-x="1226" 
d="M68 705q2 160 57 317q43 123 113 201q74 82 180 114q113 37 227.5 31t194.5 -53q72 -41 147 -117q131 -150 156 -346q18 -78 4 -259t-72 -288q-90 -186 -289 -266q-76 -35 -178 -41q-188 0 -307 104q-139 121 -197 322q-42 158 -36 281zM377 457q14 -84 49 -158
q43 -92 141 -113q100 -18 164 35q70 59 96 119q51 109 52 207q0 188 -41 313q-51 145 -144 209q-39 27 -99 25t-95 -33q-90 -78 -133 -324q-15 -120 10 -280zM430 1614q145 84 221 125q117 66 174 -8q29 -39 2.5 -78t-75.5 -66q-14 -8 -105.5 -54t-124.5 -71
q-57 -35 -95 -28.5t-60 41.5q-20 43 -7 73.5t41 48.5z" />
    <glyph glyph-name="Ocircumflex" unicode="&#xd4;" horiz-adv-x="1226" 
d="M68 705q2 160 57 317q43 123 113 201q74 82 180 114q113 37 227.5 31t194.5 -53q72 -41 147 -117q131 -150 156 -346q18 -78 4 -259t-72 -288q-90 -186 -289 -266q-76 -35 -178 -41q-188 0 -307 104q-139 121 -197 322q-42 158 -36 281zM377 457q14 -84 49 -158
q43 -92 141 -113q100 -18 164 35q70 59 96 119q51 109 52 207q0 188 -41 313q-51 145 -144 209q-39 27 -99 25t-95 -33q-90 -78 -133 -324q-15 -120 10 -280zM834 1597q84 -59 47 -141q-29 -59 -133 -2q-10 6 -41 28.5t-62 44t-53 36.5q-14 -8 -50 -31t-67 -43.5t-47 -34.5
q-78 -63 -129 -4q-20 35 -12 63.5t28 47.5l23 18q20 12 83.5 62.5t88.5 66.5q61 45 123 8l16 -8q18 -12 88 -52.5t97 -58.5z" />
    <glyph glyph-name="Otilde" unicode="&#xd5;" horiz-adv-x="1224" 
d="M68 705q2 160 57 317q43 123 113 201q74 82 180 114q113 37 227.5 31t194.5 -53q72 -41 147 -117q131 -150 156 -346q18 -78 4 -259t-72 -288q-90 -186 -289 -266q-76 -35 -178 -41q-188 0 -307 104q-139 121 -197 322q-42 158 -36 281zM377 457q14 -84 49 -158
q43 -92 141 -113q100 -18 164 35q70 59 96 119q51 109 52 207q0 188 -41 313q-51 145 -144 209q-39 27 -99 25t-95 -33q-90 -78 -133 -324q-15 -120 10 -280zM680 1446q-80 0 -150 65q-31 29 -51 33q-45 14 -65 -43q-10 -33 -41 -48t-62 -5q-33 12 -47 43t-4 63
q33 90 104.5 131t157.5 19q66 -20 115 -72q35 -25 45 -24q31 2 76 59q18 29 52 36t60 -11q29 -18 36 -52t-11 -61q-88 -131 -211 -133h-4z" />
    <glyph glyph-name="Odieresis" unicode="&#xd6;" horiz-adv-x="1224" 
d="M68 705q2 160 57 317q43 123 113 201q74 82 180 114q113 37 227.5 31t194.5 -53q72 -41 147 -117q131 -150 156 -346q18 -78 4 -259t-72 -288q-90 -186 -289 -266q-76 -35 -178 -41q-188 0 -307 104q-139 121 -197 322q-42 158 -36 281zM377 457q14 -84 49 -158
q43 -92 141 -113q100 -18 164 35q70 59 96 119q51 109 52 207q0 188 -41 313q-51 145 -144 209q-39 27 -99 25t-95 -33q-90 -78 -133 -324q-15 -120 10 -280zM457 1669q25 -4 54.5 -21.5t37.5 -43.5q10 -8 9 -53.5t-30 -73.5q-20 -16 -71 -23.5t-80 2.5q-55 20 -58 96
q-4 70 76 109q27 14 62 8zM874 1604q29 -78 -22 -127q-23 -16 -73 -23.5t-77 2.5q-59 23 -61 96q-4 70 78 109q27 14 61 8q25 -4 54.5 -21t39.5 -44z" />
    <glyph glyph-name="multiply" unicode="&#xd7;" horiz-adv-x="688" 
d="M590 897q80 -51 -49 -203q-4 -6 -21.5 -22.5t-30.5 -26.5q25 -25 37 -35q133 -125 74 -217q-20 -37 -61 -29.5t-74 28t-68 50.5q-33 33 -55 54q-12 -12 -51 -56q-51 -68 -107.5 -81t-85.5 20q-39 41 -30.5 84t38.5 78l29 32q4 4 25.5 28t38.5 38q-27 27 -56 51
q-68 55 -82 110.5t17 84.5q41 39 85 30.5t79 -38.5l34 -29q25 -29 62 -60q6 6 17.5 18.5t17.5 18.5q125 133 217 72z" />
    <glyph glyph-name="Oslash" unicode="&#xd8;" horiz-adv-x="1241" 
d="M1180 1188q45 -43 24 -94q-16 -41 -96 -136q14 -47 20 -104q18 -78 4 -259t-71 -288q-90 -186 -289 -266q-76 -35 -178 -41q-188 0 -307 104q-18 18 -29 27q-98 -66 -154 -68q-23 -2 -47 22t-30 42q-6 25 10 61q20 45 92 134q-27 61 -39 104q-43 158 -37 281
q2 160 58 317q43 123 112 201q74 82 180 114q113 37 227.5 31t194.5 -53q72 -41 148 -117q18 -18 31 -37q51 33 69 41q60 31 107 -16zM352 739q-6 -59 0 -174l58.5 58.5t48.5 46.5q6 6 55 54t122 116.5t136 128.5q-45 74 -92 102q-39 27 -99.5 25t-95.5 -33
q-90 -78 -133 -324zM864 549q0 78 -6 133q-145 -152 -225 -227q-94 -94 -201 -189q39 -61 121 -78q100 -18 164 35q70 59 96 119q51 109 51 207z" />
    <glyph glyph-name="Ugrave" unicode="&#xd9;" horiz-adv-x="1019" 
d="M926 1212q14 -111 2 -307v-26q-10 -305 -43 -457q-31 -143 -117 -277q-4 -6 -59 -73q-61 -66 -158 -70q-113 0 -184 51q-57 41 -104.5 99.5t-64 91t-24.5 55.5q-47 135 -72 252q-14 68 -22 180.5t9 282.5t75 276q55 96 137 121q49 16 84 -2q49 -23 37 -84q-2 -18 -10 -41
q-2 -4 -13 -47q-43 -322 4 -623v-4q25 -203 101 -295q37 -41 76 -18q47 39 100 182q10 27 31 107l2 12q2 10 4 30.5t6 48.5t7 61.5t6 69.5t6 76t4.5 77.5t1.5 75.5t-3 71v0v55q-4 72 13 99q18 27 58 35t65 -9q39 -31 45 -76zM705 1610q2 -2 6 -4t15 -9.5t20.5 -15.5
t18.5 -20.5t13 -25.5t2 -30.5t-12 -34.5q-23 -35 -60.5 -41t-95.5 29q-33 25 -124 71t-105 54q-49 27 -75.5 66t1.5 77q57 74 174 9q77 -41 222 -125z" />
    <glyph glyph-name="Uacute" unicode="&#xda;" horiz-adv-x="1017" 
d="M926 1212q14 -111 2 -307v-26q-10 -305 -43 -457q-31 -143 -117 -277q-4 -6 -59 -73q-61 -66 -158 -70q-113 0 -184 51q-57 41 -104.5 99.5t-64 91t-24.5 55.5q-47 135 -72 252q-14 68 -22 180.5t9 282.5t75 276q55 96 137 121q49 16 84 -2q49 -23 37 -84q-2 -18 -10 -41
q-2 -4 -13 -47q-43 -322 4 -623v-4q25 -203 101 -295q37 -41 76 -18q47 39 100 182q10 27 31 107l2 12q2 10 4 30.5t6 48.5t7 61.5t6 69.5t6 76t4.5 77.5t1.5 75.5t-3 71v0v55q-4 72 13 99q18 27 58 35t65 -9q39 -31 45 -76zM356 1661q145 84 222 125q117 66 174 -8
q29 -39 2 -78t-76 -66q-14 -8 -105.5 -54t-123.5 -71q-57 -35 -95.5 -28.5t-60.5 41.5q-20 43 -7 73.5t42 46.5z" />
    <glyph glyph-name="Ucircumflex" unicode="&#xdb;" horiz-adv-x="1019" 
d="M926 1212q14 -111 2 -307v-26q-10 -305 -43 -457q-31 -143 -117 -277q-4 -6 -59 -73q-61 -66 -158 -70q-113 0 -184 51q-57 41 -104.5 99.5t-64 91t-24.5 55.5q-47 135 -72 252q-14 68 -22 180.5t9 282.5t75 276q55 96 137 121q49 16 84 -2q49 -23 37 -84q-2 -18 -10 -41
q-2 -4 -13 -47q-43 -322 4 -623v-4q25 -203 101 -295q37 -41 76 -18q47 39 100 182q10 27 31 107l2 12q2 10 4 30.5t6 48.5t7 61.5t6 69.5t6 76t4.5 77.5t1.5 75.5t-3 71v0v55q-4 72 13 99q18 27 58 35t65 -9q39 -31 45 -76zM748 1653q84 -59 47 -142q-29 -59 -133 -2
q-10 6 -41 29t-62 44.5t-53 35.5q-14 -8 -50 -30.5t-67 -43t-47 -35.5q-78 -63 -129 -4q-20 35 -12 63.5t28 47.5l23 18q20 12 83.5 62.5t88.5 66.5q61 45 123 9l16 -9q18 -12 88 -52t97 -58z" />
    <glyph glyph-name="Udieresis" unicode="&#xdc;" horiz-adv-x="1021" 
d="M926 1212q14 -111 2 -307v-26q-10 -305 -43 -457q-31 -143 -117 -277q-4 -6 -59 -73q-61 -66 -158 -70q-113 0 -184 51q-57 41 -104.5 99.5t-64 91t-24.5 55.5q-47 135 -72 252q-14 68 -22 180.5t9 282.5t75 276q55 96 137 121q49 16 84 -2q49 -23 37 -84q-2 -18 -10 -41
q-2 -4 -13 -47q-43 -322 4 -623v-4q25 -203 101 -295q37 -41 76 -18q47 39 100 182q10 27 31 107l2 12q2 10 4 30.5t6 48.5t7 61.5t6 69.5t6 76t4.5 77.5t1.5 75.5t-3 71v0v55q-4 72 13 99q18 27 58 35t65 -9q39 -31 45 -76zM399 1724q25 -4 54.5 -21t38.5 -44q10 -8 9 -53
t-30 -74q-20 -16 -71.5 -23.5t-80.5 2.5q-55 20 -57 97q-4 70 76 108q26 14 61 8zM817 1659q29 -78 -22 -127q-23 -16 -73 -23.5t-77 2.5q-59 23 -61 97q-4 70 78 108q27 14 61 8q25 -4 54.5 -21t39.5 -44z" />
    <glyph glyph-name="Yacute" unicode="&#xdd;" horiz-adv-x="993" 
d="M903 1200q20 -233 -6 -506q-27 -385 -78 -497q0 -2 -6 -15.5t-11 -21.5t-14.5 -23.5t-20.5 -28t-25.5 -25.5t-33 -25.5t-40.5 -20.5q-111 -47 -228 -35q-125 10 -180 86q-111 162 33 313q29 35 78 35q47 2 82 -18q31 -23 24 -58q-12 -31 -35 -61q-29 -35 -26 -61
q8 -45 49 -64q41 -12 83 4.5t64 59.5q49 92 33 247q-12 113 -47 107q-2 0 -6 -2q-29 -12 -90 -35q-92 -33 -170 -27q-160 2 -232 152q-33 80 -32 199q0 98 41 211q49 156 133 231q41 41 118 37q74 0 80 -58q0 -10 -18.5 -60t-18.5 -54q-51 -164 -55 -197q-14 -74 -4 -158
q6 -41 45 -92q27 -35 88 -24q45 12 82 41q82 63 88 172q2 45 -8 217q-4 39 -33 145q-4 16 -13 44t-13 50q-6 35 15 48.5t71 17.5q66 0 98 -6q78 -10 96 -62q29 -88 43 -182zM301 1651q145 84 221 125q117 66 174 -9q29 -39 2.5 -77.5t-75.5 -65.5q-14 -8 -105.5 -54
t-124.5 -71q-57 -35 -95 -28.5t-60 40.5q-20 43 -7 74t41 49z" />
    <glyph glyph-name="Thorn" unicode="&#xde;" horiz-adv-x="833" 
d="M754 786q39 -156 17.5 -239.5t-99.5 -159.5q-68 -68 -187 -88q-86 -14 -168 4q-25 -231 -79 -287q-14 -14 -45 -15t-43 7q-20 12 -35 43q-47 106 -39 541q0 4 1 76.5t4 154.5t7 175.5t14.5 169t24.5 108.5q20 55 80 55q55 0 76 -41q23 -53 32 -225q92 8 152 -4
q201 -52 287 -275zM539 559q35 59 10 164q-23 76 -117 135q-51 31 -108 35q6 -219 2 -326v-88q33 -4 49 -4q113 -8 164 84z" />
    <glyph glyph-name="germandbls" unicode="&#xdf;" horiz-adv-x="1044" 
d="M844 1229q2 -86 -34 -144.5t-101 -115.5q-45 -39 -60 -70q-20 -51 37 -68q131 -33 191 -63q53 -29 74.5 -64.5t33.5 -101.5q2 -66 -27 -147q-45 -86 -73 -119q-90 -104 -236 -156q-20 -6 -82 -20q-66 -12 -88 22.5t-6 77.5q12 29 76 68q143 94 147 225q-4 78 -53 111
q-29 20 -94 53q-119 59 -100 168q10 59 49 108q12 14 31.5 41t25.5 37q25 37 31 66q16 57 -35 82q-43 23 -88 -21q-20 -16 -33 -43q-76 -166 -90 -319q-4 -33 -8 -162t-2 -182q8 -174 49 -347q4 -20 15.5 -60t15.5 -58q6 -27 -11.5 -47.5t-52.5 -30.5q-57 -20 -88 26
q-35 55 -57 119q-117 328 -133 594q-12 248 96 457q37 74 88 125q170 164 438 121q72 -12 112 -56.5t42 -105.5z" />
    <glyph glyph-name="agrave" unicode="&#xe0;" horiz-adv-x="890" 
d="M754 494q10 -154 104 -361q35 -84 29 -110q-6 -20 -29 -37q-39 -23 -94 6q-27 14 -60.5 57t-46.5 70q-6 14 -13 27.5t-10 19.5t-3 10q-25 51 -96 -4q-86 -70 -148 -92q-123 -47 -233 24q-61 41 -82 109q-92 276 100 557q63 92 162 168q90 70 213 53q121 -14 182 -108
q14 -20 18.5 -53t-8.5 -48q-8 -10 -26.5 -21t-47 -10t-49.5 23q-23 29 -88 29q-72 -2 -135 -70q-74 -80 -104 -221q-14 -84 12 -147q25 -43 70 -41t67 30q72 82 105 156q45 94 69 141q43 92 115 6q25 -27 25 -67q-2 -33 2 -96zM616 1251q2 -2 6.5 -4t15.5 -9t20.5 -15.5
t18.5 -20.5t13 -25.5t2 -31t-12 -33.5q-23 -35 -60.5 -41t-95.5 29q-33 25 -124 71t-105 54q-49 27 -75.5 65.5t1.5 77.5q57 74 174 8q76 -41 221 -125z" />
    <glyph glyph-name="aacute" unicode="&#xe1;" horiz-adv-x="888" 
d="M754 494q10 -154 104 -361q35 -84 29 -110q-6 -20 -29 -37q-39 -23 -94 6q-27 14 -60.5 57t-46.5 70q-6 14 -13 27.5t-10 19.5t-3 10q-25 51 -96 -4q-86 -70 -148 -92q-123 -47 -233 24q-61 41 -82 109q-92 276 100 557q63 92 162 168q90 70 213 53q121 -14 182 -108
q14 -20 18.5 -53t-8.5 -48q-8 -10 -26.5 -21t-47 -10t-49.5 23q-23 29 -88 29q-72 -2 -135 -70q-74 -80 -104 -221q-14 -84 12 -147q25 -43 70 -41t67 30q72 82 105 156q45 94 69 141q43 92 115 6q25 -27 25 -67q-2 -33 2 -96zM258 1243q145 84 221 125q117 66 174 -8
q29 -39 2.5 -78t-75.5 -65q-14 -8 -105.5 -54.5t-124.5 -70.5q-57 -35 -95 -29t-60 41q-20 43 -7 73.5t41 47.5z" />
    <glyph glyph-name="acircumflex" unicode="&#xe2;" horiz-adv-x="888" 
d="M754 494q10 -154 104 -361q18 -45 24.5 -61.5t3.5 -43t-28 -42.5q-39 -23 -94 6q-27 14 -60.5 57t-46.5 70q-6 14 -13 27.5t-10 19.5t-3 10q-25 51 -96 -4q-86 -70 -148 -92q-123 -47 -233 24q-61 41 -82 109q-92 276 100 557q63 92 162 168q90 70 213 53
q121 -14 182 -108q14 -20 18.5 -53t-8.5 -48q-8 -10 -26.5 -21t-47 -10t-49.5 23q-23 29 -88 29q-72 -2 -135 -70q-74 -80 -104 -221q-14 -84 12 -147q25 -43 70 -41t67 30q72 82 105 156q45 94 69 141q43 92 115 6q25 -27 25 -67q-2 -33 2 -96zM709 1245q84 -59 47 -141
q-29 -59 -133 -2q-10 6 -41 28.5t-62 44t-53 35.5q-14 -8 -50 -30.5t-67 -43t-47 -34.5q-78 -63 -129 -4q-20 35 -12 63.5t31 46.5l20 19q20 12 83.5 62t88.5 67q61 45 123 8l16 -8q18 -12 88 -52.5t97 -58.5z" />
    <glyph glyph-name="atilde" unicode="&#xe3;" horiz-adv-x="888" 
d="M754 494q10 -154 104 -361q35 -84 29 -110q-6 -20 -29 -37q-39 -23 -94 6q-27 14 -60.5 57t-46.5 70q-6 14 -13 27.5t-10 19.5t-3 10q-25 51 -96 -4q-86 -70 -148 -92q-123 -47 -233 24q-61 41 -82 109q-92 276 100 557q63 92 162 168q90 70 213 53q121 -14 182 -108
q14 -20 18.5 -53t-8.5 -48q-8 -10 -26.5 -21t-47 -10t-49.5 23q-23 29 -88 29q-72 -2 -135 -70q-74 -80 -104 -221q-14 -84 12 -147q25 -43 70 -41t67 30q72 82 105 156q45 94 69 141q43 92 115 6q25 -27 25 -67q-2 -33 2 -96zM530 1094q-80 0 -149 65q-31 29 -51 33
q-45 14 -66 -43q-10 -33 -40.5 -48.5t-61.5 -4.5q-33 12 -47.5 42.5t-3.5 63.5q33 90 104.5 131t157.5 19q63 -20 114 -72q35 -25 45 -25q31 2 76 60q18 29 52 36t61 -12q29 -18 36 -52t-12 -60q-88 -131 -210 -133h-5z" />
    <glyph glyph-name="adieresis" unicode="&#xe4;" horiz-adv-x="888" 
d="M754 494q10 -154 104 -361q18 -45 24.5 -61.5t3.5 -43t-28 -42.5q-39 -23 -94 6q-27 14 -60.5 57t-46.5 70q-6 14 -13 27.5t-10 19.5t-3 10q-25 51 -96 -4q-86 -70 -148 -92q-123 -47 -233 24q-61 41 -82 109q-92 276 100 557q63 92 162 168q90 70 213 53
q121 -14 182 -108q14 -20 18.5 -53t-8.5 -48q-8 -10 -26.5 -21t-47 -10t-49.5 23q-23 29 -88 29q-72 -2 -135 -70q-74 -80 -104 -221q-14 -84 12 -147q25 -43 70 -41t67 30q72 82 105 156q45 94 69 141q43 92 115 6q25 -27 25 -67q-2 -33 2 -96zM340 1311q25 -4 54.5 -21.5
t37.5 -44.5q10 -8 9 -53t-29 -74q-20 -16 -71.5 -23.5t-80.5 3.5q-55 20 -57 96q-4 70 76 109q26 14 61 8zM758 1245q29 -78 -23 -127q-23 -16 -73 -23.5t-76 3.5q-59 23 -62 96q-4 70 78 109q27 14 62 8q25 -4 54.5 -21.5t39.5 -44.5z" />
    <glyph glyph-name="aring" unicode="&#xe5;" horiz-adv-x="890" 
d="M858 133q35 -84 29 -110q-6 -20 -29 -37q-39 -23 -94 6q-27 14 -60.5 57t-46.5 70q-6 14 -13 27.5t-10 19.5t-3 10q-25 51 -96 -4q-86 -70 -148 -92q-123 -47 -233 24q-61 41 -82 109q-92 276 100 557q55 86 158 166q-45 39 -64 92q-16 59 -14 94q2 51 24 107
q20 45 48 65q27 27 73 39q94 29 174 -6q41 -18 64 -37q53 -49 63 -119q8 -27 3 -87t-29 -97q-12 -16 -23 -26q47 -27 80 -78q14 -20 18.5 -53t-8.5 -48q-8 -10 -26.5 -21t-47 -10t-49.5 23q-23 29 -88 29q-72 -2 -135 -70q-74 -80 -104 -221q-14 -84 12 -147q25 -43 70 -41
t67 30q72 82 105 156q45 94 69 141q43 92 115 6q25 -27 25 -67q-2 -33 2 -96q6 -82 41.5 -193t62.5 -168zM424 1137q-6 -16 0 -45q6 -14 14 -29q16 -16 43 -20.5t49 6.5q23 12 29 22q16 20 16 37q0 33 -12 57q-16 31 -43 37q-25 12 -51 -2q-10 -4 -16 -10q-21 -22 -29 -53z
" />
    <glyph glyph-name="ae" unicode="&#xe6;" horiz-adv-x="1470" 
d="M1430 858q10 -86 -5 -156q-8 -47 -22 -85.5t-32.5 -65.5t-32 -41t-34 -32.5t-24.5 -22.5q-100 -72 -225 -78q-80 -4 -135 12q-10 4 -31 8q-16 4 -21 -16q-4 -14 5.5 -55t27.5 -70q43 -63 107 -74q39 -4 72.5 19.5t39.5 58.5q0 18 2 27q6 27 38 39t59 0q35 -20 51 -50
q18 -31 14 -77.5t-29 -73.5q-88 -104 -211 -105q-141 -4 -237 84q-55 35 -92 82q-27 39 -39 52q-33 43 -92 -25q-72 -84 -125 -119q-109 -72 -236 -22q-61 23 -102 88q-145 252 -12 567q41 96 122 197q74 84 199 94q121 12 203 -70q18 -16 27.5 -47t-1.5 -47
q-6 -23 -38.5 -40t-77.5 5q-31 27 -92 10q-72 -16 -119 -94q-57 -98 -58 -237q4 -82 41 -144q33 -37 76 -25.5t62 44.5q53 92 71 174q29 117 39 151q27 98 111 31q18 -20 22 -24q31 94 105 188q80 104 243 154q102 27 191 16q82 -8 136.5 -68.5t58.5 -136.5zM1178 776v39
q-4 51 -58 51q-53 4 -90 -30q-53 -47 -84 -105q-49 -84 -63 -141q-8 -29 -1 -42t36 -24q8 -4 12 -4q61 -14 115.5 8.5t84.5 69.5q44 69 48 178z" />
    <glyph glyph-name="ccedilla" unicode="&#xe7;" horiz-adv-x="798" 
d="M748 330q39 -51 -19 -146q-18 -29 -57 -64.5t-49 -39.5q-68 -43 -156 -55v-52q35 -10 59 -32q41 -41 41 -103q0 -6 -2 -10q0 -6 -5 -21.5t-22.5 -39t-43.5 -35.5q-29 -12 -58 -13q-35 0 -80 19q-45 23 -24 69q10 18 29.5 25.5t37.5 -0.5q33 -14 50 -8q6 4 16 22
q-2 14 -8 21q-14 12 -39 12q-20 -2 -37 15q-16 12 -16 36v93q-117 14 -191 88q-125 123 -125 333q0 197 62 338q92 203 290 250q61 16 112.5 9t70 -15t45.5 -27q63 -49 86 -137q16 -80 -13 -129q-23 -43 -73 -43q-29 -2 -47.5 15.5t-18.5 48.5q0 4 2 14t2 14q4 25 4 37
q-2 39 -39 41q-68 6 -112 -55q-49 -49 -84 -146q-27 -82 -21 -210q0 -47 32 -122t89 -91q117 -14 195 69q33 35 68 41.5t49 -16.5z" />
    <glyph glyph-name="egrave" unicode="&#xe8;" horiz-adv-x="860" 
d="M434 16q-221 -4 -328 199q-72 172 -47 377q25 162 131 299q82 106 244 153q94 25 191 15q82 -8 136 -68.5t58 -136.5q6 -104 -6 -156q-6 -39 -18.5 -73.5t-23.5 -56t-27.5 -43t-26.5 -31t-26.5 -23.5t-20.5 -18q-98 -74 -226 -80q-92 0 -135 12q-10 4 -30 8
q-16 4 -21 -14q-4 -16 5 -57t28 -70q43 -63 106 -72q37 -6 72 17.5t39 58.5q2 4 3 14.5t1 14.5q4 27 37 38t59 -1q31 -14 51 -50q18 -31 14.5 -76.5t-28.5 -74.5q-88 -105 -211 -105zM567 772v41q-6 49 -57 51q-53 0 -92 -33q-49 -43 -84 -102q-49 -96 -62 -141
q-6 -29 0.5 -42.5t32.5 -23.5q8 -4 14 -6q61 -14 115.5 9.5t85.5 70.5q43 72 47 176zM616 1346q2 -2 6.5 -4.5t15.5 -9.5t20.5 -15t18.5 -20.5t13 -26t2 -30.5t-12 -34q-23 -35 -60.5 -41t-95.5 29q-33 25 -124 71t-105 54q-49 27 -75.5 65.5t1.5 77.5q57 74 174 8
q76 -40 221 -124z" />
    <glyph glyph-name="eacute" unicode="&#xe9;" horiz-adv-x="860" 
d="M434 16q-221 -4 -328 199q-72 172 -47 377q25 162 131 299q82 106 244 153q94 25 191 15q82 -8 136 -68.5t58 -136.5q6 -104 -6 -156q-6 -39 -18.5 -73.5t-23.5 -56t-27.5 -43t-26.5 -31t-26.5 -23.5t-20.5 -18q-98 -74 -226 -80q-92 0 -135 12q-10 4 -30 8
q-16 4 -21 -14q-4 -16 5 -57t28 -70q43 -63 106 -72q37 -6 72 17.5t39 58.5q2 4 3 14.5t1 14.5q4 27 37 38t59 -1q31 -14 51 -50q18 -31 14.5 -76.5t-28.5 -74.5q-88 -105 -211 -105zM567 772v41q-6 49 -57 51q-53 0 -92 -33q-49 -43 -84 -102q-49 -96 -62 -141
q-6 -29 0.5 -42.5t32.5 -23.5q8 -4 14 -6q61 -14 115.5 9.5t85.5 70.5q43 72 47 176zM254 1298q145 84 221 125q117 66 174 -8q29 -39 2.5 -78t-76.5 -65q-14 -8 -105 -54.5t-124 -70.5q-57 -35 -95 -29t-61 41q-20 43 -6.5 74t41.5 49z" />
    <glyph glyph-name="ecircumflex" unicode="&#xea;" horiz-adv-x="862" 
d="M434 16q-221 -4 -328 199q-72 172 -47 377q25 162 131 299q82 106 244 153q94 25 191 15q82 -8 136 -68.5t58 -136.5q6 -104 -6 -156q-6 -39 -18.5 -73.5t-23.5 -56t-27.5 -43t-26.5 -31t-26.5 -23.5t-20.5 -18q-98 -74 -226 -80q-92 0 -135 12q-10 4 -30 8
q-16 4 -21 -14q-4 -16 5 -57t28 -70q43 -63 106 -72q37 -6 72 17.5t39 58.5q2 4 3 14.5t1 14.5q4 27 37 38t59 -1q31 -14 51 -50q18 -31 14.5 -76.5t-28.5 -74.5q-88 -105 -211 -105zM567 772v41q-6 49 -57 51q-53 0 -92 -33q-49 -43 -84 -102q-49 -96 -62 -141
q-6 -29 0.5 -42.5t32.5 -23.5q8 -4 14 -6q61 -14 115.5 9.5t85.5 70.5q43 72 47 176zM713 1329q84 -59 47 -141q-29 -59 -133 -2q-10 6 -41 28.5t-61.5 44t-53.5 35.5q-14 -8 -50 -30.5t-66.5 -43t-47.5 -34.5q-78 -63 -129 -4q-20 35 -12 63.5t31 46.5l20 19q20 12 84 62
t88 67q61 45 123 8l16 -8q18 -12 88 -52.5t97 -58.5z" />
    <glyph glyph-name="edieresis" unicode="&#xeb;" horiz-adv-x="860" 
d="M434 16q-221 -4 -328 199q-72 172 -47 377q25 162 131 299q82 106 244 153q94 25 191 15q82 -8 136 -68.5t58 -136.5q6 -104 -6 -156q-6 -39 -18.5 -73.5t-23.5 -56t-27.5 -43t-26.5 -31t-26.5 -23.5t-20.5 -18q-98 -74 -226 -80q-92 0 -135 12q-10 4 -30 8
q-16 4 -21 -14q-4 -16 5 -57t28 -70q43 -63 106 -72q37 -6 72 17.5t39 58.5q2 4 3 14.5t1 14.5q4 27 37 38t59 -1q31 -14 51 -50q18 -31 14.5 -76.5t-28.5 -74.5q-88 -105 -211 -105zM567 772v41q-6 49 -57 51q-53 0 -92 -33q-49 -43 -84 -102q-49 -96 -62 -141
q-6 -29 0.5 -42.5t32.5 -23.5q8 -4 14 -6q61 -14 115.5 9.5t85.5 70.5q43 72 47 176zM311 1364q25 -4 54.5 -21.5t37.5 -44.5q10 -8 9.5 -53t-29.5 -74q-20 -16 -71.5 -23t-80.5 3q-55 20 -57 96q-4 70 76 109q26 14 61 8zM729 1298q29 -78 -22 -127q-23 -16 -73 -23t-77 3
q-59 23 -61 96q-4 70 77 109q27 14 62 8q25 -4 54.5 -21.5t39.5 -44.5z" />
    <glyph glyph-name="igrave" unicode="&#xec;" horiz-adv-x="450" 
d="M362 481q2 -59 -12 -207q-4 -49 -20 -143q-8 -43 -50 -65.5t-96 -14.5q-63 12 -80 39q-31 39 -18 111q10 45 18 395q2 115 23 246q4 53 12 80q16 45 70 45q74 0 88 -45q10 -29 29 -117q8 -25 21 -147t15 -177zM377 1206q2 -2 6 -4t15.5 -9t20.5 -15.5t18 -20.5
t13.5 -25.5t2.5 -31t-13 -33.5q-23 -35 -60.5 -41t-94.5 29q-33 25 -124 70.5t-106 54.5q-49 27 -75.5 65.5t2.5 77.5q57 74 174 8q76 -41 221 -125z" />
    <glyph glyph-name="iacute" unicode="&#xed;" horiz-adv-x="450" 
d="M362 481q2 -59 -12 -207q-4 -49 -20 -143q-8 -43 -50 -65.5t-96 -14.5q-63 12 -80 39q-31 39 -18 111q10 45 18 395q2 115 23 246q4 53 12 80q16 45 70 45q74 0 88 -45q10 -29 29 -117q8 -25 21 -147t15 -177zM33 1219q145 84 221 124q117 66 174 -8q29 -39 2 -77.5
t-76 -65.5q-14 -8 -105 -54t-124 -71q-57 -35 -95 -29t-61 41q-20 43 -7 74t42 47z" />
    <glyph glyph-name="icircumflex" unicode="&#xee;" horiz-adv-x="450" 
d="M362 481q2 -59 -12 -207q-4 -49 -20 -143q-8 -43 -50 -65.5t-96 -14.5q-63 12 -80 39q-31 39 -18 111q10 45 18 395q2 115 23 246q4 53 12 80q16 45 70 45q74 0 88 -45q10 -29 29 -117q8 -25 21 -147t15 -177zM459 1231q84 -59 47 -141q-29 -59 -133 -3q-10 6 -41 29
t-61.5 44.5t-53.5 35.5q-14 -8 -50 -30.5t-66.5 -43t-47.5 -35.5q-78 -63 -129 -4q-20 35 -12 64t31 47l20 18q20 12 84 62.5t88 66.5q61 45 123 9l16 -9q18 -12 88 -52t97 -58z" />
    <glyph glyph-name="idieresis" unicode="&#xef;" horiz-adv-x="450" 
d="M362 481q2 -59 -12 -207q-4 -49 -20 -143q-8 -43 -50 -65.5t-96 -14.5q-63 12 -80 39q-31 39 -18 111q10 45 18 395q2 115 23 246q4 53 12 80q16 45 70 45q74 0 88 -45q10 -29 29 -117q8 -25 21 -147t15 -177zM66 1292q25 -4 54.5 -21.5t37.5 -43.5q10 -8 9 -53.5
t-30 -73.5q-20 -16 -71.5 -23.5t-79.5 2.5q-55 20 -58 97q-4 70 76 108q27 14 62 8zM483 1227q29 -78 -22 -127q-23 -16 -73 -23.5t-77 2.5q-59 23 -61 97q-4 70 78 108q27 14 61 8q25 -4 54.5 -21t39.5 -44z" />
    <glyph glyph-name="eth" unicode="&#xf0;" horiz-adv-x="921" 
d="M854 621q14 -57 3 -188.5t-52 -209.5q-68 -137 -213 -192q-55 -27 -131 -31q-137 0 -228 76q-102 90 -145 235q-29 106 -27 203q2 113 43 231q31 86 82 144q57 63 133 84q55 18 125 22q-37 57 -53 84q-6 -4 -16 -14q-51 -45 -98.5 -48t-65.5 25q-27 39 -14.5 73t41.5 56
l26 23q12 12 31 25q-86 145 -21 202q66 55 175 -84q10 6 34 27q119 88 183 27q61 -57 -64 -156q-16 -14 -57 -41q6 -10 87 -132t116 -175q31 -47 53 -94q37 -66 53 -172zM604 254q31 88 31 145q0 137 -27 222q-29 100 -88 147q-55 41 -104 -8q-23 -23 -33 -41
q-47 -102 -64 -209q-10 -96 3 -174q12 -68 30 -111q29 -68 88 -80q66 -12 103 25q45 43 61 84z" />
    <glyph glyph-name="ntilde" unicode="&#xf1;" horiz-adv-x="983" 
d="M319 602q-6 14 -20 12t-16 -16q-2 -20 -11 -211q-2 -41 -5 -183.5t-3 -152.5q-4 -29 -7 -43t-21.5 -35.5t-51.5 -25.5q-53 -10 -75.5 9t-30.5 62q-6 12 -11.5 146.5t-3.5 230.5q10 291 54 436q29 84 88 123q43 29 96 28t92 -34q14 -12 28.5 -37.5t46.5 -87t71 -125.5
q106 -188 137 -188q10 0 16 19.5t11.5 61.5t7.5 74.5t5 92t5 80.5q8 207 18 272q4 29 21.5 51.5t44.5 24.5q31 6 67 -4q41 -12 46 -76v-85v-164v-122q-4 -178 -25 -370q0 -4 -4 -35t-6 -43.5t-10.5 -40t-16.5 -46t-23.5 -43t-35.5 -44.5q-37 -35 -82 -41t-88 18
q-84 43 -193 256q-55 100 -112 248l-3 4v4zM549 1143q-80 0 -150 65q-31 29 -51 33q-45 14 -65 -43q-10 -33 -41 -48t-62 -5q-33 12 -47 43t-4 63q33 90 104.5 131t157.5 19q63 -20 115 -72q35 -25 45 -24q31 2 76 59q18 29 52 36t60 -11q29 -18 36 -52t-11 -61
q-88 -131 -211 -133h-4z" />
    <glyph glyph-name="ograve" unicode="&#xf2;" horiz-adv-x="905" 
d="M51 553q6 127 45 231q33 92 82 144q53 63 131 84q84 27 168 22.5t144 -39.5q74 -43 108 -77q94 -100 117 -259q14 -57 3 -188t-54 -209q-68 -137 -213 -192q-55 -29 -131 -31q-137 0 -228 76q-104 92 -143 235q-33 103 -29 203zM311 375q12 -70 33 -111q25 -68 88.5 -80
t102.5 25q45 45 59 84q31 78 31 145q0 137 -25 221q-31 100 -90 148q-23 18 -52.5 16t-52 -24.5t-30.5 -40.5q-49 -100 -64 -209q-12 -78 0 -174zM610 1294q2 -2 6.5 -4t15.5 -9t20.5 -15.5t18.5 -20.5t13 -25.5t2 -31t-12 -33.5q-23 -35 -61 -41t-95 29q-33 25 -124 71
t-105 54q-49 27 -76 65.5t2 77.5q57 74 174 8q76 -41 221 -125z" />
    <glyph glyph-name="oacute" unicode="&#xf3;" horiz-adv-x="905" 
d="M51 553q6 127 45 231q33 92 82 144q53 63 131 84q84 27 168 22.5t144 -39.5q74 -43 108 -77q94 -100 117 -259q14 -57 3 -188t-54 -209q-68 -137 -213 -192q-55 -29 -131 -31q-137 0 -228 76q-104 92 -143 235q-33 103 -29 203zM311 375q12 -70 33 -111q25 -68 88.5 -80
t102.5 25q45 45 59 84q31 78 31 145q0 137 -25 221q-31 100 -90 148q-23 18 -52.5 16t-52 -24.5t-30.5 -40.5q-49 -100 -64 -209q-12 -78 0 -174zM262 1286q145 84 221 125q117 66 174 -8q29 -39 2.5 -78t-75.5 -65q-14 -8 -105.5 -54.5t-124.5 -70.5q-57 -35 -95 -29
t-60 41q-20 43 -7 73.5t41 49.5z" />
    <glyph glyph-name="ocircumflex" unicode="&#xf4;" horiz-adv-x="905" 
d="M51 553q6 127 45 231q33 92 82 144q53 63 131 84q84 27 168 22.5t144 -39.5q74 -43 108 -77q94 -100 117 -259q14 -57 3 -188t-54 -209q-68 -137 -213 -192q-55 -29 -131 -31q-137 0 -228 76q-104 92 -143 235q-33 103 -29 203zM311 375q12 -70 33 -111q25 -68 88.5 -80
t102.5 25q45 45 59 84q31 78 31 145q0 137 -25 221q-31 100 -90 148q-23 18 -52.5 16t-52 -24.5t-30.5 -40.5q-49 -100 -64 -209q-12 -78 0 -174zM684 1292q84 -59 47 -141q-29 -59 -133 -2q-10 6 -41 28.5t-61.5 44t-53.5 35.5q-14 -8 -50 -30.5t-66.5 -43t-46.5 -34.5
q-78 -63 -129 -4q-20 35 -12.5 63.5t30.5 46.5l20 19q20 12 84 62t88 67q61 45 123 8l17 -8q18 -12 87.5 -52.5t96.5 -58.5z" />
    <glyph glyph-name="otilde" unicode="&#xf5;" horiz-adv-x="903" 
d="M51 553q6 127 45 231q33 92 82 144q53 63 131 84q84 27 168 22.5t144 -39.5q74 -43 108 -77q94 -100 117 -259q14 -57 3 -188t-54 -209q-68 -137 -213 -192q-55 -29 -131 -31q-137 0 -228 76q-104 92 -143 235q-33 103 -29 203zM311 375q12 -70 33 -111q25 -68 88.5 -80
t102.5 25q45 45 59 84q31 78 31 145q0 137 -25 221q-31 100 -90 148q-23 18 -52.5 16t-52 -24.5t-30.5 -40.5q-49 -100 -64 -209q-12 -78 0 -174zM543 1122q-80 0 -150 66q-31 29 -51 33q-45 14 -66 -43q-10 -33 -40.5 -48.5t-61.5 -5.5q-33 12 -47 43t-4 64
q33 90 104.5 131t157.5 18q63 -20 115 -71q35 -25 45 -25q31 2 76 59q18 29 52 36t60 -11q29 -18 36 -52t-11 -61q-88 -131 -211 -133h-4z" />
    <glyph glyph-name="odieresis" unicode="&#xf6;" horiz-adv-x="905" 
d="M51 553q6 127 45 231q33 92 82 144q53 63 131 84q84 27 168 22.5t144 -39.5q74 -43 108 -77q94 -100 117 -259q14 -57 3 -188t-54 -209q-68 -137 -213 -192q-55 -29 -131 -31q-137 0 -228 76q-104 92 -143 235q-33 103 -29 203zM311 375q12 -70 33 -111q25 -68 88.5 -80
t102.5 25q45 45 59 84q31 78 31 145q0 137 -25 221q-31 100 -90 148q-23 18 -52.5 16t-52 -24.5t-30.5 -40.5q-49 -100 -64 -209q-12 -78 0 -174zM305 1354q25 -4 54.5 -21.5t37.5 -44.5q10 -8 9.5 -53t-29.5 -74q-20 -16 -71.5 -23.5t-80.5 3.5q-55 20 -57 96q-4 70 76 109
q26 14 61 8zM723 1288q29 -78 -23 -127q-23 -16 -72.5 -23.5t-76.5 3.5q-59 23 -62 96q-4 70 78 109q27 14 62 8q25 -4 54.5 -21.5t39.5 -44.5z" />
    <glyph glyph-name="divide" unicode="&#xf7;" horiz-adv-x="757" 
d="M684 700q10 -66 -38 -95.5t-114 -33.5q-16 0 -149 1t-158 -7q-74 -12 -113.5 22t-43.5 89q-4 61 31.5 95t72.5 36l39 2q86 2 297 12q160 4 176 -121zM362 903q-72 6 -108 84q-12 29 -6 60q18 80 92 104q37 12 74 4q47 -12 65 -61q10 -18 21 -70q4 -45 -32 -82t-106 -39z
M369 229q-72 6 -109 84q-12 29 -6 60q18 80 92 104q37 12 74 4q47 -12 65 -61q10 -18 21 -70q4 -45 -31.5 -82t-105.5 -39z" />
    <glyph glyph-name="oslash" unicode="&#xf8;" horiz-adv-x="968" 
d="M932 922q35 -35 22 -76q-14 -35 -98 -137q0 -8 3 -25.5t5 -26.5q14 -57 3 -188t-52 -209q-68 -137 -215 -192q-51 -27 -129 -31q-137 0 -227 76l-2 2q-78 -53 -129 -56q-16 0 -36 18.5t-26 35t6 47.5q12 35 72 106q-18 41 -31 82q-29 106 -26 203q2 113 43 231
q31 86 82 144q57 63 133 84q180 59 309 -17q68 -37 111 -78q10 -10 22 -26q47 35 76 47q47 23 84 -14zM330 547q-4 -37 -4 -68q39 39 53 51q76 76 209 201q-25 47 -58 74q-55 41 -104 -8q-27 -27 -33 -41q-45 -92 -63 -209zM645 436q0 27 -2 45q-66 -70 -125 -125
q-76 -76 -137 -131q25 -33 70 -43q59 -14 102 25q47 43 59 84q33 84 33 145z" />
    <glyph glyph-name="ugrave" unicode="&#xf9;" horiz-adv-x="880" 
d="M354 59q-98 0 -162.5 49.5t-95 113t-39.5 212.5q-4 106 27 234q41 176 111 254q41 49 106 47q68 0 74 -62q0 -4 -27 -125q-39 -178 -43 -217q-6 -96 4 -172q8 -68 45 -98q33 -33 78 -23q35 4 76 45q68 74 72 193q0 76 -19 238q-4 47 -35 155q-4 18 -14 48t-14 55
q-6 37 12 51t61 20q39 6 91 -2q72 -6 88 -63q33 -94 47 -197q8 -66 16 -203q8 -213 -51 -342q-99 -221 -408 -211zM561 1346q2 -2 6 -4.5t15.5 -9.5t20.5 -15t18.5 -20.5t13.5 -26t2 -30.5t-12 -34q-23 -35 -61 -41t-95 29q-33 25 -124 71t-105 54q-49 27 -76 65.5t2 77.5
q57 74 174 8q76 -40 221 -124z" />
    <glyph glyph-name="uacute" unicode="&#xfa;" horiz-adv-x="880" 
d="M354 59q-98 0 -162.5 49.5t-95 113t-39.5 212.5q-4 106 27 234q41 176 111 254q41 49 106 47q68 0 74 -62q0 -4 -27 -125q-39 -178 -43 -217q-6 -96 4 -172q8 -68 45 -98q33 -33 78 -23q35 4 76 45q68 74 72 193q0 76 -19 238q-4 47 -35 155q-4 18 -14 48t-14 55
q-6 37 12 51t61 20q39 6 91 -2q72 -6 88 -63q33 -94 47 -197q8 -66 16 -203q8 -213 -51 -342q-99 -221 -408 -211zM250 1303q145 84 221 124q117 66 174 -8q29 -39 2.5 -77.5t-76.5 -65.5q-14 -8 -105 -54t-124 -71q-57 -35 -95 -29t-61 41q-20 43 -6.5 74t41.5 49z" />
    <glyph glyph-name="ucircumflex" unicode="&#xfb;" horiz-adv-x="880" 
d="M354 59q-98 0 -162.5 49.5t-95 113t-39.5 212.5q-4 106 27 234q41 176 111 254q41 49 106 47q68 0 74 -62q0 -4 -27 -125q-39 -178 -43 -217q-6 -96 4 -172q8 -68 45 -98q33 -33 78 -23q35 4 76 45q68 74 72 193q0 76 -19 238q-4 47 -35 155q-4 18 -14 48t-14 55
q-6 37 12 51t61 20q39 6 91 -2q72 -6 88 -63q33 -94 47 -197q8 -66 16 -203q8 -213 -51 -342q-99 -221 -408 -211zM666 1329q84 -59 47 -141q-29 -59 -133 -2q-10 6 -41 28.5t-62 44t-53 35.5q-14 -8 -50 -30.5t-67 -43t-47 -34.5q-78 -63 -129 -4q-20 35 -12 63.5t28 46.5
l23 19q20 12 83.5 62t88.5 67q61 45 123 8l16 -8q18 -12 88 -52.5t97 -58.5z" />
    <glyph glyph-name="udieresis" unicode="&#xfc;" horiz-adv-x="880" 
d="M354 59q-98 0 -162.5 49.5t-95 113t-39.5 212.5q-4 106 27 234q41 176 111 254q41 49 106 47q68 0 74 -62q0 -4 -27 -125q-39 -178 -43 -217q-6 -96 4 -172q8 -68 45 -98q33 -33 78 -23q35 4 76 45q68 74 72 193q0 76 -19 238q-4 47 -35 155q-4 18 -14 48t-14 55
q-6 37 12 51t61 20q39 6 91 -2q72 -6 88 -63q33 -94 47 -197q8 -66 16 -203q8 -213 -51 -342q-99 -221 -408 -211zM287 1382q25 -4 54.5 -21.5t37.5 -43.5q10 -8 9 -53t-30 -74q-20 -16 -71 -23.5t-80 2.5q-55 20 -57 97q-4 70 75 108q27 14 62 8zM705 1317q29 -78 -23 -127
q-23 -16 -73 -23.5t-77 2.5q-59 23 -61 97q-4 70 78 108q27 14 61 8q25 -4 55 -21t40 -44z" />
    <glyph glyph-name="yacute" unicode="&#xfd;" horiz-adv-x="890" 
d="M815 809q18 -248 -4 -551q-27 -424 -72 -543q-49 -133 -135 -176q-104 -51 -207 -39q-111 10 -161 97q-102 176 28 342q27 35 72 38q43 0 74 -24q29 -23 20 -59q-6 -29 -31 -68q-27 -43 -24 -66q8 -51 47 -71q35 -14 72.5 4t58.5 65q45 102 31 275q-12 121 -43 112
q-4 0 -6 -2q-12 -8 -80 -39q-86 -37 -156 -30q-152 4 -207 168q-31 86 -31 215q0 109 35 231q47 172 121 252q43 47 109 43q70 -6 71 -65q0 -10 -16 -66.5t-16 -58.5q-47 -180 -52 -215q-10 -94 -2 -170q2 -45 39 -101q27 -39 80 -26q41 8 76 43q70 70 80 188q4 72 -11 238
q-2 49 -26 157q-2 8 -11.5 43t-13.5 60q-6 39 12.5 52t63.5 17q41 2 90 -4q72 -12 86 -67q29 -103 39 -199zM250 1290q145 84 221 125q117 66 174 -8q29 -39 2.5 -78t-76.5 -65q-14 -8 -105 -54.5t-124 -70.5q-57 -35 -95 -29t-61 41q-20 43 -6.5 73.5t41.5 49.5z" />
    <glyph glyph-name="thorn" unicode="&#xfe;" horiz-adv-x="837" 
d="M754 786q39 -156 17.5 -239.5t-99.5 -159.5q-68 -68 -187 -88q-86 -14 -168 4q-25 -231 -79 -287q-14 -14 -45 -15t-43 7q-20 12 -35 43q-47 106 -39 541q0 4 1 76.5t4 154.5t7 175.5t14.5 169t24.5 108.5q20 55 80 55q55 0 76 -41q23 -53 32 -225q92 8 152 -4
q201 -52 287 -275zM539 559q35 59 10 164q-23 76 -117 135q-51 31 -108 35q6 -219 2 -326v-88q33 -4 49 -4q113 -8 164 84z" />
    <glyph glyph-name="ydieresis" unicode="&#xff;" horiz-adv-x="890" 
d="M815 809q18 -248 -4 -551q-27 -424 -72 -543q-49 -133 -135 -176q-104 -51 -207 -39q-111 10 -161 97q-102 176 28 342q27 35 72 38q43 0 74 -24q29 -23 20 -59q-6 -29 -31 -68q-27 -43 -24 -66q8 -51 47 -71q35 -14 72.5 4t58.5 65q45 102 31 275q-12 121 -43 112
q-4 0 -6 -2q-12 -8 -80 -39q-86 -37 -156 -30q-152 4 -207 168q-31 86 -31 215q0 109 35 231q47 172 121 252q43 47 109 43q70 -6 71 -65q0 -10 -16 -66.5t-16 -58.5q-47 -180 -52 -215q-10 -94 -2 -170q2 -45 39 -101q27 -39 80 -26q41 8 76 43q70 70 80 188q4 72 -11 238
q-2 49 -26 157q-2 8 -11.5 43t-13.5 60q-6 39 12.5 52t63.5 17q41 2 90 -4q72 -12 86 -67q29 -103 39 -199zM287 1391q25 -4 54.5 -21.5t37.5 -44.5q10 -8 9 -53t-30 -74q-20 -16 -71 -23.5t-80 3.5q-55 20 -57 96q-4 70 75 108q27 15 62 9zM705 1325q29 -78 -23 -127
q-23 -16 -73 -23.5t-77 3.5q-59 23 -61 96q-4 70 78 108q27 14 61 9q25 -4 55 -21.5t40 -44.5z" />
    <glyph glyph-name="dotlessi" unicode="&#x131;" horiz-adv-x="450" 
d="M362 481q2 -59 -12 -207q-4 -49 -20 -143q-8 -43 -50 -65.5t-96 -14.5q-63 12 -80 39q-31 39 -18 111q10 45 18 395q2 115 23 246q4 53 12 80q16 45 70 45q74 0 88 -45q10 -29 29 -117q8 -25 21 -147t15 -177z" />
    <glyph glyph-name="OE" unicode="&#x152;" horiz-adv-x="1800" 
d="M1708 428q66 0 66 -68q-8 -57 -48 -114q-35 -59 -93 -112.5t-89 -67.5q-135 -70 -334 -62q-147 6 -243 113q-2 4 -7.5 9t-7.5 9q-63 -57 -161 -100q-80 -37 -177 -39q-190 0 -311 104q-141 123 -194 322q-43 145 -37 280q6 158 59 318q39 119 111 199q74 82 180 114
q113 37 226.5 31t193.5 -53q70 -41 149 -117q4 -4 9.5 -10t7.5 -8q12 16 22 26q66 70 135.5 95.5t167.5 23.5q141 -8 213 -41q70 -37 121 -88q25 -25 26 -56.5t-20 -50.5q-35 -31 -114 9q-47 29 -146 36q-76 4 -133 -45q-49 -39 -39 -114q6 -43 57 -47q90 4 168 20
q90 16 140 -20q39 -25 34 -70q-8 -55 -65 -80q-10 -4 -62.5 -21.5t-82.5 -31.5q-98 -41 -136 -88l-6 -6t-6 -9q-41 -63 -57 -110q-20 -53 -21 -135q-4 -68 29 -117q10 -20 33 -33q51 -29 129 -20q23 4 44 11t39.5 17.5t33 19.5t31 24.5t25.5 23.5t22.5 25.5t18.5 23.5
t17 25.5t14 21.5q25 35 68 33zM834 336q49 125 49 207q-6 211 -43 313q-45 139 -140 209q-39 27 -101 24.5t-95 -32.5q-92 -78 -131 -324q-16 -111 8 -280q16 -82 51 -158q23 -49 53.5 -74.5t85.5 -38.5q100 -18 164 37q72 58 99 117z" />
    <glyph glyph-name="oe" unicode="&#x153;" horiz-adv-x="1458" 
d="M1425 856q6 -104 -6 -156q-6 -39 -18 -73.5t-23.5 -56t-28 -43t-26.5 -31t-26.5 -23.5t-20.5 -18q-102 -74 -225 -80q-80 -4 -136 12q-10 4 -30.5 8t-20.5 -14q-4 -16 5.5 -57t27.5 -70q43 -63 107 -72q37 -6 71.5 17.5t38.5 58.5q2 4 3 14.5t1 14.5q4 27 37 38t59 -1
q31 -14 52 -50q18 -31 13 -76.5t-28 -74.5q-88 -104 -213 -105q-197 -4 -305 164q-63 -63 -145 -96q-55 -29 -129 -31q-139 0 -230 76q-104 92 -143 236q-33 117 -27 202q2 113 43 232q31 86 82 143q53 63 131 84q84 27 168 23t144 -39q74 -43 110 -78q37 -47 45 -60
q8 12 15 19q82 106 241 154q98 25 193 14q82 -8 136 -68.5t58 -136.5zM600 309q33 84 31 146q0 137 -25 221q-29 96 -88 147q-25 18 -54.5 16.5t-49.5 -24.5q-27 -27 -33 -41q-49 -100 -64 -209q-10 -96 0 -174q10 -57 33 -110q29 -68 88 -80q63 -12 103 24q45 45 59 84z
M1174 774v41q-6 49 -58 51q-53 0 -92 -32q-49 -43 -84 -103q-49 -96 -61 -143q-8 -29 -1 -41t33 -23q8 -4 15 -6q61 -14 115.5 9.5t84.5 70.5q44 72 48 176z" />
    <glyph glyph-name="Scaron" unicode="&#x160;" horiz-adv-x="962" 
d="M203 340q25 33 86 49q63 16 104 -18.5t37 -81.5q-4 -29 -18.5 -49.5t-16.5 -30.5q-16 -43 43 -51q49 -6 105 24q33 18 41 50t-11 61q-10 18 -22 35q-90 98 -141 145q-209 195 -213 197q-59 68 -113 149q-57 94 -57 215q0 176 86 269q106 115 282 135q123 8 238 -13
q102 -25 168 -71q33 -25 64.5 -72t43.5 -94q20 -78 21 -141q0 -106 -78 -185q-66 -49 -135.5 -46t-112.5 46q-31 37 -31 90.5t33 94.5q31 45 10.5 105t-67.5 93q-74 49 -174 15q-70 -29 -84.5 -115t20.5 -150q37 -66 178 -207q213 -219 285 -325q35 -53 43 -96
q12 -63 -6 -131q-29 -102 -109 -162q-172 -115 -360 -58q-72 16 -120 67.5t-54 115.5q0 96 35 141zM717 1653q-27 -18 -96.5 -58.5t-88.5 -52.5q-8 -2 -16 -8q-61 -37 -123 8q-25 16 -88 66.5t-84 62.5q-4 2 -9 7t-17.5 19.5t-19.5 29t-7 35t14 38.5q51 59 129 -4
q16 -14 47 -34.5t67 -43t50 -30.5q23 14 53.5 35.5t61.5 44t41 28.5q104 57 133 -2q37 -82 -47 -141z" />
    <glyph glyph-name="scaron" unicode="&#x161;" horiz-adv-x="878" 
d="M444 1106q131 -6 207 -40t129 -101q70 -111 17 -228q-37 -76 -142 -92q-39 -4 -70.5 10.5t-38.5 34t1 35.5q43 51 28 88q-8 37 -58 57.5t-126 12.5q-90 -10 -90 -84q2 -88 135 -172q178 -125 256 -185q123 -94 94 -256q-51 -215 -368 -211q-172 10 -246 80
q-76 78 -55 189q33 137 196 114q63 -16 72.5 -54t-10.5 -85q-4 -25 16.5 -43t61.5 -20q84 -6 100 51q20 63 -55 121q-37 27 -66 44t-65.5 39.5t-69.5 43.5q-31 25 -67.5 50t-51.5 36q-111 90 -125 215q-16 147 80 248q116 114 311 102zM670 1337q-27 -18 -96.5 -58
t-88.5 -52q-8 -2 -16 -8q-61 -37 -123 8q-25 16 -88 66t-84 63q-4 2 -9 7t-17.5 19.5t-19.5 28.5t-7 34.5t14 39.5q51 59 129 -4q16 -14 47 -35t67 -43.5t50 -30.5q23 14 53.5 36t61 44.5t41.5 28.5q104 57 133 -2q37 -83 -47 -142z" />
    <glyph glyph-name="Ydieresis" unicode="&#x178;" horiz-adv-x="993" 
d="M903 1200q20 -233 -6 -506q-27 -385 -78 -497q0 -2 -6 -15.5t-11 -21.5t-14.5 -23.5t-20.5 -28t-25.5 -25.5t-33 -25.5t-40.5 -20.5q-111 -47 -228 -35q-125 10 -180 86q-111 162 33 313q29 35 78 35q47 2 82 -18q31 -23 24 -58q-12 -31 -35 -61q-29 -35 -26 -61
q8 -45 49 -64q41 -12 83 4.5t64 59.5q49 92 33 247q-12 113 -47 107q-2 0 -6 -2q-29 -12 -90 -35q-92 -33 -170 -27q-160 2 -232 152q-33 80 -32 199q0 98 41 211q49 156 133 231q41 41 118 37q74 0 80 -58q0 -10 -18.5 -60t-18.5 -54q-51 -164 -55 -197q-14 -74 -4 -158
q6 -41 45 -92q27 -35 88 -24q45 12 82 41q82 63 88 172q2 45 -8 217q-4 39 -33 145q-4 16 -13 44t-13 50q-6 35 15 48.5t71 17.5q66 0 98 -6q78 -10 96 -62q29 -88 43 -182zM330 1755q25 -4 54.5 -21.5t37.5 -43.5q10 -8 9 -53.5t-30 -73.5q-20 -16 -71 -23.5t-80 2.5
q-55 20 -57 96q-4 70 75 109q27 14 62 8zM748 1690q29 -78 -23 -127q-23 -16 -73 -23.5t-77 2.5q-59 23 -61 96q-4 70 78 109q27 14 61 8q25 -4 55 -21t40 -44z" />
    <glyph glyph-name="Zcaron" unicode="&#x17d;" horiz-adv-x="890" 
d="M719 334q63 10 96 -28t33 -111q0 -55 -13.5 -91t-45 -53.5t-50 -22.5t-63.5 -12q-186 -18 -340 -12q-39 2 -65.5 5t-63.5 13.5t-64.5 32t-44.5 54.5q-61 94 -12 237q31 109 229 367q113 143 211 237q33 33 42.5 66t-3.5 45q-35 47 -198 12q-27 -4 -56.5 -14t-61.5 -22.5
t-46 -16.5q-119 -35 -137 117q-12 150 133 188q80 16 227 18q195 0 270 -18q98 -29 121 -104q25 -63 13.5 -153.5t-58.5 -164.5q-29 -47 -61.5 -85t-85 -92t-93.5 -101q-68 -74 -129 -168.5t-59 -124.5q0 -25 11.5 -38t42 -17.5t52 -4.5t72.5 4q33 2 99.5 28t97.5 30z
M702 1559q-27 -18 -96 -58.5t-88 -52.5q-8 -2 -16 -8q-61 -37 -123 8q-25 16 -88.5 66.5t-83.5 62.5q-4 2 -9 7t-17.5 19.5t-19.5 29t-7 35t14 38.5q51 59 129 -4q16 -14 47 -34.5t66.5 -43t50.5 -31.5q23 14 53.5 36t61 44.5t40.5 28.5q104 57 134 -2q36 -82 -48 -141z" />
    <glyph glyph-name="zcaron" unicode="&#x17e;" horiz-adv-x="864" 
d="M678 258q119 14 123 -111q0 -37 -11.5 -62.5t-22.5 -38.5t-39 -22.5t-42 -12.5t-47 -7q-201 -14 -315 -10q-178 10 -222 84q-29 37 -34 106.5t16 122.5q8 25 25.5 56.5t48 69.5t48 60.5t56.5 66.5t43 48q27 31 166 152q37 29 6 63q-27 27 -125 23q-27 -2 -53.5 -9.5
t-58 -18.5t-41.5 -15q-113 -29 -127.5 94t123.5 147q66 12 213 17q180 0 249 -17q90 -16 115 -81q18 -53 9 -133t-46 -136q-29 -41 -111.5 -113.5t-119.5 -109.5q-166 -158 -166 -203q0 -37 40 -49t120 -8q31 2 92 22.5t88 24.5zM678 1300q-27 -18 -96.5 -58t-87.5 -52
q-8 -2 -17 -8q-61 -37 -123 8q-25 16 -88 66.5t-84 62.5q-4 2 -9 7t-17.5 19.5t-19.5 29t-7 35t14 38.5q51 59 129 -4q16 -14 47 -34.5t67 -43.5t50 -31q23 14 53.5 36t61.5 44.5t41 28.5q104 57 133 -2q37 -83 -47 -142z" />
    <glyph glyph-name="florin" unicode="&#x192;" horiz-adv-x="727" 
d="M268 399q2 47 -6 136.5t-8 123.5q0 31 -7 38.5t-42 11.5q-86 12 -115 47q-35 39 -24.5 78.5t59.5 58.5q29 8 45 10q41 10 48 18.5t9 49.5q8 121 27 198q41 152 186 193q131 39 222 -23q43 -27 47 -63q10 -53 -25 -78q-39 -33 -80 -12q-39 16 -75.5 -1.5t-49.5 -58.5
q-31 -86 -6 -196q4 -29 49 -33q98 -4 127 -41q29 -35 8 -84q-8 -27 -27.5 -43t-37 -21.5t-55.5 -13.5q-37 -8 -43.5 -15t-1.5 -48q16 -147 18 -223q6 -139 -43 -254q-31 -72 -100.5 -121t-133.5 -45q-115 6 -167 108q-25 61 -29 72q-25 66 22 94q70 49 117 -43
q16 -33 47 -26q23 4 35 43q10 37 10 129v34z" />
    <glyph glyph-name="circumflex" unicode="&#x2c6;" horiz-adv-x="753" 
d="M623 1581q84 -59 47 -141q-29 -59 -133 -2q-10 6 -41 28.5t-62 44t-53 35.5q-14 -8 -50 -30.5t-67 -43t-47 -34.5q-78 -63 -129 -4q-20 35 -12 63.5t30 46.5l21 19q20 12 83.5 62t88.5 67q61 45 123 8l16 -8q18 -12 88 -52.5t97 -58.5z" />
    <glyph glyph-name="caron" unicode="&#x2c7;" horiz-adv-x="765" 
d="M623 1528q-27 -18 -96.5 -58t-88.5 -53q-8 -2 -16 -8q-61 -37 -123 8q-25 16 -88.5 66.5t-83.5 62.5q-4 2 -9 7.5t-17.5 19.5t-19.5 28.5t-7 35t14 38.5q51 59 129 -4q16 -14 47 -34.5t67 -43t50 -30.5q23 14 53.5 35.5t61 44t41.5 28.5q104 57 133 -2q37 -82 -47 -141z
" />
    <glyph glyph-name="ring" unicode="&#x2da;" horiz-adv-x="503" 
d="M49 1530q2 49 23 96q10 29 41 60q33 27 67 32q88 29 156 -4q43 -23 57 -33q49 -47 58 -108q20 -94 -25 -166q-35 -55 -109 -78q-23 -10 -65 -14q-68 0 -117 35q-49 33 -74 94q-14 61 -12 86zM205 1501q4 -12 12 -24q12 -16 39 -19q12 -2 43 4q18 12 27 21q14 16 14 33
q0 31 -10 53q-12 23 -39 35q-25 8 -47 -2q-2 -2 -7.5 -6.5t-7.5 -6.5q-18 -23 -26 -47q-4 -16 2 -41z" />
    <glyph glyph-name="tilde" unicode="&#x2dc;" horiz-adv-x="782" 
d="M487 1458q-80 0 -149 66q-31 29 -51 32q-45 14 -66 -43q-10 -33 -40.5 -48t-61.5 -5q-33 12 -47.5 43t-3.5 64q33 90 104.5 131t157.5 18q63 -20 114 -71q35 -25 45 -25q31 2 76 59q18 29 52 36t61 -11q29 -18 36 -52t-12 -61q-88 -131 -210 -133h-5z" />
    <glyph glyph-name="endash" unicode="&#x2013;" horiz-adv-x="757" 
d="M684 700q10 -66 -38 -95.5t-114 -33.5q-16 0 -149 1t-158 -7q-74 -12 -113.5 22t-43.5 89q-4 61 31.5 95t72.5 36l39 2q86 2 297 12q160 4 176 -121z" />
    <glyph glyph-name="quoteleft" unicode="&#x2018;" horiz-adv-x="360" 
d="M59 1100q-18 53 0 127q12 47 53.5 86t82.5 45q27 2 37 -4t8 -14.5t-11 -16.5q-25 -29 -32 -61q33 4 51 -7q63 -25 65 -106q2 -31 -19.5 -63.5t-64.5 -53.5q-33 -16 -65 -10q-27 4 -59.5 23.5t-43.5 48.5v2q-2 2 -2 4z" />
    <glyph glyph-name="quoteright" unicode="&#x2019;" horiz-adv-x="362" 
d="M301 1282q18 -53 0 -127q-12 -47 -53 -86t-82 -45q-27 -2 -37 4t-8 14.5t10 16.5q25 29 33 61q-33 -4 -51 6q-63 25 -66 107q-2 31 19.5 63.5t64.5 53.5q33 16 66 10q27 -4 59.5 -23.5t42.5 -48.5v-2z" />
    <glyph glyph-name="quotesinglbase" unicode="&#x201a;" horiz-adv-x="354" 
d="M299 164q18 -53 0 -127q-12 -47 -53 -86t-82 -45q-27 -2 -37 4t-8 14t10 17q25 29 33 61q-33 -4 -51 6q-63 25 -66 107q-2 31 19.5 63.5t64.5 52.5q33 16 66 11q27 -4 59.5 -23.5t42.5 -48.5q0 -2 2 -6z" />
    <glyph glyph-name="quotedblleft" unicode="&#x201c;" horiz-adv-x="657" 
d="M354 1098q-18 53 0 127q12 47 53.5 86t81.5 45q27 2 37.5 -4t8 -14.5t-10.5 -16.5q-25 -29 -32 -61q33 4 51 -7q63 -25 65 -106q2 -31 -19.5 -63.5t-64.5 -53.5q-33 -16 -65 -10q-27 4 -59.5 23.5t-43.5 48.5v2zM59 1100q-18 53 0 127q12 47 53.5 86t82.5 45q27 2 37 -4
t8 -14.5t-11 -16.5q-25 -29 -32 -61q33 4 51 -7q63 -25 65 -106q2 -31 -19.5 -63.5t-64.5 -53.5q-33 -16 -65 -10q-27 4 -59.5 23.5t-43.5 48.5v2q-2 2 -2 4z" />
    <glyph glyph-name="quotedblright" unicode="&#x201d;" horiz-adv-x="655" 
d="M301 1282q18 -53 0 -127q-12 -47 -53 -86t-82 -45q-27 -2 -37 4t-8 14.5t10 16.5q25 29 33 61q-33 -4 -51 6q-63 25 -66 107q-2 31 19.5 63.5t64.5 53.5q33 16 66 10q27 -4 59.5 -23.5t42.5 -48.5v-2zM596 1280q18 -53 0 -127q-12 -47 -53 -86t-82 -45q-27 -2 -37 4
t-8 14.5t10 16.5q25 29 33 61q-33 -4 -51 6q-63 25 -66 107q-2 31 19.5 63.5t64.5 53.5q33 16 66 10q27 -4 59.5 -23.5t42.5 -48.5v-2q2 -2 2 -4z" />
    <glyph glyph-name="quotedblbase" unicode="&#x201e;" horiz-adv-x="655" 
d="M303 166q18 -53 0 -127q-12 -47 -53 -86t-82 -45q-27 -2 -37 4t-8 14t10 17q25 29 33 61q-33 -4 -51 6q-63 25 -66 107q-2 31 19.5 63.5t64.5 52.5q33 16 66 11q27 -4 59.5 -23.5t42.5 -48.5l2 -2v-4zM598 164q18 -53 0 -127q-12 -47 -53 -86t-82 -45q-27 -2 -37 4t-8 14
t10 17q25 29 33 61q-33 -4 -51 6q-63 25 -66 107q-2 31 19.5 63.5t64.5 52.5q33 16 66 11q27 -4 59.5 -23.5t42.5 -48.5q0 -2 2 -6z" />
    <glyph glyph-name="bullet" unicode="&#x2022;" horiz-adv-x="444" 
d="M205 508q-84 10 -131 102q-16 31 -6 70q20 96 110 127q49 14 88 4q55 -14 78 -74q16 -27 25 -84q6 -53 -36 -98t-128 -47z" />
    <glyph glyph-name="ellipsis" unicode="&#x2026;" horiz-adv-x="976" 
d="M174 2q-72 6 -108 84q-12 29 -7 59q18 80 93 105q37 12 73 4q47 -12 66 -61q10 -18 20 -70q4 -45 -31.5 -82t-105.5 -39zM475 45q-72 6 -108 84q-12 29 -7 59q18 80 93 105q37 12 73 4q47 -12 66 -61q10 -18 20 -70q4 -45 -31.5 -82t-105.5 -39zM778 2q-72 6 -108 84
q-12 29 -6 59q18 80 92 105q37 12 73 4q47 -12 66 -61q10 -18 20 -70q4 -45 -31.5 -82t-105.5 -39z" />
    <glyph glyph-name="guilsinglleft" unicode="&#x2039;" horiz-adv-x="655" 
d="M109 772q25 39 79 135q86 150 117 195q41 63 103.5 83.5t123.5 -7.5q31 -14 41 -48q20 -59 -47 -161q-18 -31 -75 -107q-100 -141 -117 -170l-6 -10l6 -10l20 -33q20 -33 33 -51q100 -164 141 -211q59 -70 54 -129q-4 -41 -43 -74q-41 -29 -82 -22q-29 6 -58.5 27.5
t-44.5 39.5l-14 19q-33 45 -96 124q-88 111 -135 181q-35 47 -39 104q-2 51 22 96l2 2z" />
    <glyph glyph-name="guilsinglright" unicode="&#x203a;" horiz-adv-x="655" 
d="M543 772q6 -10 14 -27l2 -2q25 -45 23 -96q-4 -57 -39 -104q-47 -70 -135 -181q-63 -80 -97 -124q-51 -74 -116 -86q-41 -6 -82 22q-39 33 -43 74q-6 59 53 129q41 47 141 211q12 18 33 51l20 33l7 10l-7 10q-16 29 -116 170q-57 76 -76 107q-68 102 -47 161q10 33 41 48
q61 29 123.5 8t103.5 -84q31 -45 117 -195q55 -96 80 -135z" />
    <glyph glyph-name="fraction" unicode="&#x2044;" horiz-adv-x="817" 
d="M283 664q53 98 127.5 241.5t107.5 202.5t77 137t75.5 119t66.5 74q53 55 111 26q53 -27 49 -88q-4 -33 -13.5 -67.5t-28.5 -83.5t-37.5 -92t-55.5 -119t-66.5 -135.5t-84 -171t-97.5 -197.5q-281 -543 -412 -600q-20 -8 -51 5t-43 32q-12 20 -6 65q10 82 105.5 291
t175.5 361z" />
    <glyph glyph-name="Euro" unicode="&#x20ac;" horiz-adv-x="950" 
d="M590 455q-8 2 -12.5 -5.5t-2.5 -15.5q2 -31 33 -80q31 -53 97 -37q33 6 86 37q70 45 104 6q39 -41 4 -110q-29 -49 -82 -76q-80 -41 -137 -51t-145 4q-74 12 -119 51q-115 98 -148 236q-8 37 -16 43t-47 2q-68 -6 -82 -2q-55 6 -68 55q-12 51 21 80q12 10 31.5 15t42 7
t32.5 4q43 8 47 29q16 57 -43 62q-12 2 -37.5 2t-37.5 2q-68 6 -72 55q-2 29 19.5 57.5t50.5 32.5q39 6 88 2q57 -6 79 51q80 188 248 254q123 45 230 -30q12 -10 31.5 -30t45 -57.5t25.5 -64.5q-2 -70 -63 -70q-59 0 -99 66q-37 66 -84 6q-39 -45 -49 -92q-4 -27 2 -35
t33 -10q10 0 46 -1t54 -3q41 -4 60.5 -33t9.5 -68q-12 -49 -74 -53h-112q-37 -2 -37 -37q0 -41 37 -43q78 -4 112 -8q23 -2 46.5 -27.5t25.5 -46.5q2 -33 -23.5 -56t-64.5 -23q-49 6 -86 6z" />
    <glyph glyph-name="minus" unicode="&#x2212;" horiz-adv-x="757" 
d="M684 700q10 -66 -38 -95.5t-114 -33.5q-16 0 -149 1t-158 -7q-74 -12 -113.5 22t-43.5 89q-4 61 31.5 95t72.5 36l39 2q86 2 297 12q160 4 176 -121z" />
  </font>
</defs>
</svg>
