<?xml version="1.0" standalone="no"?>
<!DOCTYPE svg PUBLIC "-//W3C//DTD SVG 1.1//EN" "http://www.w3.org/Graphics/SVG/1.1/DTD/svg11.dtd" >
<svg xmlns="http://www.w3.org/2000/svg">
<metadata>Generated by IcoMoon</metadata>
<defs>
<font id="goicon" horiz-adv-x="512">
<font-face units-per-em="512" ascent="480" descent="-32" />
<missing-glyph horiz-adv-x="512" />
<glyph unicode="&#x20;" horiz-adv-x="256" d="" />
<glyph unicode="&#xe100;" glyph-name="trofeu" d="M69.517 463.073c0.787-9.454 0.663-9.602-8.106-9.631-20.499-0.068-44.17-15.225-53.23-34.087-11.113-23.131-10.989-58.349 0.324-91.941 21.788-64.697 87.209-119.268 174.496-145.555 7.888-2.375 10.72-3.826 16.696-8.551 3.959-3.13 9.649-7.195 12.645-9.034l5.449-3.344-0.144-8.5c-0.182-10.72 1.869-16.93 8.466-25.647l4.888-6.457v-105.69l-16.251-0.423c-28.706-0.749-40.883-8.639-55.073-35.684l-5.822-11.099h204.273l-5.699 10.969c-14.017 26.976-26.479 35.065-55.177 35.815l-16.251 0.423v105.69l4.889 6.457c6.597 8.717 8.647 14.928 8.466 25.647l-0.144 8.5 5.449 3.344c2.997 1.839 8.686 5.904 12.645 9.034 5.976 4.726 8.808 6.176 16.697 8.551 87.287 26.288 152.708 80.858 174.496 145.555 11.313 33.592 11.437 68.81 0.324 91.941-9.060 18.861-32.731 34.019-53.23 34.087-8.795 0.030-8.93 0.188-8.163 9.636l0.677 8.351h-374.284l0.697-8.356zM74.972 421.179c9.020-50.569 33.174-117.769 59.397-165.25 7.438-13.467 7.905-16.042 3.757-20.685-4.482-5.018-7.858-4.488-20.534 3.223-51.429 31.283-84.027 75.032-91.026 122.166-6.35 42.771 8.642 67.219 41.523 67.712l5.59 0.083 1.293-7.25zM453.567 427.334c54.295-10.014 40.429-106.685-23.306-162.483-24.87-21.773-47.125-35.004-53.66-31.903-7.426 3.524-7.236 7.944 0.992 22.981 26.908 49.173 50.148 113.879 59.533 165.75l1.221 6.75h4.642c2.555 0 7.314-0.493 10.578-1.094zM220.78 346.928c0.281-2.009-35.808-116.474-37.756-119.749-0.984-1.655 1.197-1.751 40.218-1.765 41.982-0.017 46.409-0.382 42.318-3.505-2.981-2.274-90.339-2.219-91.212 0.057-0.425 1.108 33.233 109.322 37.389 120.212 0.371 0.973-3.662 1.25-18.161 1.25-19.547 0-20.826 0.301-19.207 4.519 1.031 2.69 46.030 1.701 46.41-1.019zM252.428 347.457c7.135-2.714 15.274-14.262 17.108-24.278l0.686-3.75h-43.995l-0.619-4.25c-1.912-13.118 6.641-30.108 16.215-32.211 5.491-1.207 14.354 4.13 17.792 10.711 1.743 3.337 3.637 3.505 5.646 0.499 2.002-2.991-0.286-7.673-6.586-13.481-19.782-18.235-45.225 6.942-39.767 39.353 3.507 20.822 18.529 33.105 33.519 27.406zM285 319.879c0-30.514 0.275-32.429 5.149-35.842 7.24-5.070 8.851 1.364 8.851 35.342v29.049h7.103l-0.302-32.249c-0.279-29.935-0.442-32.483-2.257-35.484-4.397-7.268-14.446-8.222-20.22-1.923-4.906 5.354-5.312 8.441-5.318 40.407l-0.005 29.25h6.999v-28.549zM329.81 344.178c0.267-3.22-0.043-3.887-2.189-4.702-5.904-2.245-5.129-7.179 2.893-18.395 12.982-18.151 5.296-46.651-12.579-46.651-4.695 0-4.462 7.445 0.262 8.389 13.954 2.791 16.019 20.42 4.406 37.61-9.19 13.604-7.475 28.691 3.161 27.809 3.53-0.292 3.753-0.514 4.046-4.060zM237.328 338.488c-2.908-1.774-8.329-8.471-8.329-10.291 0-0.423 6.975-0.768 15.501-0.768 17.143 0 16.974-0.083 11.899 5.846-6.209 7.255-12.778 9.049-19.071 5.214z" />
<glyph unicode="&#xe101;" glyph-name="tecnicas" d="M2.048 391.632v-83.796l15.831-46.763c8.706-25.721 15.627-46.764 15.38-46.764-3.191 0 12.572-36.046 22.142-50.635 5.855-8.925 10.53-16.622 10.39-17.101-0.141-0.48 0.205-0.872 0.768-0.872s1.024-0.488 1.024-1.083c0-0.595 5.222-9.005 11.606-18.688 16.755-25.416 19.036-29.118 18.358-29.797-0.335-0.334-0.072-0.608 0.586-0.608 0.656 0 1.194-0.471 1.194-1.046 0-2.197 10.482-16.829 14.848-20.727 9.871-8.814 26.157-10.062 36.372-2.789l2.621 1.866 18.122-17.752-0.625-23.040c-0.654-24.147-2-34.671-6.352-49.691-3.072-10.602-3.125-12.755-0.4-16.219l2.122-2.698h89.453c79.919 0 89.624 0.171 91.061 1.607 2.715 2.716 3.048 6.641 1.159 13.696-0.988 3.692-1.952 7.865-2.144 9.272-0.19 1.408-1.087 6.707-1.991 11.776-0.992 5.556-1.894 18.459-2.274 32.498l-0.63 23.282 17.65 16.924 5.856-3.072c16.489-8.651 31.846-1.921 44.815 19.642 3.325 5.529 11.027 17.543 17.113 26.695s10.858 16.64 10.605 16.64c-0.581 0 3.92 7.104 18.775 29.63 10.299 15.618 16.426 27.183 15.101 28.507-0.228 0.229 0.281 2.332 1.129 4.675 1.995 5.51 28.486 84.485 33.716 100.516l4.007 12.288 0.279 82.898c0.216 64.119 0.565 83.079 1.536 83.697 0.691 0.439-23.856 0.731-54.551 0.65s-54.31-0.334-52.48-0.562l3.328-0.412v-55.451l-5.447-6.77c-2.995-3.724-6.421-8.061-7.612-9.638-1.192-1.578-2.416-2.73-2.72-2.56-0.305 0.169-2.822-3.38-5.598-7.889-7.976-12.96-7.995-12.969-14.299-5.721-2.904 3.339-8.278 8.272-11.938 10.961-3.662 2.689-6.659 5.203-6.659 5.587 0 1.417-15.81 11.568-26.375 16.937-50.794 25.808-117.121 21.4-159.059-10.57-14.126-10.769-15.559-11.996-24.525-21.010-10.14-10.194-8.668-10.308-16.394 1.262-4.969 7.44-12.754 17.678-18.603 24.464l-3.876 4.495v55.914l4.352 0.391c2.394 0.217-20.647 0.473-51.2 0.571l-55.552 0.179v-83.796zM271.872 417.979c33.477-4.087 67.474-21.159 87.607-43.993 12.773-14.487 13.122-15.104 11.522-20.412-3.086-10.253-4.53-22.738-4.971-43.008-0.354-16.284-0.955-23.346-2.679-31.488l-2.221-10.496-16.47 0.032c-14.733 0.028-26.834 0.927-34.462 2.559-2.546 0.546-5.091-8.038-5.053-17.046 0.009-2.262 18.055-4.394 37.637-4.448 8.026-0.023 14.592-0.083 14.592-0.135 0.002-0.051-1.381-6.615-3.070-14.586s-3.072-16.485-3.072-18.921c0-16.473 15.002-31.788 31.241-31.894l6.277-0.041-2.797-4.755c-1.538-2.616-6.25-11.372-10.473-19.456-4.221-8.086-10.796-20.231-14.608-26.989-15.031-26.64-14.947-26.425-14.589-37.048l0.317-9.408-8.584-8.004c-26.435-24.65-48.048-33.471-82.016-33.471-34.034 0-57.075 9.372-82.118 33.403l-9.927 9.526 1.020 4.54c2.282 10.161-1.849 19.755-29.322 68.11-8.2 14.432-10.172 18.252-9.911 19.2 0.115 0.423-0.328 0.768-0.984 0.768-0.658 0-0.892 0.303-0.521 0.673s0.263 1.178-0.24 1.792c-0.641 0.784 0.969 1.162 5.384 1.264 24.571 0.563 34.757 20.996 27.422 55.008-1.197 5.553-2.178 10.206-2.178 10.338s8.64 0.202 19.2 0.156c17.677-0.077 38.194 1.606 41.042 3.366 1.048 0.648-0.914 16.896-2.194 18.178-0.201 0.2-2.629-0.11-5.398-0.69-6.855-1.433-39.138-2.471-48.786-1.566l-7.833 0.733-1.834 7.344c-1.412 5.654-1.851 11.698-1.911 26.286-0.089 21.596-2.584 41.092-6.618 51.7-1.173 3.085 2.938 9.171 14.643 21.686 27.602 29.505 75.234 46.286 116.937 41.195zM358.4 412.453c0.702-0.845 1.736-1.536 2.299-1.536 0.571 0 0.461 0.68-0.251 1.536-0.702 0.845-1.736 1.536-2.299 1.536-0.571 0-0.461-0.68 0.251-1.536zM246.592 259.621c-0.912-1.549-3.528-6.434-5.814-10.855-2.285-4.421-4.567-8.568-5.072-9.216-1.040-1.332-10.425-19.003-10.425-19.626 0-0.223 3.196-2.272 7.101-4.553 3.906-2.281 9.778-6.953 13.048-10.382 8.609-9.026 8.234-8.983 15.536-1.773 7.486 7.394 7.272 6.132 1.947 11.509-2.394 2.416-6.122 6.254-8.286 8.529l-3.936 4.137 3.050 5.491c12.509 22.532 12.211 19.836 2.794 25.203-9.052 5.16-7.913 4.983-9.942 1.536zM205.701 167.954l-4.731-7.405 4.671-2.94c21.035-13.24 53.198-19.863 77.845-16.029 9.956 1.549 9.548 0.361 5.824 16.947-0.445 1.989-1.214 2.072-18.679 2.048-17.523-0.024-33.435 1.677-34.692 3.709-0.297 0.48-1.572 0.873-2.834 0.873s-2.733 0.392-3.268 0.87c-0.535 0.478-2.94 1.63-5.344 2.558-2.405 0.93-6.198 2.843-8.428 4.251-5.367 3.387-4.956 3.58-10.364-4.883z" />
<glyph unicode="&#xe102;" glyph-name="estudo" d="M2.534 473.478c-0.891-1.072-1.25-2.32-0.797-2.774 0.453-0.452 0.823-0.15 0.823 0.671 0 0.822 0.864 1.494 1.92 1.494s1.92 0.576 1.92 1.28c0 1.901-2.022 1.55-3.865-0.671zM346.053 469.619c-1.512-1.639-4.103-5.7-5.76-9.026-4.438-8.906-15.333-18.479-19.653-17.267-0.704 0.197-2.432 0.546-3.84 0.777s-5.728 1.346-9.6 2.48c-56.298 16.477-118.841-20.325-141.895-83.497-7.954-21.794-10.101-49.241-2.78-35.565 2.875 5.372 4.56 4.778 4.063-1.431-0.864-10.77 9.284-27.365 17.891-29.256 2.488-0.546 5.321-3.212 9.242-8.696 10.35-14.482 30.323-28.94 43.012-31.136 1.797-0.311 5.285-1.113 7.749-1.782 5.972-1.623 22.588-1.562 28.169 0.102 2.459 0.733 5.911 1.55 7.671 1.815s6.605 2.112 10.766 4.106c10.791 5.171 12.274 6.031 12.274 7.129 0 0.537 0.594 0.976 1.32 0.976 1.755 0 20.503 19.397 20.42 21.129-0.099 2.070 4.656 9.087 8.36 12.339 5.118 4.494 7.209 10.13 7.295 19.67 0.091 10.094 6.978 8.297 8.733-2.279l0.688-4.139 2.832 5.389c1.558 2.964 2.832 6.346 2.832 7.517 0 3.474 3.338-0.109 6.464-6.939 8.983-19.625 41.83-23.731 54.624-6.827 5.841 7.717 5.616 10.46-0.853 10.46-6.080 0-7.557 1.656-3.236 3.625 4.21 1.918 3.976 4.223-0.699 6.882-6.695 3.81-7.087 7.218-2.991 25.973 5.028 23.024 4.79 29.47-1.541 41.6-2.756 5.28-4.864 10.829-4.685 12.33 1.022 8.553-6.454 14.537-18.171 14.544-4.163 0.002-10.498 0.928-14.080 2.055l-6.512 2.052 0.339 10.993c0.649 21.063-9.243 33.876-18.446 23.895zM207.052 339.794c23.513-2.704 33.817-13.050 26.816-26.925-2.894-5.736-25.141-8.721-38.122-5.115-13.119 3.644-17.069 30.815-4.704 32.349 2.287 0.283 4.447 0.604 4.798 0.711s5.398-0.352 11.212-1.020zM321.967 338.429c6.896-5.723 0.971-28.109-8.105-30.629-25.497-7.081-49.861 6.245-39.213 21.447 6.243 8.913 39.798 15.423 47.318 9.182zM167.194 276.777c-0.883-0.492-3.055-1.156-4.827-1.477-3.716-0.673-16.878-7.272-17.513-8.778-0.236-0.557-0.88-1.012-1.433-1.012-1.264 0-12.412-11.085-13.245-13.171-0.339-0.851-3.416-5.337-6.837-9.966-3.421-4.629-8.665-11.829-11.656-16-22.026-30.725-35.184-48.577-36.325-49.282-0.736-0.454-1.316-1.337-1.29-1.964 0.055-1.325-12.709-18.851-14.19-19.483-0.549-0.236-0.998-0.964-0.998-1.62 0-1.031-12.114-18.588-14.044-20.353-0.386-0.352-2.286-3.089-4.227-6.080-1.939-2.991-4.093-5.44-4.787-5.44s-1.262-0.779-1.262-1.733c0-0.954-1.413-3.257-3.139-5.12s-2.883-3.387-2.569-3.387c0.841 0-8.435-11.998-10.128-13.101-0.795-0.517-0.994-0.949-0.444-0.96 0.549-0.010-1.376-3.235-4.28-7.166-10.231-13.849-13.177-25.721-9.818-39.574 2.691-11.099 2.793-11.456 3.501-12.16 0.354-0.352 2.272-3.041 4.262-5.978 1.991-2.935 6.021-6.966 8.956-8.956 2.936-1.99 5.625-3.974 5.977-4.409 3.209-3.966 22.622-5.774 33.28-3.1 4.576 1.148 8.896 2.221 9.6 2.382s1.999 0.743 2.88 1.293c0.879 0.55 2.176 0.644 2.88 0.209s1.28-0.133 1.28 0.671c0 0.805 0.721 1.214 1.6 0.908 0.88-0.305 3.904 0.284 6.72 1.31s6.272 2.046 7.68 2.264c1.408 0.219 5.007 1.284 8 2.365 2.993 1.083 5.44 1.635 5.44 1.228s0.878-0.012 1.951 0.88c1.073 0.891 2.288 1.283 2.7 0.87 0.412-0.412 3.422 0.289 6.689 1.558 3.268 1.269 6.661 2.052 7.54 1.74 0.88-0.311 1.6 0.091 1.6 0.896 0 0.804 0.564 1.113 1.253 0.688 0.69-0.426 2.418-0.152 3.84 0.61 2.567 1.373 2.587 1.11 2.587-34.501 0-19.736 0.269-35.885 0.596-35.885s4.215 1.958 8.64 4.351c60.958 32.969 157.782 33.842 221.351 1.997 6.791-3.402 12.695-5.838 13.12-5.413 0.423 0.425 0.772 16.487 0.772 35.694v34.921l4.317-1.803c2.375-0.993 4.59-1.532 4.923-1.198s2.638-0.243 5.12-1.28c2.483-1.038 4.875-1.526 5.317-1.084s0.803 0.204 0.803-0.53c0-0.733 1.296-1.341 2.88-1.351s6.192-1.19 10.24-2.624c4.048-1.433 7.36-2.387 7.36-2.12s2.304-0.327 5.12-1.32c2.816-0.993 5.12-1.474 5.12-1.066s0.864 0.023 1.92-0.854c1.056-0.877 1.92-1.165 1.92-0.64s0.773 0.313 1.718-0.473c0.945-0.784 2.009-1.135 2.363-0.779 0.356 0.354 2.873-0.284 5.592-1.421 13.349-5.578 31.835-4.974 43.166 1.409 5.815 3.276 17.675 15.449 18.381 18.865 0.182 0.88 1.281 4.19 2.445 7.358 4.711 12.834 2.558 27.079-6.048 39.986-2.693 4.039-4.897 7.663-4.897 8.054 0 0.389-1.198 1.979-2.663 3.534-1.464 1.554-6.473 8.298-11.128 14.986-4.656 6.688-8.93 12.352-9.497 12.586-0.567 0.236-1.031 0.996-1.031 1.692 0 0.695-0.719 2.016-1.6 2.937-0.88 0.919-5.632 7.305-10.56 14.19s-11.409 15.818-14.4 19.853c-2.991 4.034-5.44 7.974-5.44 8.758s-0.432 1.452-0.96 1.485c-0.529 0.034-2.976 2.928-5.44 6.43-2.464 3.505-7.51 10.533-11.213 15.62s-7.735 10.66-8.96 12.384c-1.225 1.724-3.968 5.468-6.096 8.32s-9.5 13.098-16.385 22.768c-10.601 14.889-24.18 29.613-27.515 29.834-0.478 0.032-3.175 1.266-5.991 2.743s-5.551 2.747-6.080 2.822c-0.529 0.076-1.104 0.185-1.28 0.243s-1.472 0.266-2.88 0.462c-1.408 0.195-4.576 0.735-7.040 1.2-4.363 0.822-4.613 0.642-9.6-6.98-34.529-52.763-113.188-51.519-148.469 2.35-3.614 5.518-9.559 7.038-15.218 3.89zM148.48 165.15c0 0.368 0.72 0.22 1.6-0.329 0.881-0.549 2.638-1.159 3.908-1.358 1.27-0.197 4.006-1.236 6.080-2.31 2.075-1.072 3.772-1.655 3.772-1.296s2.817-0.457 6.261-1.814c3.443-1.357 6.611-2.117 7.040-1.688s0.78 0.012 0.78-0.926c0-0.938 0.361-1.346 0.803-0.904s2.698 0.010 5.015-0.959c2.318-0.967 4.549-1.425 4.958-1.015 0.41 0.409 0.745 0.010 0.745-0.886 0-0.897 0.793-1.326 1.764-0.954s2.41 0.031 3.2-0.759c0.79-0.79 1.436-1.022 1.436-0.514s2.29-0.246 5.089-1.674c2.799-1.427 5.535-2.457 6.080-2.288s4.447-0.916 8.671-2.413c38.748-13.731 42.036-14.285 54.75-9.239 3.68 1.461 8.064 2.913 9.743 3.227 1.678 0.313 4.702 1.423 6.72 2.466s3.667 1.523 3.667 1.066c0-0.455 0.864-0.113 1.92 0.764s1.92 1.255 1.92 0.842c0-0.413 2.539 0.337 5.642 1.668 3.104 1.33 5.928 2.134 6.276 1.784 0.348-0.348 2.994 0.571 5.878 2.043 2.884 1.471 5.244 2.304 5.244 1.852s0.738-0.21 1.639 0.538c0.902 0.749 3.062 1.63 4.8 1.959s4.685 1.19 6.548 1.913c1.863 0.724 3.736 0.969 4.16 0.544 0.425-0.423 0.772-0.065 0.772 0.798s0.557 1.225 1.236 0.805c0.68-0.42 3.488 0.385 6.241 1.789 2.753 1.406 5.276 2.284 5.606 1.952 0.332-0.33 3.859 0.839 7.839 2.599 3.981 1.762 7.237 2.912 7.237 2.56s2.016 0.201 4.48 1.231c2.464 1.029 4.48 1.498 4.48 1.041s0.691-0.139 1.536 0.705c4.269 4.269 4.864 1.95 4.864-18.944 0-11.264-0.327-20.48-0.724-20.48s-1.89 0.625-3.318 1.387c-5.399 2.89-28.778 4.281-37.192 2.213-7.95-1.954-20.594-13.187-23.942-21.27-0.932-2.25-2.144-4.091-2.693-4.091s-1.414-3.582-1.923-7.959l-0.924-7.959-4.899 13.13-9.873-3.067c-5.43-1.687-10.38-3.076-11-3.086-1.71-0.029 3.894-24.332 6.125-26.563 0.743-0.745 17.403 6.849 17.403 7.933 0 3.88-1.721 4.357-6.647 1.844-5.68-2.898-5.486-2.928-6.717 1.075-0.702 2.284-0.211 3.175 2.401 4.365 3.272 1.491 4.87 7.076 1.683 5.878-6.331-2.38-7.36-2.381-7.36-0.015 0 1.568 1.538 2.945 4.48 4.009 2.464 0.891 4.505 2.303 4.536 3.137 0.053 1.417 2.969-5.526 4.74-11.283 0.906-2.948 3.434-5.76 5.179-5.76 1.082 0 5.572-10.034 5.568-12.444 0-0.548 0.822-1.457 1.828-2.020s1.829-1.634 1.829-2.38c0-1.688 5.34-7.424 6.939-7.454 0.649-0.012 2.116-0.869 3.26-1.904 3.132-2.835 13.959-8.354 16.429-8.377 1.817-0.017 1.868-0.212 0.313-1.195-1.022-0.647-2.279-0.916-2.791-0.601-0.514 0.317-1.3-0.018-1.75-0.745s-1.353-0.99-2.009-0.585c-0.656 0.404-1.192 0.029-1.192-0.834s-0.351-1.217-0.779-0.788c-0.429 0.429-3.534-0.306-6.901-1.634s-6.471-2.062-6.901-1.634c-0.429 0.429-0.779 0.012-0.779-0.926s-0.298-1.409-0.662-1.045c-0.363 0.363-5.404-1.029-11.2-3.096-5.796-2.066-11.546-3.831-12.778-3.922s-2.24-0.714-2.24-1.385c0-0.671-0.341-0.878-0.758-0.462-0.416 0.418-3.378-0.365-6.58-1.738-3.204-1.373-6.102-2.218-6.441-1.879-0.341 0.339-2.851-0.522-5.579-1.913s-4.962-2.161-4.962-1.709c0 0.453-0.864 0.106-1.92-0.771s-1.92-1.264-1.92-0.861c0 0.402-2.041-0.122-4.536-1.165-4.251-1.776-5.198-1.673-15.040 1.627-5.776 1.938-10.936 3.396-11.464 3.241s-0.96 0.329-0.96 1.074c0 0.745-0.537 1.024-1.193 0.618s-4.489 0.719-8.517 2.501c-4.028 1.781-7.57 2.991-7.87 2.69-0.302-0.301-2.629 0.322-5.174 1.385-2.543 1.063-5.695 2.139-7.001 2.391-1.307 0.251-4.144 1.339-6.305 2.416-2.162 1.079-4.435 1.649-5.054 1.266s-1.125-0.051-1.125 0.736-0.514 1.113-1.144 0.724c-0.629-0.389-3.365 0.272-6.080 1.467s-5.799 2.288-6.856 2.43c-3.904 0.521-12.102 4.164-9.92 4.409 1.232 0.137 2.711 0.322 3.286 0.409 2.444 0.374 11.726 5.368 11.74 6.315 0.007 0.57 0.446 0.787 0.974 0.483 0.911-0.525 14.476 12.394 14.477 13.788 0 0.363 1.244 3.405 2.765 6.757 16.047 35.39-23.638 69.635-63.001 54.363l-3.2-1.241 0.288 18.681c0.359 23.324 0.068 22.553 7.342 19.435 3.196-1.37 5.81-2.189 5.81-1.82zM267.2 92.818c-9.824-2.897-11.2-3.659-11.2-6.209 0-3.218 2.433-3.075 11.461 0.677 3.698 1.534 4.18 1.545 2.947 0.058-0.813-0.978-1.802-3.626-2.2-5.884s-1.911-7.12-3.364-10.806c-3.092-7.845-4.065-13.784-2.259-13.784 4.368 0 22.74 11.089 22.796 13.76 0.075 3.647-0.746 3.61-8.224-0.366-5.214-2.772-5.967-2.912-5.163-0.96 1.733 4.204 7.32 26.186 6.756 26.577-0.192 0.133-5.387-1.245-11.548-3.062z" />
<glyph unicode="&#xe103;" glyph-name="coracao" d="M413.014 472.481c-42.274-12.358-94.677-62.606-129.302-123.986-1.787-3.168-6.309-10.974-10.046-17.345l-6.798-11.583-5.718 5.475c-37.858 36.252-92.338 67.657-134.856 77.737-37.209 8.822-77.248-2.027-103.059-27.926-54.487-54.669-14.030-145.326 111.023-248.79 34.315-28.39 92.725-73.086 134.573-102.978 84.762-60.54 112.005-70.522 132.019-48.368 6.904 7.642 6.007 9.586-8.533 18.493-56.050 34.344-114.551 74.989-174.936 121.543-62.107 47.882-118.18 102.537-146.675 142.969-35.508 50.382-37.564 90.459-5.95 115.971 31.322 25.273 98.793-9.676 172.47-89.337 16.631-17.982 21.072-20.96 31.289-20.988 13.505-0.037 28.875 12.97 35.344 29.91 1.098 2.875 4.656 10.86 7.908 17.744 3.252 6.882 7.917 17.106 10.365 22.717 19.854 45.493 54.348 91.859 82.915 111.456 13.873 9.517 25.861 2.725 40.889-23.163 13.673-23.555 17.837-62.041 10.752-99.387-0.943-4.976-1.952-10.897-2.243-13.157-1.029-8.046-8.029-30.861-14.364-46.822-1.863-4.694-4.161-10.838-5.107-13.654s-5.507-12.905-10.135-22.419c-4.627-9.514-8.413-17.595-8.413-17.956 0-7.623-58.669-99.122-88.772-138.449-11.922-15.574-9.695-20.201 9.047-18.791 18.137 1.363 30.526 10.777 47.44 36.051 6.072 9.074 11.913 17.778 12.979 19.342 84.886 124.596 128.896 244.476 111.527 303.786-13.586 46.393-55.621 73.603-95.635 61.906z" />
<glyph unicode="&#xe104;" glyph-name="soma" d="M243.5 446.081c-16.548-5.472-27.991-19.056-30.452-36.152-0.599-4.159-1.015-35.312-1.028-76.75l-0.019-69.75-69.75-0.019c-40.245-0.012-72.712-0.437-76.75-1.005-49.732-6.995-49.732-78.77 0-85.929 4.159-0.599 35.311-1.015 76.75-1.028l69.75-0.019 0.019-69.75c0.022-74.877 0.307-80.051 4.966-90.024 15.029-32.166 63.001-32.166 78.029 0 4.659 9.973 4.945 15.146 4.966 90.024l0.019 69.75 69.75 0.019c41.438 0.013 72.591 0.429 76.75 1.028 49.71 7.155 49.71 78.75 0 85.906-4.159 0.599-35.312 1.015-76.75 1.028l-69.75 0.019-0.019 69.75c-0.022 74.877-0.307 80.051-4.966 90.024-8.531 18.258-32.839 29.053-51.515 22.879z" />
<glyph unicode="&#xe105;" glyph-name="folha-vazada" d="M384.834 467.849c-7.502-4.548-22.37-14.43-46.469-30.889-24.24-16.554-42.122-26.073-62.427-33.229-2.654-0.935-6.786-2.921-9.183-4.413-2.395-1.491-7.486-4.43-11.313-6.531-24.022-13.188-28.792-16.088-34.69-21.092l-3.556-3.015-1.227 8.714c-1.827 12.956-1.416 11.766-3.828 11.101-12-3.3-18.096-11.15-48.138-61.991-11.109-18.8-10.238-18.533-10.763-3.283-0.44 12.781-0.149 12.413-5.71 7.184-18.871-17.754-27.286-51.567-26.023-104.575 0.374-15.673 0.522-15.446-3.49-5.376-3.474 8.717-6.534 14.414-9.381 17.457l-2.588 2.768-0.407-1.523c-0.916-3.428-1.692-17.54-1.33-24.176 1.3-23.758 5.74-40.397 21.099-79.067 9.856-24.814 14.651-39.236 17.506-52.644l1.087-5.101-2.233-2.69c-23.656-28.493-34.651-54.857-35.82-85.889l-0.325-8.626 5.261-5.341c8.564-8.697 15.164-10.913 22.423-7.533 7.394 3.443 9.010 10.878 5.879 27.065-4.13 21.344 1.467 51.254 12.353 66.020 5.198 7.051 6.292 7.546 51.22 23.065 23.596 8.15 52.309 22.599 94.698 47.653 6.734 3.979 15.5 8.897 19.479 10.926 9.671 4.933 13.204 8.393 14.446 14.146l0.39 1.808h-4.079c-2.244 0-7.085-0.497-10.757-1.102-13.324-2.197-14.908-1.455-7.114 3.328 33.614 20.627 57.24 44.932 71.889 73.95 6.683 13.239 13.885 34.084 12.179 35.25-2.279 1.559-10.553-1.168-15.985-5.27-3.664-2.768-10.603-5.81-10.603-4.65 0 0.122 1.472 2.564 3.272 5.426 12.034 19.15 21.332 42.418 26.989 67.537 1.98 8.798 4.228 25.281 4.238 31.089l0.005 2.704-2.087-0.367c-5.68-0.999-12.414-3.863-20.899-8.887-5.594-3.313-12.048-6.561-12.604-6.343-0.24 0.093 1.026 2.799 2.812 6.013 18.144 32.653 27.013 69.742 24.979 104.458-0.283 4.837-0.524 9.232-0.533 9.767-0.026 1.394-0.065 1.376-8.644-3.824zM383.296 456.507c7.45-25.541 0.828-55.678-22.61-102.898-3.705-7.468-6.738-13.826-6.738-14.129 0-2.546 11.598 1.413 19.916 6.798 10.111 6.547 17.933 8.932 17.921 5.464-0.028-9.186-3.021-27.106-6.172-36.976-4.988-15.618-9.892-25.479-26.597-53.483-3.705-6.212-6.738-11.437-6.738-11.612 0-1.678 7.566 0.409 15.050 4.149 4.425 2.212 9.092 4.174 10.37 4.359l2.326 0.337-0.869-3.821c-8.572-37.706-33.584-64.997-86.147-93.995-4.897-2.702-10.122-5.595-11.612-6.428l-2.707-1.514 1.316-0.845c3.342-2.142 7.569-2.466 23.717-1.808 11.338 0.462 12.632 0.275 9.736-1.401-0.841-0.486-7.038-4.135-13.772-8.109-49.82-29.398-90.066-48.3-131.895-61.945l-10.574-3.45-3.776-3.711c-11.679-11.475-19.53-28.252-22.962-49.066-1.656-10.048-1.59-35.921 0.11-42.714 0.288-1.148 0.121-1.252-2-1.252-8.878 0-13.813 10.531-12.314 26.276 1.835 19.268 9.189 36.329 28.736 66.663l6.276 9.74-1.012 5.564c-2.718 14.934-6.773 27.587-17.39 54.262-12.249 30.771-17.075 46.238-19.923 63.851-1.621 10.021-1.622 10.017 2.74 3.733 9.040-13.020 11.605-15.252 14.243-12.394 3.79 4.108 3.833 7.52 0.26 21.087-6.478 24.603-1.102 69.536 11.303 94.459 4.353 8.746 5.462 8.105 6.504-3.769 0.557-6.35 1.39-8.805 3.484-10.274 2.77-1.939 2.268-2.692 17.278 25.845 16.040 30.492 22.939 41.12 33.197 51.13 7.083 6.911 7.262 6.821 7.275-3.65 0.007-7.597 0.412-9.636 2.311-11.663l1.118-1.191 4.272 2.361c2.35 1.299 14.541 7.757 27.090 14.35 29.995 15.76 46.661 24.621 53.148 28.258 2.908 1.63 6.922 3.875 8.921 4.985 1.998 1.11 5.255 2.989 7.235 4.173 1.98 1.185 5.93 3.55 8.778 5.258 16.796 10.066 37.757 24.88 50.752 35.868 8.128 6.871 9.239 7.205 10.427 3.13zM335.861 390.149c-18.293-10.166-36.58-26.762-54.832-49.757-6.921-8.72-6.913-8.713-6.425-6.646 0.39 1.649 1.517 26.026 1.216 26.326-0.091 0.091-1.25-4.032-2.574-9.161-9.411-36.416-26.114-79.361-52.221-134.264l-2.249-4.731-0.032 2.533c-0.043 3.536 0.867 14.953 2.574 32.25 2.418 24.508 2.023 41.103-1.257 52.87-1.089 3.905-3.556 10.498-4.040 10.791-0.203 0.124-0.394-8.952-0.423-20.17-0.178-67.058-10.377-116.978-30.695-150.238-1.366-2.238-2.543-3.99-2.617-3.895s0.076 2.3 0.329 4.902c2.579 26.52-1.119 52.887-12.254 87.374-10.793 33.429-10.174 31.721-11.488 31.721-1.345 0-2.727 1.327-3.283 3.15-0.412 1.356-1.852 2.74-2.341 2.251-0.177-0.178 0.435-2.654 1.361-5.505 24.106-74.262 27.608-110.579 13.532-140.341l-2.143-4.53-0.395 2.783c-2.256 15.846-6.163 26.348-13.381 35.966-3.083 4.109-11.838 12.503-12.425 11.916-0.298-0.298 2.817-7.271 8.079-18.085 11.511-23.656 14.599-38.67 10.944-53.228-1.022-4.073 11.858 1.639 28.508 12.642 10.719 7.085 17.826 10.637 24.877 12.434 4.135 1.053 5.268 1.603 7.234 3.502 4.153 4.012 9.309 5.997 24.306 9.357 16.502 3.698 19.707 6.786 6.409 6.173-12.25-0.565-21.678-3.163-38.679-10.661-9.689-4.274-18.935-7.62-22.999-8.322l-2.13-0.368 1.538 2.676c9.385 16.327 21.284 29.431 47.66 52.486 16.030 14.012 14.978 13.317 41.879 27.673 8.877 4.738 22.192 11.844 29.589 15.791 7.396 3.949 14.063 7.179 14.816 7.179 4.021 0 9.012 3.091 11.303 7 2.027 3.463 2.161 3.474-9.006-0.788-49.796-19.004-83.338-39.063-111.762-66.837-4.563-4.458-8.118-7.612-7.901-7.008 0.218 0.603 0.746 3.927 1.175 7.387 0.95 7.657 0.782 7.375 4.417 7.375 2.879 0 2.993 0.060 3.952 2.087 4.526 9.567 15.404 24.517 26.595 36.554 13.906 14.957 28.257 26.649 65.108 53.038 21.255 15.222 35.122 25.69 34.652 26.161-0.125 0.125-4.889-2.029-10.583-4.787-37.099-17.965-72.886-44.207-98.546-72.265-3.367-3.683-6.188-6.64-6.267-6.575s0.964 3.351 2.321 7.301c17.667 51.457 49.024 93.351 90.352 120.713 2.224 1.472 3.946 2.771 3.83 2.889-0.941 0.941-12.234-5.015-22.798-12.023-9.006-5.975-17.31-10.623-18.974-10.623s3.385 12.267 8.612 20.921c5.935 9.827 13.258 18.067 30.649 34.495 11.779 11.125 22.629 22.265 22.13 22.721-0.122 0.11-2.474-1.052-5.229-2.583zM215.438-26.37c-0.229-2.315 1.341-3.109 1.767-0.891 0.261 1.37 0.218 1.421-0.443 0.517-0.707-0.966-0.744-0.965-0.996 0.010-0.144 0.558-0.292 0.722-0.327 0.363zM218.481-27.111c0.413-1.55 0.676-1.967 1.022-1.622 0.128 0.128-0.133 0.858-0.58 1.623l-0.811 1.39 0.37-1.392zM223.83-27.144c-0.798-1.28-0.832-1.636-0.149-1.636 0.283 0 0.63 0.438 0.769 0.974 0.243 0.926 0.258 0.926 0.32 0 0.060-0.914 1.198-1.459 1.16-0.557-0.061 1.459-1.447 2.263-2.101 1.219zM228.806-27.249c-0.059-1.185 0.175-1.531 1.037-1.531s1.095 0.346 1.038 1.531c-0.065 1.312-0.112 1.351-0.317 0.278-0.133-0.688-0.457-1.252-0.72-1.252s-0.588 0.563-0.72 1.252c-0.206 1.074-0.251 1.034-0.316-0.278zM237.678-27.487c0.024-0.864 0.174-1.248 0.333-0.853 0.202 0.503 0.495 0.548 0.976 0.149 0.513-0.425 0.665-0.255 0.596 0.673-0.143 1.945-1.958 1.974-1.905 0.031zM247.308-26.805c-0.425-1.107 0.203-1.975 1.431-1.975 1.095 0 1.685 0.955 1.29 2.087-0.335 0.96-2.343 0.877-2.721-0.111zM253.976-26.828c-0.192-0.503-0.083-1.18 0.243-1.507 0.847-0.849 2.454-0.073 2.233 1.077-0.247 1.281-2.030 1.591-2.476 0.43zM257.714-27.528c0.024-0.841 0.173-1.207 0.332-0.812 0.206 0.514 0.49 0.551 0.993 0.135 0.546-0.452 0.644-0.267 0.438 0.812-0.368 1.929-1.819 1.819-1.762-0.135zM264.686-26.878c-0.474-1.233-0.421-1.902 0.149-1.902 0.267 0 0.488 0.626 0.488 1.392 0 1.611-0.164 1.743-0.636 0.51zM271.026-26.554c0.557-0.36 0.603-0.543 0.139-0.548-0.382-0.005-0.697-0.289-0.697-0.634 0-0.432 0.259-0.409 0.836 0.069 1.118 0.926 1.055 1.671-0.139 1.66-0.832-0.007-0.853-0.087-0.139-0.548zM273.066-27.203c-0.453-1.735 0.046-2.027 0.695-0.406 0.365 0.911 0.544 1.036 0.568 0.392 0.019-0.517 0.283-1.093 0.585-1.28 0.348-0.215 0.379 0.118 0.086 0.913-0.634 1.712-1.538 1.89-1.934 0.382zM279.931-27.389c0-0.957 0.303-1.389 0.974-1.382 0.746 0.007 0.8 0.118 0.231 0.478-0.409 0.26-0.743 0.666-0.743 0.904s0.334 0.644 0.743 0.904c0.57 0.361 0.516 0.473-0.231 0.478-0.671 0.007-0.974-0.425-0.974-1.382zM282.989-26.558c-0.19-0.308 0.089-0.727 0.622-0.932 0.892-0.343 0.883-0.406-0.103-0.793-0.982-0.384-0.967-0.423 0.179-0.458 0.76-0.024 1.253 0.289 1.253 0.795 0 0.459-0.313 0.839-0.697 0.844-0.464 0.005-0.418 0.188 0.139 0.548 0.719 0.464 0.704 0.54-0.106 0.548-0.517 0.005-1.097-0.243-1.288-0.551zM288.142-26.693c-0.442-1.198 0.18-2.087 1.435-2.050 1.206 0.034 1.206 0.034-0.046 0.538-0.688 0.278-1.253 0.645-1.253 0.818s0.565 0.54 1.253 0.818c1.238 0.497 1.239 0.503 0.059 0.538-0.656 0.019-1.308-0.278-1.447-0.661zM291.317-26.591c-0.202-0.327-0.216-0.743-0.034-0.926 0.185-0.185 0.334-0.042 0.334 0.315s0.377 0.649 0.834 0.649c1.165 0 1.050-1.532-0.138-1.842-0.733-0.192-0.664-0.272 0.278-0.32 0.982-0.050 1.252 0.237 1.252 1.327 0 1.457-1.774 2.016-2.526 0.798zM294.957-27.389c0-0.765 0.096-1.392 0.212-1.392 0.118 0 0.334 0.626 0.48 1.392s0.050 1.392-0.214 1.392c-0.264 0-0.478-0.626-0.478-1.392zM296.75-26.693c-0.396-0.483-0.352-0.894 0.141-1.348 0.56-0.514 0.709-0.368 0.709 0.697 0 1.548-0.073 1.603-0.85 0.651zM249.49-27.381c0.060-0.302-0.327-0.634-0.864-0.736-0.609-0.118-0.974 0.155-0.974 0.728 0 0.967 1.645 0.976 1.838 0.007zM256-27.389c0-0.459-0.375-0.834-0.834-0.834s-0.834 0.375-0.834 0.834c0 0.459 0.375 0.834 0.834 0.834s0.834-0.375 0.834-0.834zM240.803-27.867c-0.139-0.365 0.317-0.635 1.077-0.635 1.593 0 1.739 0.596 0.244 0.987-0.593 0.155-1.188-0.004-1.321-0.352zM268.522-27.669c0.337-0.544 0.146-0.65-0.749-0.416-0.661 0.173-1.061 0.087-0.889-0.19 0.413-0.667 2.473-0.651 2.473 0.019 0 0.288-0.289 0.702-0.642 0.921-0.426 0.264-0.49 0.151-0.192-0.333zM276.127-27.666c0.418-1.275 2.693-1.426 2.682-0.178-0.007 0.823-0.103 0.863-0.514 0.212-0.439-0.694-0.632-0.694-1.474 0-0.846 0.699-0.933 0.694-0.695-0.034z" />
<glyph unicode="&#xe106;" glyph-name="rosa" d="M371.14 473.858c-0.973-0.489-5.604-1.71-10.291-2.715-40.349-8.645-79.678-51.821-85.214-93.548-0.543-4.091-1.562-7.081-2.264-6.647s-1.279-4.883-1.279-11.817c0-8.032 0.531-12.279 1.463-11.703 0.842 0.521 1.467-0.839 1.472-3.205 0.015-7.873 7.79-31.172 10.401-31.172 0.711 0 1.303 2.798 1.315 6.217 0.168 48.317 49.5 84.771 99.372 73.427 20.49-4.661 37.632-22.846 37.142-39.404-0.094-3.224 0.332-6.522 0.947-7.327 0.617-0.804 1.039-3.767 0.94-6.583s0.318-5.778 0.932-6.583c0.612-0.804 2.469-3.273 4.128-5.485 8.508-11.347 29.135 6.558 29.135 25.289 0 1.578 0.658 2.871 1.463 2.871s1.463 3.291 1.463 7.314c0 4.023-0.658 7.314-1.463 7.314s-1.463 1.2-1.463 2.665c0 16.7-24.952 41.011-46.183 44.995-2.76 0.517-5.022 1.361-5.026 1.875s-4.092 1.133-9.084 1.376c-4.99 0.242-9.925 1.147-10.964 2.008-1.193 0.99-4.988 1.198-10.299 0.562-4.625-0.554-10.714-1.129-13.529-1.279s-5.449-0.634-5.851-1.077c-1.262-1.39-16.289-4.365-17.686-3.501-0.732 0.452-1.334 0.289-1.337-0.361-0.004-0.651-2.978-2.405-6.608-3.899-3.632-1.493-8.971-4.322-11.87-6.288-7.764-5.27-7.341-3.52 1.522 6.273 7.853 8.679 29.879 22.245 32.992 20.322 0.726-0.448 1.74-0.135 2.254 0.695s1.575 1.113 2.359 0.63c0.784-0.485 2.375-0.094 3.538 0.87 1.161 0.964 3.166 1.348 4.455 0.853 1.29-0.494 3.109-0.413 4.042 0.182 2.409 1.534 31.612 1.692 32.549 0.175 0.428-0.691 2.312-0.873 4.185-0.402s3.854 0.133 4.399-0.75c0.546-0.883 1.55-1.261 2.231-0.839 0.682 0.421 3.106 0.002 5.385-0.932 2.281-0.933 5.384-1.934 6.896-2.224 20.068-3.851 48.384-33.438 48.384-50.555 0-3.038 0.508-5.522 1.13-5.522s1.13-2.963 1.13-6.583c0-3.621-0.671-6.583-1.49-6.583s-1.139-1.481-0.709-3.291c0.848-3.568-2.682-15.698-8.618-29.623-15.079-35.371 13.671-37.87 32.302-2.807 29.711 55.914-8.313 122.615-80.919 141.939-13.565 3.611-44.080 6.709-47.78 4.851zM255.313 458.012c-1.287-4.056-12.355-13.662-14.702-12.763-1.087 0.417-2.196 0.094-2.468-0.717-0.27-0.812-6.072-1.987-12.894-2.61-13.527-1.239-17.925-3.018-31.877-12.896-25.883-18.327-23.468-35.097 6.465-44.875 12.177-3.978 18.725-14.348 23.191-36.722 6.796-34.054 28.094-76.891 46.8-94.134 8.837-8.146 11.706-7.666 11.974 2.005 0.439 15.795 0.322 15.329 3.793 15.329 3.654 0 19.141-5.978 19.899-7.68 0.795-1.788 11.946-1.269 11.946 0.557 0 1.077 1.802 1.362 5.154 0.818 2.834-0.459 4.815-0.291 4.403 0.376-0.675 1.092 7.033 2.863 16.774 3.856 2.012 0.205 3.658 0.453 3.658 0.55 0 0.223 28.656 10.188 30.882 10.74 12.558 3.117 45.421 23.761 44.089 27.697-0.904 2.666-16.717 2.060-23.2-0.889-1.296-0.59-3.928-1.278-5.851-1.529s-5.326-1.194-7.562-2.096c-2.236-0.902-5.527-1.641-7.314-1.642s-9.337-0.197-16.781-0.436c-7.442-0.238-13.531 0.061-13.531 0.668 0 0.606-0.966 0.729-2.148 0.276-8.848-3.394-26.659 12.919-34.837 31.909-2.752 6.39-5.595 11.673-6.318 11.74-2.854 0.265-10.904-18.797-12.64-29.933-0.973-6.236-2.268-11.337-2.878-11.337-0.612 0-0.75-4.115-0.307-9.143l0.804-9.143-4.301 4.846c-28.656 32.291-25.654 91.531 7.1 140.070 8.575 12.708 8.75 16.429 0.995 21.159-12.749 7.776-36.563 11.473-38.317 5.948zM343.771 376.147c-20.697-6.868-26.715-18.327-18.235-34.717 4.083-7.891 12.581-16.301 17.792-17.609 1.842-0.462 3.044-1.334 2.671-1.936s0.95-0.785 2.937-0.405c2.096 0.401 3.613 0.005 3.613-0.943 0-1.92 5.318-2.216 6.466-0.358 0.434 0.7 2.862 1.688 5.397 2.195 11.301 2.26 43.726 26.137 43.726 32.201 0 13.769-43.719 28.423-64.366 21.573zM184.844 362.332c-38.269-41.145-58.888-142.911-40.809-201.417 1.119-3.621 3.148-10.533 4.508-15.36l2.473-8.777 5.015 13.165c8.852 23.242 17.874 38.743 43.085 74.022 34.411 48.159 35.493 50.928 25.415 65.052-11.728 16.435-22.147 48.877-15.707 48.909 0.948 0.004 1.293 10.329 0.594 17.802-0.311 3.335-6.298 10.167-11.624 13.267l-4.38 2.55-8.57-9.214zM47.056 313.227c0.267-0.708 5.023-10.203 10.566-21.102 5.544-10.898 10.151-21.774 10.24-24.169s0.584-4.095 1.101-3.778c0.97 0.595 7.252-20.705 8.022-27.196 1.794-15.15 2.432-25.783 2.806-46.811 0.433-24.257 0.999-32.51 2.511-36.572 0.45-1.206 1.906-6.802 3.237-12.434 4.091-17.317 16.121-40.825 23.278-45.488 3.31-2.156 15.562-13.592 27.23-25.413 20.933-21.212 31.51-30.466 33.052-28.923 2.661 2.661-10.364 33.244-26.766 62.844-13.411 24.201-13.523 24.812-14.481 78.671-0.719 40.412-1.111 49-2.401 52.662-0.425 1.207-1.487 5.617-2.359 9.798-4.782 22.915-19.588 38.167-57.81 59.555-17.782 9.95-19.050 10.53-18.226 8.354zM441.743 302.88c-0.022-0.44-2.639-2.402-5.817-4.363-3.178-1.959-9.033-7.554-13.011-12.434-14.759-18.098-18.18-20.595-27.981-20.413-4.909 0.091-8.301-0.418-7.832-1.179 0.469-0.756-2.885-1.28-7.719-1.203-8.882 0.142-24.623-1.572-39.917-4.346-15.627-2.834-35.993-12.553-53.548-25.554-1.647-1.221-6.584-2.882-10.971-3.693-10.397-1.923-16.022-7.611-16.022-16.206 0-5.841 0.043-5.888 4.754-5.089 2.615 0.443 13.312 2.106 23.771 3.694 20.973 3.186 26.594 4.164 30.238 5.261 1.344 0.404 3.813 1.037 5.486 1.406 1.673 0.368 4.524 1.058 6.334 1.532s4.289 1 5.51 1.166c1.221 0.168 3.076 0.832 4.12 1.478 1.046 0.647 2.29 0.785 2.766 0.309s1.704-0.168 2.729 0.682c1.026 0.851 4.21 1.669 7.077 1.817 2.866 0.147 5.214 0.839 5.219 1.536s1.324 0.924 2.933 0.503 2.926-0.169 2.926 0.56c0 0.729 1.354 1.326 3.012 1.326 2.005 0 2.654-0.612 1.943-1.829-0.589-1.005 0.283-0.644 1.935 0.803 2.029 1.776 4.197 2.332 6.675 1.71 2.121-0.533 4.1-0.224 4.69 0.731 0.663 1.074 3.278 1.313 7.474 0.683 4.344-0.651 6.452-0.435 6.452 0.662 0 0.955 2.723 1.63 6.583 1.63 3.621 0 6.583-0.586 6.583-1.3 0-0.716 1.152-1.209 2.56-1.097 2.238 0.177 2.512-1.026 2.171-9.565-0.469-11.738 0.591-12.459 14.583-9.935 27.171 4.904 47.978 26.509 47.978 49.817 0 14.294-4.253 19.115-17.704 20.068-5.148 0.365-9.873 1.401-10.498 2.304-1.427 2.055 0.166 14.18 2.186 16.633 0.828 1.006 1.26 1.913 0.96 2.018-1.838 0.636-8.596 0.542-8.63-0.12zM499.735 265.857c-12.226-30.678-46.334-68.064-56.411-61.837-0.848 0.524-1.541 0.327-1.541-0.439 0-1.412-12.913-4.839-28.099-7.459-30.063-5.185-68.591-53.797-59.423-74.976 3.64-8.412 20.229-17.786 20.229-11.432 0 0.804 1.293 1.463 2.871 1.463 22.928 0 99.529 59.805 118.975 92.891 12.897 21.942 17.147 44.111 12.062 62.902-3.212 11.865-3.506 11.827-8.663-1.113zM236.066 245.706c-0.905-1.982-8.184-11.831-16.177-21.888-48.276-60.759-59.632-81.875-59.399-110.446 0.562-69.022 67.27-96.505 75.922-31.278 0.521 3.927 1.389 7.141 1.928 7.141 0.54 0 0.713 2.3 0.384 5.113-0.327 2.812-0.077 6.268 0.56 7.68s0.963 11.289 0.726 21.95c-0.345 15.587-0.040 19.387 1.564 19.405 1.55 0.018 1.506 0.343-0.202 1.463-1.423 0.935-1.662 1.825-0.681 2.537 1.987 1.442 2.242 10.606 0.294 10.606-1.015 0-1.252 11.241-0.726 34.377 0.43 18.908 0.226 34.377-0.454 34.377s-1.427 5.078-1.662 11.283c-0.368 9.709-0.656 10.779-2.075 7.68zM394.309 219.54c-1.183-1.913-14.444-6.13-19.753-6.281-2.449-0.070-4.453-0.729-4.453-1.466s-1.261-0.938-2.803-0.45c-1.541 0.489-3.25 0.165-3.796-0.719s-2.413-1.472-4.146-1.305c-1.733 0.168-4.313-0.197-5.733-0.809-1.421-0.613-3.889-0.773-5.486-0.354-1.598 0.418-2.904 0.073-2.904-0.765 0-0.966-2.414-1.194-6.583-0.622-4.385 0.601-6.582 0.361-6.582-0.721 0-1.072-1.981-1.305-5.852-0.686-3.218 0.514-5.851 0.368-5.851-0.329 0-0.695-6.748-1.719-14.995-2.274-35.495-2.39-44.736-8.010-47.539-28.908-0.414-3.092-1.161-5.623-1.659-5.625-0.496-0.002-0.904-14.75-0.904-32.776 0-18.025 0.493-32.467 1.097-32.094s1.097-3.218 1.097-7.981c0-20.555 4.196-27.282 13.699-21.964 1.12 0.627 5.077 1.316 8.791 1.532s6.756 0.726 6.76 1.133c0.004 0.409 2.806 1.598 6.224 2.644 10.010 3.065 21.069 11.243 26.586 19.664 4.474 6.826 6.659 12.846 12.346 34.002 2.743 10.204 15.531 28.685 32.394 46.811 8.982 9.655 20.059 22.163 24.617 27.795s8.779 10.459 9.384 10.728c0.603 0.267 1.097 1.091 1.097 1.828 0 1.747-3.969 1.74-5.051-0.010zM491.52 148.48c0-1.206-0.728-2.194-1.618-2.194s-2.806-1.509-4.257-3.355c-2.202-2.8-26.651-16.851-30.3-17.416-3.454-0.534-6.248-1.63-6.248-2.449 0-1.695-8.813-4.874-11.089-4.002-1.269 0.488-1.844 0.233-1.335-0.59 0.491-0.796-0.462-1.447-2.118-1.447s-3.012-0.728-3.012-1.619c0-0.891-0.988-1.24-2.194-0.777-1.207 0.462-2.195 0.094-2.195-0.819s-0.433-1.228-0.962-0.699c-0.529 0.53-1.68 0.398-2.56-0.292-1.421-1.118-17.346-7.372-19.142-7.519-1.010-0.083-5.002-1.408-11.346-3.766-3.017-1.123-5.486-1.636-5.486-1.142s-0.823 0.247-1.828-0.549c-1.006-0.796-5.45-2.618-9.875-4.046-10.78-3.481-21.307-9.060-26.878-14.244-5.704-5.308-23.18-13.801-30.709-14.923-3.111-0.464-6.276-1.226-7.033-1.693-2.37-1.466-8.524-1.697-8.524-0.322 0 0.722-1.316 0.608-2.925-0.253s-2.926-1.283-2.926-0.937c0 0.346-2.304 0.109-5.12-0.526-3.008-0.678-5.12-0.594-5.12 0.206 0 0.748-1.433 0.594-3.183-0.343s-6.493-1.962-10.539-2.279c-4.045-0.316-7.805-1.303-8.356-2.192s-1.682-1.195-2.517-0.681c-1.948 1.204-9.043-1.994-9.072-4.089-0.013-0.877-0.661-0.606-1.441 0.601-1.26 1.95-1.419 1.95-1.44-0.002-0.013-1.209-3.1-3.83-6.861-5.824-3.762-1.995-10.46-7.081-14.887-11.298-4.426-4.219-8.425-7.851-8.887-8.073s-3.111-3.693-5.886-7.716c-2.776-4.023-6.338-8.471-7.916-9.884-4.903-4.392-1.243-4.782 9.736-1.037 5.797 1.976 10.87 3.634 11.272 3.683 3.843 0.466 11.123 2.721 11.704 3.627 0.402 0.627 3.806 1.462 7.565 1.853s7.707 1.257 8.775 1.924c3.346 2.087 7.332 2.214 6.313 0.204-0.51-1.009 0.046-0.639 1.238 0.82 1.296 1.589 4.721 2.889 8.519 3.238 3.495 0.32 7.998 0.954 10.011 1.406 2.011 0.453 5.961 1.132 8.777 1.508 2.816 0.377 8.082 1.281 11.703 2.011 3.62 0.728 9.216 1.704 12.434 2.168s13.092 2.11 21.943 3.654c8.85 1.545 16.585 2.509 17.188 2.142 0.604-0.366 1.097 0.139 1.097 1.127 0 0.986 0.416 1.377 0.924 0.869s2.154-0.266 3.657 0.539c1.649 0.882 2.734 0.916 2.734 0.086 0-0.758 1.316-1.033 2.925-0.613s2.926 1.305 2.926 1.967c0 0.661 1.152 1.17 2.56 1.133 3.563-0.096 17.781 2.916 19.862 4.207 0.943 0.585 3.033 1.135 4.642 1.221 4.764 0.257 10.971 2.356 10.971 3.711 0 0.692 0.988 0.88 2.195 0.418 1.207-0.464 2.194-0.217 2.194 0.546s2.75 2.212 6.112 3.219c3.361 1.006 7.527 2.759 9.26 3.894 1.731 1.134 3.589 1.622 4.128 1.082 0.539-0.539 0.981-0.173 0.981 0.813 0 0.987 0.658 1.386 1.463 0.889 0.804-0.498 1.463-0.256 1.463 0.538s0.823 1.655 1.828 1.915c3.325 0.86 20.079 10.692 20.098 11.794 0.028 1.756 4.93 6.964 6.56 6.969 2.389 0.009 14.726 16.138 18.18 23.767 1.729 3.821 3.733 6.948 4.45 6.948 0.719 0 3.104 5.431 5.302 12.069 2.198 6.637 4.485 12.265 5.084 12.505 0.601 0.24 0.754 1.721 0.344 3.291-0.412 1.573-0.014 2.856 0.886 2.856 0.899 0 1.634 0.988 1.634 2.194 0 1.22-1.299 2.195-2.925 2.195s-2.926-0.976-2.926-2.195zM64.73 80.389c-15.703-3.137-30.531-14.485-51.458-39.379-12.7-15.109-15.133-19.067-11.723-19.067 0.853 0 1.189 0.584 0.749 1.296-0.442 0.713 2.976 1.803 7.593 2.425 4.617 0.62 10.040 1.351 12.052 1.623 2.011 0.272 10.24 1.865 18.286 3.539 21.794 4.534 61.712 2.144 58.233-3.486-0.504-0.818-0.166-1.006 0.768-0.429 1.385 0.856 23.041-7.785 40.333-16.094 15.078-7.245 21.573 3.966 11.108 19.177-22.365 32.508-61.273 55.322-85.941 50.394zM291.109 16.052c-42.281-4.973-60.862-12.293-67.214-26.482-1.392-3.106-2.8-5.373-3.132-5.038s-0.381-4.007-0.112-9.652l0.49-10.262 12.674 0.678c6.972 0.374 13.662 1.065 14.87 1.536 2.776 1.084 56.839 7.786 72.411 8.978 33.938 2.594 87.56-1.879 104.96-8.757 6.875-2.717 0.732 2.597-14.702 12.721-13.82 9.066-48.374 28.159-51.492 28.452-0.402 0.038-5.010 1.483-10.24 3.21-17.163 5.671-36.541 7.2-58.514 4.615z" />
<glyph unicode="&#xe130;" glyph-name="quote-left" d="M160.028 434.238c-33.785-17.881-74.695-55.338-96.887-88.708-50.999-76.685-75.504-216.807-48.238-275.821 48.915-105.873 204.924-87.748 228.575 26.555 17.742 85.742-64.085 163.856-147.924 141.212-4.748-1.283-8.632-2.16-8.632-1.951 0 25.365 29.79 102.147 62.125 160.125 24.692 44.274 25.219 46.122 10.982 38.587zM425.656 434.813c-6.117-3.24-33.94-22.939-47.12-33.361-65.225-51.577-106.154-149.858-109.070-261.901-1.358-52.185 7.87-78.825 36.988-106.78 68.644-65.901 182.84-29.873 201.91 63.699 17.549 86.116-62.855 163.065-147.408 141.074l-8.757-2.277 0.764 4.88c6.372 40.695 28.733 97.595 60.88 154.908 23.837 42.501 25.115 46.802 11.813 39.757z" />
<glyph unicode="&#xe131;" glyph-name="quote-right" d="M351.972 4.619c33.786 17.882 74.695 55.338 96.887 88.708 50.999 76.685 75.504 216.806 48.238 275.821-48.915 105.873-204.924 87.748-228.575-26.555-17.742-85.742 64.084-163.856 147.925-141.212 4.748 1.283 8.632 2.159 8.632 1.95 0-25.365-29.789-102.147-62.125-160.125-24.692-44.274-25.219-46.122-10.983-38.587zM86.344 4.044c6.117 3.24 33.941 22.939 47.12 33.361 65.225 51.577 106.154 149.858 109.070 261.901 1.358 52.185-7.869 78.825-36.988 106.78-68.644 65.901-182.84 29.873-201.91-63.699-17.549-86.116 62.855-163.065 147.407-141.074l8.756 2.277-0.764-4.88c-6.372-40.695-28.733-97.595-60.88-154.908-23.838-42.501-25.115-46.802-11.813-39.757z" />
<glyph unicode="&#xe160;" glyph-name="seta-topo-direita-especial" d="M59.561 390.178c-3.144-5.488-3.728-10.165-2.030-16.223 1.337-4.766 1.273-9.627-0.144-11.043-1.467-1.467-4.178 3.304-6.45 11.351-4.455 15.769-10.82 19.031-16.484 8.447-2.102-3.928-7.424-7.913-11.873-8.891-5.010-1.099-10.402-5.554-14.238-11.76l-6.175-9.989 7.341-26.276c10.318-36.934 13.856-51.75 12.829-53.724-0.488-0.938 0.881-3.835 3.040-6.436 2.158-2.602 2.976-4.731 1.817-4.731-1.161 0-0.234-2.896 2.057-6.436 2.293-3.539 5.118-10.296 6.281-15.017 5.042-20.467 64.077-92.96 75.702-92.96 1.267 0 5.272-2.574 8.9-5.721 3.627-3.146 8.329-5.721 10.448-5.721s3.853-1.125 3.853-2.501c0-12.654 103.767-19.887 130.145-9.072 4.719 1.935 11.692 4.108 15.493 4.827 15.238 2.887 57.976 21.31 78.904 34.014 23.962 14.546 24.247 14.757 53.18 39.234 22.991 19.451 23.319 19.538 21.395 5.721-5.188-37.26-8.214-149.17-4.21-155.649 2.257-3.649 11.147 5.157 11.147 11.041 0 3.56 0.823 3.754 4.165 0.981 5.923-4.915 9.363-1.702 11.459 10.695 1.863 11.034 7.132 22.466 7.216 15.658 0.024-1.967 3.237-3.577 7.14-3.577 7.658 0 8.342 1.61 11.546 27.173 0.986 7.867 2.336 18.163 3 22.884 0.664 4.719 1.82 14.858 2.567 22.531 0.749 7.673 2.759 24.406 4.467 37.184 3.062 22.897 4.226 30.68 7.108 47.493 0.804 4.688 2.046 14.021 2.76 20.738s3.267 25.083 5.673 40.814c11.078 72.441 5.255 81.418-39.163 60.389-87.448-41.403-198.532-64.513-255.364-53.127-6.623 1.326-9.394-0.526-10.655-7.122-2.119-11.079 10.621-27.144 23.102-29.133 5.837-0.929 7.294-3.518 8.816-15.658 0.202-1.615 9.829-3.338 43.125-7.714 21.017-2.764 86.238-1.636 100.034 1.729 18.313 4.466 17.48 3.363-12.019-15.911-38.118-24.905-65.545-36.85-113.757-49.543-57.575-15.159-101.17 2.985-127.737 53.163-13.508 25.514-21.001 41.581-21.001 45.033 0 2.134-1.083 5.102-2.407 6.596-1.323 1.495-5.278 12.371-8.786 24.17-24.704 83.072-25.235 84.258-32.218 72.068z" />
<glyph unicode="&#xe161;" glyph-name="seta-baixo-direita-especial" d="M426.072 383.516c-3.288-10.419 0.554-124.606 5.211-154.843 1.879-12.205 1.12-11.952-21.414 7.111-28.772 24.341-29.056 24.55-52.885 39.016-20.813 12.633-63.312 30.954-78.466 33.825-3.78 0.717-10.714 2.876-15.406 4.802-26.233 10.755-129.423 3.562-129.423-9.022 0-1.369-1.724-2.488-3.831-2.488s-6.782-2.56-10.391-5.689c-3.607-3.128-7.589-5.688-8.849-5.688-11.562 0-70.268-72.091-75.282-92.445-1.156-4.692-3.923-11.346-6.148-14.783-2.224-3.438-3.942-6.958-3.817-7.822 0.127-0.865 0.069-2.213-0.127-2.995s-0.546-2.382-0.779-3.555c-1.058-5.319-8.345-32.858-15.008-56.708l-7.3-26.13 6.139-9.934c3.815-6.172 9.178-10.602 14.159-11.695 4.424-0.973 9.716-4.935 11.808-8.842 5.632-10.524 11.962-7.281 16.39 8.401 2.314 8.19 4.942 12.762 6.462 11.241 1.507-1.507 1.523-6.185 0.039-11.36-1.944-6.777-1.352-10.584 2.587-16.586 7.010-10.685 6.356-12.185 31.532 72.546 3.487 11.734 7.415 22.55 8.732 24.036s2.394 4.438 2.394 6.56c0 3.433 7.451 19.41 20.885 44.782 26.419 49.899 69.771 67.943 127.027 52.868 47.944-12.624 75.218-24.502 113.125-49.269 29.334-19.166 30.163-20.262 11.952-15.821-13.721 3.346-78.578 4.467-99.478 1.719-33.111-4.352-42.684-6.065-42.885-7.671-1.512-12.073-2.962-14.647-8.766-15.572-12.413-1.978-25.082-17.952-22.975-28.97 1.253-6.56 4.009-8.402 10.595-7.082 56.517 11.322 166.984-11.659 253.946-52.832 31.557-14.942 32.752-15.036 40.073-3.192 5.615 9.088 3.897 45.707-3.839 81.735-0.839 3.911-2.132 13.214-2.873 20.676s-1.945 17.061-2.675 21.334c-2.954 17.28-4.24 25.851-7.195 47.94-1.699 12.707-3.698 29.346-4.442 36.976s-1.893 17.714-2.553 22.406c-0.661 4.694-2.003 14.934-2.983 22.756-3.186 25.421-3.865 27.022-11.481 27.022-3.881 0-7.076-1.6-7.1-3.556-0.083-6.769-5.321 4.599-7.175 15.572-2.048 12.125-5.5 15.528-11.067 10.908-2.974-2.469-4.195-1.653-5.54 3.707-1.893 7.542-9.209 11.978-10.902 6.611z" />
<glyph unicode="&#xe162;" glyph-name="seta-cima-esquerda-especial" d="M444.45 393.996c-2.538-5.007-8.932-25.221-23.725-75.012-3.486-11.734-7.415-22.55-8.732-24.036-1.316-1.486-2.394-4.438-2.394-6.56 0-3.433-7.451-19.41-20.885-44.782-26.419-49.899-69.772-67.943-127.027-52.868-47.944 12.623-75.218 24.502-113.125 49.269-29.334 19.166-30.163 20.262-11.952 15.821 13.72-3.346 78.578-4.467 99.478-1.719 33.111 4.352 42.684 6.065 42.885 7.671 1.512 12.073 2.962 14.647 8.765 15.572 12.413 1.978 25.082 17.952 22.974 28.97-1.253 6.56-4.009 8.402-10.594 7.082-56.517-11.322-166.983 11.659-253.946 52.832-31.557 14.942-32.752 15.036-40.073 3.192-5.615-9.088-3.897-45.708 3.838-81.735 0.839-3.911 2.133-13.214 2.873-20.676s1.945-17.061 2.675-21.334c2.954-17.28 4.241-25.851 7.195-47.94 1.698-12.707 3.698-29.346 4.441-36.976s1.893-17.714 2.553-22.406c0.66-4.694 2.003-14.934 2.983-22.756 3.186-25.421 3.865-27.022 11.481-27.022 3.881 0 7.076 1.6 7.1 3.556 0.083 6.769 5.321-4.599 7.175-15.572 2.083-12.329 5.505-15.524 11.395-10.635 3.323 2.759 4.142 2.565 4.142-0.974 0-5.852 8.842-14.61 11.085-10.98 3.984 6.444 0.973 117.731-4.186 154.784-1.913 13.741-1.588 13.654 21.276-5.69 28.772-24.341 29.056-24.55 52.885-39.015 20.813-12.634 63.311-30.954 78.466-33.825 3.78-0.717 10.714-2.876 15.406-4.801 26.233-10.755 129.423-3.562 129.423 9.022 0 1.368 1.724 2.488 3.831 2.488s6.783 2.56 10.391 5.688c3.607 3.128 7.589 5.688 8.849 5.688 11.562 0 70.268 72.091 75.282 92.445 1.156 4.692 3.966 11.412 6.247 14.933 2.279 3.52 3.2 6.4 2.046 6.4s-0.341 2.117 1.806 4.704c2.148 2.587 3.507 5.467 3.024 6.4-1.022 1.964 2.498 16.697 12.758 53.426l7.3 26.13-6.139 9.934c-3.815 6.172-9.178 10.602-14.159 11.696-4.423 0.973-9.716 4.935-11.808 8.842-5.632 10.524-11.962 7.28-16.39-8.401-2.314-8.19-4.942-12.762-6.462-11.241-1.507 1.507-1.523 6.185-0.039 11.36 3.31 11.538-5.769 28.178-10.394 19.051z" />
<glyph unicode="&#xe163;" glyph-name="seta-baixo-esquerda-especial" d="M78.635 382.991c-2.574-2.574-4.68-6.665-4.68-9.092 0-3.539-0.819-3.733-4.142-0.974-5.889 4.889-9.312 1.693-11.395-10.635-1.855-10.974-7.093-22.341-7.175-15.572-0.025 1.956-3.219 3.556-7.1 3.556-7.616 0-8.296-1.601-11.481-27.022-0.98-7.822-2.323-18.062-2.983-22.756-0.66-4.692-1.81-14.776-2.553-22.406s-2.743-24.27-4.441-36.976c-3.045-22.77-4.203-30.51-7.069-47.228-0.799-4.664-2.059-14.584-2.8-22.046s-2.034-16.765-2.873-20.676c-7.735-36.027-9.454-72.647-3.838-81.734 7.321-11.844 8.516-11.749 40.073 3.192 86.962 41.173 197.428 64.154 253.945 52.832 6.586-1.32 9.341 0.522 10.594 7.082 2.107 11.018-10.562 26.993-22.974 28.97-5.803 0.925-7.254 3.5-8.765 15.572-0.201 1.606-9.774 3.319-42.885 7.671-20.9 2.748-85.757 1.627-99.478-1.719-18.21-4.442-17.381-3.344 11.952 15.821 37.907 24.767 65.181 36.645 113.125 49.269 57.255 15.076 100.608-2.969 127.027-52.868 13.433-25.372 20.885-41.349 20.885-44.782 0-2.122 1.078-5.074 2.394-6.56 1.317-1.486 5.245-12.302 8.732-24.036 25.175-84.732 24.522-83.232 31.531-72.546 3.938 6.002 4.531 9.808 2.587 16.586-1.483 5.175-1.467 9.853 0.039 11.36 1.521 1.521 4.149-3.050 6.462-11.241 4.429-15.681 10.759-18.925 16.39-8.401 2.091 3.906 7.385 7.87 11.808 8.842 4.982 1.093 10.345 5.523 14.159 11.695l6.139 9.934-7.3 26.13c-7.546 27.010-14.5 53.51-14.695 55.996-0.063 0.782-1.129 3.022-2.37 4.978s-1.394 3.556-0.341 3.556c1.055 0 0.053 2.88-2.226 6.4s-5.091 10.24-6.247 14.933c-5.014 20.355-63.719 92.445-75.282 92.445-1.26 0-5.241 2.56-8.849 5.688-3.608 3.129-8.284 5.689-10.391 5.689s-3.831 1.12-3.831 2.488c0 12.584-103.191 19.776-129.423 9.022-4.692-1.925-11.626-4.084-15.406-4.802-15.155-2.871-57.654-21.191-78.466-33.825-23.828-14.466-24.113-14.675-52.885-39.016-22.864-19.343-23.19-19.43-21.276-5.69 5.159 37.054 8.169 148.341 4.186 154.784-1.016 1.646-3.647 0.872-6.405-1.888z" />
<glyph unicode="&#xe164;" glyph-name="seta-esquerda-cima-especial" d="M106.547 469.332c-11.85-7.529-11.763-8.615 3.254-40.334 41.403-87.45 64.514-198.533 53.127-255.365-1.326-6.622 0.526-9.392 7.122-10.654 11.079-2.117 27.143 10.622 29.133 23.104 0.929 5.837 3.518 7.293 15.658 8.815 1.615 0.202 3.338 9.828 7.714 43.123 2.763 21.017 1.636 86.238-1.73 100.034-4.466 18.311-3.363 17.478 15.911-12.019 24.905-38.12 36.85-65.546 49.544-113.759 15.159-57.575-2.985-101.168-53.163-127.736-25.514-13.508-41.581-21.001-45.033-21.001-2.134 0-5.102-1.083-6.596-2.406-1.495-1.324-12.371-5.275-24.17-8.781-85.206-25.316-83.697-24.661-72.953-31.708 6.037-3.961 9.864-4.557 16.68-2.602 5.203 1.493 9.907 1.476 11.424-0.039 1.528-1.529-3.068-4.171-11.305-6.498-15.769-4.454-19.031-10.819-8.447-16.483 3.928-2.103 7.913-7.425 8.891-11.875 1.1-5.009 5.554-10.402 11.761-14.238l9.989-6.175 26.276 7.341c27.163 7.588 53.81 14.582 56.31 14.779 0.786 0.063 3.038 1.134 5.005 2.384 1.968 1.248 3.577 1.403 3.577 0.342 0-1.060 2.895-0.053 6.436 2.24 3.539 2.291 10.297 5.118 15.017 6.279 20.467 5.042 92.96 64.077 92.96 75.703 0 1.266 2.574 5.271 5.721 8.899 3.146 3.627 5.721 8.33 5.721 10.449s1.125 3.853 2.501 3.853c12.654 0 19.887 103.767 9.072 130.145-1.935 4.72-4.108 11.692-4.827 15.493-2.887 15.24-21.31 57.977-34.014 78.906-14.546 23.962-14.757 24.247-39.234 53.179-19.451 22.993-19.538 23.319-5.721 21.395 37.26-5.186 149.17-8.214 155.649-4.21 3.649 2.257-5.157 11.148-11.041 11.148-3.56 0-3.754 0.823-0.981 4.166 4.915 5.921 1.702 9.363-10.695 11.457-11.034 1.865-22.466 7.132-15.658 7.216 1.967 0.024 3.577 3.237 3.577 7.141 0 7.657-1.61 8.342-27.173 11.546-7.867 0.986-18.163 2.334-22.884 3-4.719 0.664-14.858 1.819-22.531 2.567-21.863 2.131-60.118 7.352-84.211 11.493-5.22 0.897-14.23 2.118-20.023 2.714-5.792 0.595-25.333 3.154-43.424 5.686-18.093 2.531-37.399 5.185-42.906 5.897-6.933 0.898-12.871-0.521-19.308-4.611z" />
<glyph unicode="&#xe165;" glyph-name="seta-direita-cima-especial" d="M384.716 473.5c-4.719-0.59-22.74-3.094-40.045-5.565s-36.204-4.979-41.995-5.575-14.802-1.817-20.022-2.714c-24.094-4.141-62.347-9.362-84.211-11.493-7.673-0.749-17.813-1.904-22.532-2.567-4.72-0.666-15.017-2.014-22.882-3-25.563-3.204-27.173-3.889-27.173-11.546 0-3.904 1.609-7.117 3.575-7.141 6.809-0.083-4.624-5.35-15.658-7.215-12.398-2.094-15.611-5.536-10.695-11.457 2.774-3.344 2.581-4.167-0.979-4.167-5.885 0-14.692-8.891-11.041-11.147 6.48-4.004 118.388-0.977 155.648 4.21 13.819 1.924 13.73 1.597-5.72-21.395-24.477-28.932-24.688-29.218-39.233-53.179-12.706-20.929-31.129-63.666-34.014-78.905-0.72-3.802-2.893-10.774-4.828-15.493-10.815-26.378-3.582-130.145 9.071-130.145 1.376 0 2.502-1.733 2.502-3.853 0-2.118 2.574-6.821 5.72-10.449s5.72-7.632 5.72-8.899c0-11.626 72.494-70.661 92.962-75.703 4.719-1.162 11.155-3.777 14.301-5.811 3.146-2.035 6.687-3.762 7.867-3.839 1.179-0.077 2.788-0.301 3.575-0.497 0.786-0.197 2.395-0.549 3.575-0.784 5.348-1.063 33.041-8.392 57.024-15.092l26.276-7.341 9.99 6.175c6.205 3.835 10.661 9.229 11.76 14.238 0.978 4.45 4.962 9.772 8.891 11.875 10.583 5.664 7.322 12.028-8.448 16.483-8.237 2.326-12.834 4.969-11.303 6.498 1.515 1.515 6.219 1.532 11.424 0.039 6.816-1.954 10.643-1.358 16.678 2.602 10.745 7.048 12.255 6.392-72.951 31.708-11.799 3.506-22.675 7.457-24.17 8.781s-4.464 2.406-6.596 2.406c-3.454 0-19.52 7.493-45.033 21.001-50.178 26.567-68.324 70.162-53.163 127.736 12.694 48.212 24.638 75.639 49.543 113.758 19.273 29.498 20.375 30.331 15.909 12.019-3.365-13.797-4.493-79.017-1.729-100.034 4.377-33.296 6.099-42.921 7.714-43.123 12.141-1.522 14.73-2.978 15.659-8.815 1.989-12.483 18.052-25.221 29.133-23.104 6.596 1.262 8.448 4.034 7.122 10.654-11.385 56.832 11.725 167.916 53.127 255.365 6.903 14.579 12.55 28.311 12.55 30.515 0 4.068-17.17 16.272-21.791 15.486-1.387-0.236-6.384-0.911-11.103-1.5z" />
<glyph unicode="&#xe166;" glyph-name="seta-esquerda-baixo-especial" d="M111.836 466.689c-5.266-3.373-9.785-9.132-10.803-13.767-0.963-4.382-4.936-9.673-8.831-11.757-10.524-5.632-7.281-11.962 8.4-16.39 8.191-2.314 12.761-4.942 11.241-6.463-1.507-1.506-6.185-1.523-11.36-0.039-6.778 1.945-10.585 1.351-16.586-2.587-10.686-7.010-12.186-6.357 72.547-31.531 11.734-3.487 22.55-7.415 24.036-8.732 1.486-1.316 4.438-2.393 6.56-2.393 3.433 0 19.41-7.451 44.782-20.885 49.899-26.419 67.943-69.772 52.868-127.027-12.623-47.943-24.502-75.218-49.269-113.125-19.166-29.334-20.262-30.163-15.821-11.952 3.346 13.721 4.467 78.578 1.719 99.478-4.352 33.111-6.065 42.684-7.671 42.885-12.073 1.512-14.647 2.962-15.572 8.765-1.977 12.413-17.952 25.082-28.97 22.975-6.56-1.253-8.402-4.009-7.082-10.595 11.322-56.517-11.66-166.983-52.832-253.945-14.942-31.557-15.036-32.752-3.192-40.073 9.088-5.615 45.708-3.897 81.734 3.839 3.911 0.839 13.214 2.132 20.676 2.873s17.701 2.058 22.756 2.926c23.751 4.079 61.875 9.279 83.495 11.385 7.63 0.743 17.714 1.893 22.406 2.553 4.694 0.661 14.934 2.003 22.756 2.983 25.421 3.186 27.022 3.865 27.022 11.481 0 3.881-1.6 7.076-3.556 7.1-6.769 0.083 4.599 5.321 15.572 7.175 12.329 2.082 15.524 5.505 10.635 11.394-2.759 3.323-2.565 4.142 0.974 4.142 5.852 0 14.61 8.842 10.98 11.085-6.444 3.983-117.731 0.973-154.784-4.185-13.741-1.913-13.654-1.589 5.69 21.276 24.341 28.772 24.55 29.056 39.015 52.885 12.634 20.813 30.954 63.312 33.825 78.466 0.717 3.78 2.876 10.714 4.801 15.406 10.755 26.233 3.562 129.423-9.022 129.423-1.368 0-2.488 1.724-2.488 3.831s-2.56 6.783-5.688 10.391c-3.128 3.607-5.688 7.589-5.688 8.849 0 11.562-72.091 70.268-92.445 75.282-4.692 1.156-11.676 4.139-15.518 6.63-3.843 2.49-7.363 4.208-7.822 3.817-0.461-0.391-1.157-0.613-1.548-0.494-0.392 0.12-2.631 0.638-4.978 1.152-12.279 2.69-35.259 8.732-55.879 14.69-27.785 8.031-25.864 7.989-37.085 0.8z" />
<glyph unicode="&#xe167;" glyph-name="seta-direita-baixo-especial" d="M361.244 465.61c-19.040-5.709-44.841-12.571-52.622-13.998-1.564-0.286-4.444-1.521-6.4-2.742s-3.556-1.358-3.556-0.305c0 1.055-2.88 0.053-6.4-2.226s-10.24-5.090-14.933-6.246c-20.355-5.014-92.445-63.719-92.445-75.282 0-1.26-2.56-5.242-5.689-8.849-3.129-3.609-5.689-8.284-5.689-10.391s-1.12-3.831-2.488-3.831c-12.584 0-19.776-103.191-9.022-129.423 1.925-4.692 4.084-11.626 4.802-15.406 2.871-15.155 21.191-57.654 33.826-78.466 14.465-23.829 14.675-24.113 39.016-52.885 19.343-22.865 19.431-23.19 5.69-21.276-37.054 5.159-148.34 8.169-154.784 4.185-3.63-2.243 5.127-11.085 10.98-11.085 3.539 0 3.733-0.819 0.974-4.142-4.888-5.889-1.694-9.312 10.636-11.394 10.974-1.854 22.341-7.092 15.572-7.175-1.956-0.024-3.556-3.219-3.556-7.1 0-7.616 1.602-8.296 27.022-11.481 7.822-0.981 18.062-2.323 22.756-2.983 4.692-0.661 14.776-1.81 22.406-2.553 21.619-2.107 59.742-7.306 83.494-11.385 5.055-0.868 15.295-2.185 22.756-2.926s16.765-2.034 20.676-2.873c36.027-7.735 72.647-9.454 81.734-3.839 11.844 7.32 11.749 8.516-3.192 40.073-41.173 86.962-64.154 197.428-52.832 253.945 1.32 6.586-0.522 9.341-7.082 10.595-11.018 2.107-26.993-10.562-28.97-22.975-0.925-5.803-3.5-7.254-15.572-8.765-1.606-0.201-3.319-9.774-7.671-42.885-2.748-20.9-1.627-85.757 1.719-99.478 4.442-18.211 3.344-17.381-15.821 11.952-24.767 37.907-36.645 65.182-49.269 113.125-15.076 57.255 2.969 100.608 52.868 127.027 25.372 13.433 41.349 20.885 44.782 20.885 2.122 0 5.074 1.078 6.56 2.394 1.486 1.317 12.302 5.245 24.036 8.732 84.732 25.175 83.232 24.522 72.546 31.531-6.002 3.939-9.808 4.531-16.586 2.587-5.175-1.483-9.853-1.467-11.36 0.039-1.521 1.521 3.050 4.149 11.241 6.462 15.681 4.429 18.925 10.759 8.401 16.391-3.906 2.091-7.87 7.385-8.842 11.808-3.966 18.061-18.93 21.863-49.712 12.636z" />
<glyph unicode="&#xe168;" glyph-name="dual-heart" d="M67.749 454.354c-15.514-5.065-33.756-16.457-40.856-25.514-1.422-1.815-3.465-4.155-4.54-5.201-2.505-2.437-13.043-19.652-13.043-21.308 0-0.691-0.886-2.796-1.968-4.677-16.916-29.408-5.849-97.319 21.632-132.728 2.838-3.657 5.161-7.031 5.161-7.498s2.131-2.923 4.737-5.459c2.605-2.537 5.361-5.776 6.123-7.197s16.13-17.248 34.149-35.168c50.358-50.077 63.065-64.469 83.859-94.976l7.983-11.711 2.388 2.92c1.315 1.605 2.406 3.429 2.427 4.051 0.020 0.623 0.968 1.975 2.106 3.005 1.138 1.029 2.069 2.298 2.069 2.818 0 1.998 18.27 27.075 25.020 34.34 2.154 2.318 3.922 4.474 3.929 4.788 0.054 2.37 8.288 9.221 8.288 6.897 0-2.344 6.994-16.002 12.363-24.147 2.871-4.354 5.22-8.141 5.22-8.413 0-2.993 23.67-28.716 55.431-60.243 16.575-16.452 32.719-33.613 40.385-42.925 7.024-8.534 13.403-16.214 14.175-17.066 0.771-0.854 4.353-6.090 7.961-11.637s7.154-10.085 7.882-10.085c1.163 0 9.666 11.582 9.666 13.168 0 0.889 8.522 12.113 9.507 12.519 0.461 0.19 0.837 0.788 0.837 1.33 0 3.517 23.339 29.532 55.106 61.421 23.83 23.921 43.379 44.965 47.563 51.2 0.954 1.422 3.136 4.448 4.848 6.723 1.712 2.276 3.542 5.069 4.065 6.207s2.61 4.803 4.635 8.146c16.503 27.228 20.531 79.053 7.834 100.777-1.099 1.881-2 3.885-2 4.45 0 5.196-20.777 28.886-29.774 33.95-33.779 19.011-65.792 15.706-92.897-9.59-4.779-4.461-8.69-8.694-8.69-9.408s-0.982-2.185-2.183-3.268c-1.2-1.084-3.57-4.72-5.267-8.079l-3.086-6.11-2.816 5.075c-6.613 11.914-19.841 26.74-27.246 30.538-4.611 2.363-4.575 2.137-1.392 8.67 15.848 32.542 17.543 77.099 4.057 106.662-31.44 68.923-117.972 74.876-156.725 10.781l-5.416-8.96-5.537 8.819c-22.491 35.823-63.389 53.405-97.969 42.114zM127.742 412.577c17.001-5.532 30.859-17.77 39.806-35.153 3.994-7.757 4.343-7.83 7.373-1.552 15.46 32.043 50.005 47.62 81.015 36.529 9.639-3.447 11.882-4.745 21.229-12.27 5.966-4.805 13.707-14.074 16.133-19.318 0.796-1.722 1.882-3.829 2.411-4.682 11.757-18.946 9.776-79.424-2.526-77.116-10.055 1.885-30.258-3.257-42.949-10.935-10.933-6.614-30.105-27.548-31.385-34.269-0.135-0.706-1.22-3.378-2.413-5.938-5.282-11.339-7.501-23.35-7.501-40.625v-13.449l-5.649-6.433c-9.078-10.341-23.62-29.322-26.547-34.652-0.781-1.422-2.305-3.623-3.387-4.889l-1.966-2.301-2.918 3.853c-1.604 2.12-2.93 4.259-2.946 4.752-0.030 0.938-4.621 6.898-17.536 22.764-8.927 10.966-15.202 17.555-41.813 43.911-23.712 23.486-38.866 40.455-46.437 52.005-32.105 48.971-25.719 106.974 14.722 133.703 3.122 2.064 6.286 3.752 7.034 3.752 0.746 0 2.648 0.667 4.225 1.482 9.939 5.141 27.695 5.491 42.023 0.83zM322.198 262.153c14.409-4.118 28.553-16.636 35.688-31.587 3.087-6.469 3.865-6.423 7.238 0.433 18.006 36.614 65.989 45.34 93.091 16.928 2.514-2.636 9.822-11.846 9.869-12.438 0.024-0.3 0.883-2.121 1.91-4.048 11.878-22.294 10.387-55.216-3.659-80.796-0.47-0.854-1.615-2.948-2.547-4.656-6.411-11.738-13.878-20.272-47.983-54.848-15.166-15.377-28.469-29.332-29.559-31.013-1.092-1.682-2.683-3.764-3.536-4.627-2.666-2.697-10.841-13.655-16.024-21.478-4.606-6.954-6.731-8.997-6.731-6.469 0 4.735-25.284 34.29-54.445 63.643-23.703 23.858-35.465 36.454-38.116 40.815-0.576 0.947-3.057 4.713-5.513 8.368-5.321 7.918-11.088 19.758-12.644 25.962-3.584 14.294-4.294 19.062-4.446 29.814-0.56 39.952 28.631 71.229 63.963 68.539 3.414-0.26 9.464-1.404 13.447-2.542z" />
<glyph unicode="&#xe200;" glyph-name="social-youtube" d="M180.043 410.055c-146.822-8.56-177.452-36.311-179.507-162.642-0.689-42.367 0.82-46.244 18.002-46.255 16.306-0.012 18.332 4.683 19.422 44.986 2.202 81.492 10.868 99.862 53.37 113.114 63.733 19.873 260.599 20.141 327.435 0.446 46.534-13.714 53.88-30.797 55.072-128.071 0.806-65.726-1.69-93.488-10.015-111.431-12.49-26.92-54.224-42.736-138.147-52.356-22.377-2.565-133.306-2.966-158.766-0.575-97.424 9.149-118.688 21.988-125.879 76.010-4.151 31.172-41.386 30.011-38.047-1.185 9.867-92.135 64.857-116.453 258.322-114.232 145.803 1.674 219.679 27.594 240.392 84.347 13.848 37.947 14.393 171.845 0.886 217.343-16.067 54.11-58.808 73.907-174.054 80.613-22.693 1.32-125.228 1.243-148.487-0.113zM212.309 309.175c-8.244-2.942-15.781-10.36-19.233-18.93-2.722-6.756-2.346-128.073 0.413-133.948 7.108-15.125 27.475-23.653 42.733-17.894 7.763 2.932 108.491 60.262 112.053 63.776 11.312 11.166 11.079 32.94-0.469 43.736-3.062 2.863-99.416 58.051-109.51 62.724-5.512 2.551-19.529 2.841-25.988 0.535zM270.848 246.824c20.417-11.469 37.768-21.448 38.559-22.176 1.115-1.026-7.192-6.152-37.12-22.902-21.208-11.868-39.715-22.313-41.13-23.209l-2.57-1.632v93.976l2.57-1.603c1.414-0.88 19.274-10.986 39.691-22.453z" />
<glyph unicode="&#xe201;" glyph-name="facebook" d="M292.5 473.874c-56.706-9.581-92.645-50.451-97.471-110.841-0.566-7.093-1.029-26.104-1.029-42.25v-29.354h-35.313c-46.684 0-41.689 6.282-41.689-52.416 0-59.207-4.93-52.978 42.232-53.382l34.733-0.298 0.535-215.772 5.874-6.131h96.825l5.802 6.212v215.704l40.75 0.292c43.889 0.315 43.565 0.275 46.44 5.647 1.026 1.918 1.31 12.418 1.31 48.379v45.93l-6.531 5.836h-82.159l0.432 31.25c0.713 51.483 0.97 51.74 52.759 52.679 43.254 0.784 39-4.741 39 50.655 0 41.326-0.205 43.664-4.128 47.319-2.832 2.639-83.339 3.081-98.372 0.542z" />
<glyph unicode="&#xe202;" glyph-name="whatsapp" d="M228.5 473.898c-177.804-23.219-275.017-217.572-186.308-372.47l2.577-4.499-22.529-66.272c-12.392-36.45-22.249-66.553-21.904-66.898s31.347 9.12 68.894 21.033c37.547 11.911 68.842 21.654 69.544 21.647 0.702-0.005 4.447-1.608 8.322-3.56 87.515-44.072 196.062-32.416 272.402 29.252 93.68 75.673 119.934 206.818 62.622 312.798-48.733 90.113-151.397 142.32-253.62 128.969zM290.959 432.855c133.491-19.601 215.51-159.599 165.756-282.931-48.692-120.699-195.524-170.041-305.168-102.548l-6.953 4.281-38.547-12.251c-21.202-6.738-39.303-12.457-40.224-12.711-1.291-0.354 1.307 8.352 11.335 37.98l13.011 38.441-5.951 9.063c-41.142 62.654-45.417 148.702-10.446 210.251 46.070 81.087 129.186 123.347 217.186 110.425zM169 339.211c-5.377-1.737-18.75-15.792-23.292-24.481-17.989-34.414-6.29-72.275 38.918-125.954 33.008-39.195 66.858-60.822 118.866-75.946 38.205-11.111 73.873 2.605 82.551 31.745 6.753 22.676 5.68 24.403-23.892 38.39-39.402 18.638-35.927 18.488-49.029 2.116-17.764-22.195-16.673-21.682-31.744-14.935-32.144 14.389-58.153 37.28-75.815 66.725-4.767 7.949-4.755 8 4.596 19.246 7.882 9.479 12.81 17.805 12.831 21.677 0.025 4.891-23.875 58.97-26.739 60.501-2.83 1.513-23.274 2.202-27.251 0.918z" />
<glyph unicode="&#xe900;" glyph-name="folha" d="M155.733 463.695c5.333-8.534 9.6-64 9.6-123.734v-108.8l-44.8-10.666c-24.534-6.4-59.733-24.534-77.867-40.534-28.8-23.466-30.933-29.866-17.067-37.334 9.6-5.334 36.267-38.4 60.8-73.6 69.334-102.4 139.733-129.067 194.134-74.666 19.2 18.134 17.067 21.334-40.534 73.6-43.733 40.534-77.867 60.8-125.867 75.733-51.2 16-58.666 21.334-34.133 21.334 60.8 1.067 110.933-21.334 169.6-74.666l59.734-54.4 10.666 28.8c5.334 14.933 10.666 34.134 10.666 40.534 0 27.733 52.267 121.6 85.334 151.466l34.134 32-37.334-55.466c-34.133-51.2-82.133-158.933-82.133-184.534 0-18.134 38.4-11.733 68.267 11.733 38.4 29.866 54.4 66.133 69.334 153.6 7.466 40.534 18.134 80 24.534 87.466 7.466 9.6 3.2 14.933-14.933 19.2-30.933 7.466-80-9.6-110.933-38.4-25.6-23.466-29.866-20.267-40.534 27.733-18.134 72.534-85.334 145.067-149.333 161.067-24.534 6.4-28.8 4.267-21.333-7.466zM245.333 358.095c33.066-64 67.2-233.6 43.734-218.666-6.4 3.2-11.733 17.067-11.733 29.866 0 37.334-30.934 146.133-58.666 210.133-27.733 60.8-8.534 44.8 26.666-21.334z" />
<glyph unicode="&#xe901;" glyph-name="imagens" d="M189.867 428.495c-73.6-6.4-138.667-16-142.934-20.267s-7.466-30.933-5.334-57.6c2.133-40.534-1.066-53.334-20.267-67.2l-23.466-17.067 53.334-117.333c39.466-88.534 56.534-116.267 72.534-116.267 12.8 0 21.334-8.534 23.466-23.466 6.4-41.6 0-41.6 258.134 35.2 50.133 14.933 94.933 30.933 99.2 36.267 9.6 8.534-52.267 251.733-69.334 273.067-4.267 6.4-20.267 9.6-34.133 7.466-23.466-5.334-26.666-1.067-29.866 35.2-4.267 50.134 2.134 49.067-181.333 32zM276.267 397.562c-2.134-2.133-46.934-21.334-99.2-43.733-100.266-42.666-112-41.6-113.067 11.733 0 21.334 6.4 23.466 93.867 29.867 51.2 3.2 98.133 8.534 103.466 9.6 11.733 4.267 22.4-2.133 14.933-7.466zM349.866 385.829c7.466-37.333-16-42.666-35.2-6.4-17.067 33.067-17.067 34.133 7.466 29.866 13.866-2.133 25.6-11.733 27.733-23.466zM296.534 346.362c2.134-11.733-24.534-22.4-94.933-41.6-133.333-36.267-131.2-33.067-105.6-117.334 23.466-77.866 24.534-85.334 12.8-85.334-9.6 0-78.933 150.4-72.534 156.8 10.666 10.666 236.8 107.733 246.4 105.6 6.4-2.133 11.733-9.6 13.866-18.133zM437.334 249.295c12.8-42.666 25.6-86.4 28.8-98.133 4.267-17.067-1.067-16-48 10.666-51.2 28.8-55.466 28.8-74.666 11.733-17.067-16-22.4-16-40.534-3.2-10.666 8.534-20.267 23.466-20.267 34.134 0 9.6-7.466 22.4-18.134 28.8-25.6 16-54.4-9.6-46.934-41.6 4.267-14.933-4.267-49.067-21.333-86.4l-27.733-61.866-25.6 90.666c-13.867 50.133-25.6 96-25.6 102.4 0 10.667 237.867 85.334 279.466 88.534 13.866 1.067 23.466-18.133 40.534-75.733z" />
<glyph unicode="&#xe902;" glyph-name="phone2" d="M19.4 474.329c-5.9-1.7-12.6-7.1-15.8-12.9-2.7-4.8-3.1-6.6-3.4-15.2-0.5-12.4 1.3-41.9 3.8-61.5 11.8-92.1 49.5-177.5 110.4-250.3 9.8-11.7 37-39.3 49.6-50.4 42.2-37.1 90.3-66.5 142-86.9 47.6-18.8 96-29.4 149-32.8 26.1-1.6 36.2-1 42.9 2.7 5.4 2.9 8.3 6 11.7 12.4 1.8 3.3 1.9 7 2.2 58.4 0.3 64 0.5 62.8-8.1 71.1-2.9 2.8-7 5.6-9.2 6.3s-12.8 1.7-23.5 2.2c-37.9 1.8-63.1 6.7-93.9 18.4-5.2 2-10.4 1.5-16.6-1.6-2.4-1.2-17-15-37.2-35-25.9-25.9-33.5-32.9-34.9-32.4-3.4 1.3-25.9 14.9-37.9 22.9-47.8 31.9-87.8 70.6-119 115.2-11.1 15.8-28.5 45.4-28.5 48.3 0 0.5 14.5 14.8 32.3 31.7 34.3 32.9 36.6 35.7 38.7 46.6 1.2 6.2 1.2 6.5-4.5 26.5-7.8 27-11.7 51.6-13 81.9-0.8 17.8-2.3 22.4-9.3 28.5-7.9 7-7.7 7-69.6 6.9-30.3 0-56.5-0.5-58.2-1z" />
<glyph unicode="&#xe903;" glyph-name="acessibilidade" horiz-adv-x="557" d="M248.279 474.254c-33.151-3.743-75.366-17.603-100.026-32.835-7.84-4.844-27.611-18.149-29.364-19.764-1.158-1.065-6.15-5.316-11.096-9.446-21.715-18.141-60.684-68.451-57.282-73.956 0.619-1 19.434-7.279 19.925-6.648 0.226 0.289 2.883 4.572 5.906 9.518 67.123 109.806 210.488 144.974 321.374 78.837 32.678-19.49 57.128-43.571 80.335-79.117 7.046-10.792 5.553-10.302 16.361-5.376 9.82 4.475 9.788 2.402 0.288 18.58-17.532 29.854-44.229 58.001-72.908 76.868-5.182 3.41-10.066 6.759-10.853 7.442-6.942 6.032-45.524 22.634-65.44 28.159-27.083 7.514-69.386 10.882-97.219 7.738zM266.823 409.159c-61.043-8.543-85.995-80.644-42.839-123.8 38.043-38.043 102.563-23.73 120.764 26.792 18.553 51.498-24.060 104.546-77.925 97.007zM284.933 388.89c27.026-5.012 47.166-32.812 42.811-59.093-7.045-42.512-58.029-59.726-89.105-30.086-37.377 35.653-4.685 98.632 46.294 89.179zM502.614 324.004c-16.787-6.31-26.377-21.341-25.453-39.895 0.486-9.76 1.095-9.217-22.473-19.975-119.524-54.558-255.671-53.714-366.566 2.274-10.079 5.090-11.386 6.651-9.944 11.873 6.349 22.985-12.274 45.949-37.26 45.949-47.987 0-51.291-70.435-3.539-75.427 6.946-0.726 19.7 2.264 24.066 5.641 1.729 1.339 3.122 0.974 10.945-2.873 60.874-29.934 132.792-49.25 183.373-49.25 2.374 0 4.316-0.381 4.316-0.849-0.002-3.92-102.049-151.404-104.548-151.096-23.407 2.874-38.773-4.245-46.744-21.658-8.164-17.832-0.944-40.991 15.326-49.151 35.669-17.889 71.23 16.118 53.46 51.123l-3.873 7.628 51.224 75.82c28.173 41.702 51.529 75.81 51.9 75.796 0.582-0.020 32.075-46.375 86.406-127.185l14.927-22.2-3.929-5.934c-23.235-35.103 16.195-75.625 52.745-54.207 34.769 20.376 13.8 77.753-25.793 70.576l-6.005-1.087-102.541 151.863 5.92 0.743c3.254 0.409 11.735 1.312 18.843 2.010 49.642 4.868 96.969 18.811 158.711 46.76l14.291 6.468 7.207-3.548c33.214-16.352 67.803 17.643 51.548 50.661-8.367 16.995-29.327 25.62-46.541 19.151zM48.505 305.584c9.89-4.787 14.016-16.476 9.273-26.273-7.022-14.507-26.3-15.537-34.969-1.869-11.036 17.401 7.026 37.18 25.696 28.142zM522.792 305.584c6.006-2.907 10.464-9.265 11.224-16.007 2.512-22.275-28.092-30.561-37.918-10.265-8.168 16.873 9.728 34.486 26.694 26.273zM20.689 220.551c0-63.829 20.017-118.708 61.447-168.476 13.906-16.7 12.912-16.331 21.394-7.959l6.979 6.887-8.178 9.069c-39.085 43.344-60.536 98.998-60.525 157.036l0.003 17.592-9.395 2.357c-5.168 1.296-9.919 2.356-10.559 2.356-0.759 0-1.165-6.597-1.165-18.86zM520.19 235.364l-7.938-2.745-0.112-16.579c-0.388-57.797-21.844-112.997-60.641-156.019l-8.224-9.12 2.449-3.243c1.346-1.784 4.172-5.403 6.278-8.045l3.829-4.802 2.753 2.553c47.095 43.686 78.951 126.339 73.868 191.65-0.835 10.715-0.355 10.466-12.261 6.35zM417.262 30.045c12.877-8.522 11.405-27.719-2.65-34.522-9.928-4.808-21.48-0.627-26.409 9.556-8.728 18.029 12.276 36.072 29.060 24.965zM154.228 28.947c12.917-8.548 11.47-27.733-2.606-34.548-18.625-9.015-37.419 11.94-26.078 29.079 6.096 9.21 19.241 11.716 28.682 5.469zM190.136-11.685l-4.196-8.486 3.157-1.633c36.287-18.764 119.731-19.824 169.886-2.155 10.159 3.579 9.755 3.276 7.613 5.708-0.955 1.086-3.050 4.594-4.654 7.796-3.749 7.481-3.755 7.483-11.539 4.798-42.335-14.603-94.327-15.418-139.214-2.178-6.799 2.005-13.375 3.87-14.611 4.142-1.847 0.406-2.995-1.017-6.444-7.991z" />
<glyph unicode="&#xe904;" glyph-name="more-info" d="M161.718 467.091c-30.748-8.968-69.822-51.245-78.79-83.914-14.733-57.010 7.687-116.583 56.37-146.69 36.513-23.060 98.648-21.779 134.52 1.921 39.715 26.263 56.37 57.651 56.37 107.615 0 49.324-16.654 81.353-54.449 106.334-27.544 18.577-80.071 24.982-114.022 14.733zM446.13 463.888c-5.765-5.125-10.25-15.373-10.25-21.779s4.484-16.655 10.25-21.78c5.125-5.765 15.373-10.25 21.779-10.25s16.654 4.484 21.779 10.25c5.765 5.125 10.25 15.374 10.25 21.779s-4.484 16.655-10.25 21.78c-5.125 5.765-15.373 10.25-21.779 10.25s-16.654-4.484-21.779-10.25zM427.553 380.614c-8.968-9.608-3.844-29.466 8.327-32.669 11.53-3.202 12.811-8.968 12.811-59.573 0-51.245-1.281-56.37-13.452-59.573-9.608-2.563-12.811-7.687-10.889-18.577 1.921-13.452 5.125-14.733 43.558-14.733s41.637 1.281 43.558 14.733c1.921 10.889-1.281 16.014-10.889 18.577-12.171 3.202-13.452 8.327-13.452 59.573s1.281 56.37 13.452 59.573c9.608 2.563 12.811 7.687 10.889 18.576-1.921 13.452-5.765 14.733-40.356 16.655-21.779 1.281-40.997 0-43.558-2.563zM16.309 150.65c-18.576-17.936-21.779-60.214-7.046-94.805 11.53-28.825 56.37-65.978 96.085-79.43 46.121-16.014 148.612-15.374 197.295 0.641 42.918 14.092 86.476 48.683 98.647 78.79 14.733 34.591 11.53 76.868-7.046 94.805l-15.373 16.014h-347.188l-15.373-16.014z" />
<glyph unicode="&#xe905;" glyph-name="new-slide" d="M87.371 456.225c-8.094-7.554-18.885-11.87-32.373-11.87-18.884-0.539-20.503-1.618-22.122-17.805-1.079-13.489-5.395-18.345-17.805-22.661-17.805-5.935-19.424-14.029-7.014-31.834 7.554-10.791 7.554-12.95 0-23.74-12.41-17.805-10.791-25.898 7.554-31.833 12.95-4.856 16.186-9.173 16.186-21.043 0-18.885 9.712-26.438 26.978-21.582 10.252 2.698 17.266 0.54 28.596-9.712l14.568-14.029 15.108 14.029c10.791 10.252 17.806 12.41 28.057 9.712 17.266-4.856 26.978 2.698 26.978 21.582 0 11.87 3.238 16.187 16.186 21.043 18.345 5.935 19.964 14.029 7.554 31.833-7.554 10.791-7.554 12.95 0 23.74 12.41 17.806 10.791 25.899-7.014 31.834-12.41 4.317-16.726 9.173-17.805 22.661-1.619 16.187-3.238 17.266-21.582 17.806-12.95 0-24.82 4.316-32.913 11.87-15.647 14.568-15.108 14.568-29.136 0zM208.77 418.457c14.568-7.554 20.503-27.517 12.95-44.783-4.316-9.173-4.316-17.266 0.54-29.136l5.935-16.726h262.223v-258.985h-442.433l-1.079 90.105c-1.618 81.472-2.698 90.645-10.791 92.263-9.172 1.619-9.712-7.014-9.712-125.716v-127.334l13.489-12.95 12.95-13.489h432.721l12.95 13.489 13.489 12.95v400.349l-13.489 12.95-12.95 13.489-144.601-0.539c-108.99 0-141.363-1.618-132.19-5.935z" />
<glyph unicode="&#xe906;" glyph-name="dual-angle-right" d="M33.791 472.982c-6.565-2.701-12.931-7.303-12.931-9.344 0-0.793-0.424-1.18-0.941-0.86-2.236 1.382-9.129-15.652-9.403-23.239-0.379-10.441 6.248-29.686 9.524-27.661 0.452 0.279 0.82-0.134 0.82-0.916s2.252-3.531 5.005-6.106c2.753-2.573 5.005-5.045 5.005-5.489s2.703-3.386 6.005-6.537 6.005-6.082 6.005-6.513c0-0.432 2.477-3.128 5.505-5.991 3.027-2.864 5.505-5.566 5.505-6.005 0-0.44 2.477-3.143 5.505-6.005 3.027-2.864 5.514-5.519 5.525-5.901s5.185-6.099 11.499-12.706c6.311-6.607 11.483-12.284 11.49-12.617s2.49-2.949 5.517-5.812 5.505-5.566 5.505-6.005c0-0.44 2.477-3.143 5.505-6.005 3.028-2.864 5.505-5.419 5.505-5.679 0-0.259 13.138-14.761 29.193-32.223 16.056-17.464 33.285-36.216 38.286-41.67 5.001-5.455 9.565-10.41 10.142-11.011 0.577-0.602 2.681-2.911 4.676-5.131l3.626-4.036-4.646-4.972c-2.556-2.733-6.875-7.449-9.599-10.476s-9.527-10.459-15.115-16.515c-5.59-6.056-13.040-14.164-16.554-18.017-3.516-3.854-8.483-9.259-11.040-12.012s-22.63-24.599-44.607-48.546-48.024-52.324-57.882-63.060c-25.729-28.018-28.619-34.014-25.3-52.491 4.137-23.040 33.159-37.015 54.779-26.378 5.709 2.809 223.775 219.54 229.574 228.17 7.697 11.452 9.009 31.308 2.897 43.881-5.118 10.531-226.177 230.975-234.761 234.108-8.334 3.042-22.125 2.935-29.82-0.231zM234.981 472.982c-6.565-2.701-12.931-7.303-12.931-9.344 0-0.793-0.424-1.18-0.94-0.86-2.237 1.382-9.129-15.652-9.404-23.239-0.379-10.441 6.248-29.686 9.524-27.661 0.452 0.279 0.821-0.134 0.821-0.916s2.252-3.531 5.005-6.106c2.752-2.573 5.005-5.045 5.005-5.489s2.702-3.386 6.005-6.537 6.005-6.082 6.005-6.513c0-0.432 2.477-3.128 5.506-5.991 3.028-2.864 5.506-5.566 5.506-6.005 0-0.44 2.477-3.143 5.505-6.005 3.027-2.864 5.514-5.519 5.525-5.901s5.185-6.099 11.498-12.706c6.312-6.607 11.483-12.284 11.49-12.617s2.49-2.949 5.517-5.812c3.027-2.864 5.505-5.566 5.505-6.005 0-0.44 2.477-3.143 5.505-6.005 3.027-2.864 5.505-5.411 5.505-5.661s13.954-15.625 31.008-34.166c37.935-41.241 37.556-40.643 37.556-59.498v-12.657l-3.814-7.413c-2.098-4.078-5.428-9.192-7.401-11.366-8.654-9.538-23.202-25.42-27.916-30.478-2.824-3.027-23.111-25.099-45.082-49.046s-48.014-52.324-57.871-63.060c-25.728-28.018-28.619-34.014-25.3-52.491 4.137-23.040 33.159-37.015 54.779-26.377 6.905 3.397 226.098 221.986 229.892 229.257 7.791 14.937 6.33 37.744-3.254 50.802-9.709 13.226-223.085 223.969-228.927 226.101-8.334 3.042-22.125 2.935-29.821-0.231z" />
<glyph unicode="&#xe907;" glyph-name="dual-angle-left" d="M478.209-34.125c6.565 2.701 12.931 7.303 12.931 9.344 0 0.793 0.424 1.18 0.94 0.86 2.236-1.382 9.129 15.652 9.404 23.24 0.379 10.441-6.248 29.685-9.524 27.661-0.452-0.279-0.82 0.134-0.82 0.916s-2.252 3.531-5.005 6.106c-2.752 2.573-5.005 5.045-5.005 5.488s-2.702 3.387-6.005 6.538-6.005 6.082-6.005 6.514c0 0.432-2.477 3.127-5.505 5.991-3.027 2.864-5.505 5.567-5.505 6.005 0 0.44-2.477 3.143-5.505 6.005-3.027 2.864-5.514 5.519-5.525 5.901s-5.185 6.099-11.498 12.706c-6.312 6.606-11.483 12.284-11.49 12.617s-2.49 2.949-5.517 5.812-5.505 5.567-5.505 6.005c0 0.44-2.477 3.143-5.505 6.005-3.027 2.864-5.505 5.419-5.505 5.68 0 0.259-13.137 14.76-29.193 32.223-16.056 17.464-33.285 36.216-38.286 41.669-5.002 5.455-9.565 10.41-10.142 11.011s-2.681 2.911-4.676 5.131l-3.626 4.036 4.646 4.972c2.557 2.733 6.875 7.449 9.599 10.476s9.527 10.459 15.115 16.516c5.591 6.056 13.039 14.164 16.555 18.017s8.483 9.258 11.039 12.012 22.63 24.599 44.607 48.546 48.024 52.324 57.882 63.060c25.728 28.018 28.618 34.014 25.3 52.491-4.137 23.040-33.159 37.015-54.779 26.377-5.709-2.809-223.775-219.539-229.574-228.169-7.697-11.452-9.009-31.308-2.897-43.881 5.118-10.531 226.177-230.975 234.76-234.109 8.334-3.042 22.125-2.935 29.82 0.231zM277.019-34.125c6.565 2.701 12.932 7.303 12.932 9.344 0 0.793 0.424 1.18 0.94 0.86 2.236-1.382 9.129 15.652 9.404 23.24 0.379 10.441-6.248 29.685-9.524 27.661-0.452-0.279-0.82 0.134-0.82 0.916s-2.252 3.531-5.005 6.106c-2.752 2.573-5.005 5.045-5.005 5.488s-2.702 3.387-6.005 6.538-6.005 6.082-6.005 6.514c0 0.432-2.477 3.127-5.505 5.991-3.027 2.864-5.505 5.567-5.505 6.005 0 0.44-2.477 3.143-5.506 6.005-3.028 2.864-5.514 5.519-5.525 5.901s-5.185 6.099-11.499 12.706c-6.311 6.606-11.483 12.284-11.49 12.617s-2.489 2.949-5.518 5.812c-3.028 2.864-5.506 5.567-5.506 6.005 0 0.44-2.477 3.143-5.506 6.005-3.028 2.864-5.506 5.411-5.506 5.661s-13.953 15.625-31.008 34.166c-37.935 41.241-37.556 40.644-37.556 59.498v12.657l3.814 7.413c2.098 4.078 5.428 9.192 7.401 11.367 8.655 9.538 23.202 25.42 27.916 30.477 2.824 3.028 23.111 25.099 45.082 49.047s48.014 52.324 57.871 63.060c25.728 28.018 28.618 34.014 25.3 52.491-4.137 23.040-33.159 37.015-54.779 26.377-6.905-3.397-226.098-221.986-229.892-229.257-7.791-14.937-6.33-37.744 3.254-50.802 9.71-13.226 223.085-223.969 228.927-226.102 8.334-3.042 22.125-2.935 29.82 0.231z" />
<glyph unicode="&#xe908;" glyph-name="dual-angle-up" d="M2.446-2.78c2.701-6.565 7.303-12.931 9.344-12.931 0.793 0 1.179-0.424 0.86-0.94-1.382-2.236 15.653-9.129 23.239-9.404 10.441-0.379 29.686 6.248 27.661 9.524-0.279 0.452 0.133 0.82 0.916 0.82s3.531 2.252 6.106 5.005c2.573 2.752 5.044 5.005 5.489 5.005s3.386 2.702 6.537 6.005 6.082 6.005 6.513 6.005c0.431 0 3.127 2.477 5.991 5.505 2.864 3.027 5.567 5.505 6.005 5.505 0.44 0 3.143 2.477 6.005 5.505 2.864 3.027 5.519 5.514 5.901 5.525s6.1 5.185 12.706 11.498c6.607 6.312 12.284 11.483 12.617 11.49s2.949 2.49 5.812 5.517 5.566 5.505 6.005 5.505c0.44 0 3.143 2.477 6.005 5.505 2.864 3.027 5.419 5.505 5.679 5.505 0.259 0 14.761 13.137 32.223 29.193 17.464 16.056 36.215 33.285 41.669 38.286 5.456 5.002 10.41 9.565 11.011 10.142 0.602 0.577 2.911 2.681 5.131 4.676l4.036 3.626 4.972-4.646c2.733-2.557 7.449-6.875 10.476-9.599s10.459-9.527 16.515-15.115c6.056-5.591 14.164-13.039 18.017-16.555s9.259-8.483 12.012-11.039 24.599-22.63 48.546-44.607 52.324-48.024 63.060-57.882c28.018-25.728 34.014-28.618 52.491-25.3 23.040 4.137 37.015 33.159 26.377 54.779-2.809 5.709-219.54 223.775-228.17 229.574-11.452 7.697-31.309 9.009-43.881 2.897-10.531-5.118-230.975-226.177-234.108-234.76-3.042-8.334-2.936-22.125 0.231-29.82zM2.446 198.409c2.701-6.565 7.303-12.932 9.344-12.932 0.793 0 1.179-0.424 0.86-0.94-1.382-2.236 15.653-9.129 23.239-9.404 10.441-0.379 29.686 6.248 27.661 9.524-0.279 0.452 0.133 0.82 0.916 0.82s3.531 2.252 6.106 5.005c2.573 2.752 5.044 5.005 5.489 5.005s3.386 2.702 6.537 6.005 6.082 6.005 6.513 6.005c0.431 0 3.127 2.477 5.991 5.505 2.864 3.027 5.567 5.505 6.005 5.505 0.44 0 3.143 2.477 6.005 5.505 2.864 3.028 5.519 5.514 5.901 5.525s6.1 5.185 12.706 11.498c6.607 6.312 12.284 11.483 12.617 11.49s2.949 2.49 5.812 5.518c2.864 3.027 5.566 5.505 6.005 5.505 0.44 0 3.143 2.477 6.005 5.506 2.864 3.027 5.411 5.505 5.661 5.505s15.625 13.954 34.166 31.008c41.241 37.935 40.643 37.556 59.499 37.556h12.657l7.413-3.814c4.078-2.098 9.192-5.428 11.366-7.401 9.538-8.655 25.42-23.202 30.478-27.916 3.027-2.824 25.099-23.111 49.046-45.082s52.324-48.014 63.060-57.871c28.018-25.728 34.014-28.618 52.491-25.3 23.040 4.137 37.015 33.159 26.377 54.779-3.397 6.905-221.986 226.098-229.257 229.892-14.937 7.791-37.744 6.33-50.802-3.254-13.226-9.709-223.969-223.085-226.101-228.927-3.042-8.334-2.936-22.125 0.231-29.82z" />
<glyph unicode="&#xe909;" glyph-name="dual-angle-down" d="M509.553 441.638c-2.701 6.565-7.303 12.931-9.344 12.931-0.793 0-1.18 0.424-0.86 0.941 1.382 2.236-15.652 9.129-23.24 9.403-10.441 0.379-29.685-6.248-27.661-9.523 0.279-0.452-0.134-0.821-0.916-0.821s-3.531-2.252-6.106-5.005c-2.573-2.752-5.045-5.005-5.488-5.005s-3.387-2.702-6.538-6.005-6.082-6.005-6.514-6.005c-0.432 0-3.127-2.477-5.991-5.505s-5.567-5.506-6.005-5.506c-0.44 0-3.143-2.477-6.005-5.505-2.864-3.027-5.519-5.514-5.901-5.525s-6.099-5.185-12.706-11.499c-6.606-6.311-12.284-11.483-12.617-11.49s-2.949-2.489-5.812-5.517-5.567-5.505-6.005-5.505c-0.44 0-3.143-2.477-6.005-5.505-2.864-3.028-5.419-5.506-5.68-5.506-0.259 0-14.76-13.137-32.223-29.193-17.464-16.056-36.216-33.285-41.669-38.286-5.455-5.002-10.41-9.565-11.011-10.142s-2.911-2.681-5.131-4.676l-4.036-3.626-4.972 4.646c-2.733 2.556-7.448 6.875-10.476 9.599s-10.459 9.527-16.516 15.115c-6.056 5.59-14.164 13.039-18.017 16.554-3.854 3.516-9.258 8.483-12.012 11.040s-24.599 22.63-48.546 44.607-52.324 48.024-63.060 57.882c-28.018 25.728-34.014 28.618-52.491 25.3-23.040-4.137-37.015-33.159-26.378-54.779 2.809-5.709 219.54-223.775 228.169-229.574 11.452-7.697 31.308-9.009 43.881-2.897 10.531 5.118 230.975 226.177 234.108 234.76 3.042 8.334 2.935 22.125-0.231 29.821zM509.553 240.448c-2.701 6.565-7.303 12.931-9.344 12.931-0.793 0-1.18 0.424-0.86 0.94 1.382 2.237-15.652 9.129-23.24 9.404-10.441 0.379-29.685-6.248-27.661-9.524 0.279-0.452-0.134-0.82-0.916-0.82s-3.531-2.252-6.106-5.005c-2.573-2.752-5.045-5.005-5.488-5.005s-3.387-2.702-6.538-6.005-6.082-6.005-6.514-6.005c-0.432 0-3.127-2.477-5.991-5.506-2.864-3.027-5.567-5.505-6.005-5.505-0.44 0-3.143-2.477-6.005-5.505-2.864-3.027-5.519-5.514-5.901-5.525s-6.099-5.185-12.706-11.498c-6.606-6.312-12.284-11.483-12.617-11.49s-2.949-2.49-5.812-5.517c-2.864-3.027-5.567-5.505-6.005-5.505-0.44 0-3.143-2.477-6.005-5.505-2.864-3.027-5.411-5.505-5.661-5.505s-15.625-13.954-34.166-31.008c-41.241-37.935-40.644-37.556-59.498-37.556h-12.657l-7.413 3.814c-4.078 2.098-9.192 5.428-11.367 7.401-9.538 8.654-25.42 23.202-30.477 27.916-3.028 2.824-25.099 23.111-49.047 45.082s-52.324 48.014-63.060 57.871c-28.018 25.728-34.014 28.619-52.491 25.3-23.040-4.137-37.015-33.159-26.378-54.779 3.397-6.905 221.986-226.098 229.257-229.892 14.937-7.791 37.744-6.33 50.802 3.254 13.226 9.709 223.969 223.085 226.101 228.927 3.042 8.334 2.935 22.125-0.231 29.82z" />
<glyph unicode="&#xe90a;" glyph-name="play" d="M51.814 468.048c-9.677-5.806-20.644-15.483-24.515-22.579-9.032-16.773-9.032-434.821 0-452.24 9.677-17.418 43.869-33.547 61.933-29.031 23.87 6.452 378.695 203.863 391.598 218.056 14.193 16.774 14.193 58.062 0 74.835-14.838 16.129-372.243 214.185-394.823 218.056-9.031 1.29-24.515-1.935-34.192-7.096z" />
<glyph unicode="&#xe90b;" glyph-name="service" d="M41.851 456.067c-33.385-22.403-49.638-70.284-38.217-110.697 3.954-14.935 12.3-27.674 27.235-42.61l21.524-21.524-4.392-130.025c-4.832-145.839-3.953-154.185 21.085-170.878 12.299-8.346 19.328-10.103 36.46-8.346 23.281 2.197 36.46 11.421 45.685 32.945 4.832 11.861 5.272 36.021 1.318 144.961l-4.393 130.904 21.085 21.964c32.067 33.385 39.974 72.919 22.403 111.575-10.542 22.842-23.281 37.778-39.974 46.564l-12.299 6.589v-77.752l-16.692-16.253c-9.225-8.786-18.888-16.253-21.964-16.253-2.635 0-11.861 6.15-20.646 13.618l-15.374 13.618v41.292c0 22.842-1.318 41.292-3.514 41.292-1.757 0-10.543-4.832-19.328-10.982zM113.013 225.448c0-11.861-1.318-13.178-13.178-13.178s-13.178 1.318-13.178 13.178c0 11.861 1.318 13.178 13.178 13.178s13.178-1.318 13.178-13.178zM113.013 159.557c0-11.861-1.318-13.178-13.178-13.178s-13.178 1.318-13.178 13.178c0 11.861 1.318 13.178 13.178 13.178s13.178-1.318 13.178-13.178zM113.013 95.862c0-14.057-0.879-15.375-13.178-15.375s-13.178 1.318-13.178 15.375c0 14.057 0.879 15.375 13.178 15.375s13.178-1.318 13.178-15.375zM113.013 32.167c0-11.861-1.318-13.178-13.178-13.178s-13.178 1.318-13.178 13.178c0 11.861 1.318 13.178 13.178 13.178s13.178-1.318 13.178-13.178zM345.389 351.52c-26.796-7.468-58.863-26.796-70.723-42.61-6.15-8.346-10.543-11.422-12.739-8.346-3.954 6.589-30.31 0.439-30.31-7.468 0-8.786 13.618-42.61 20.207-49.638 4.832-5.272 9.224-5.272 30.749-0.439 13.618 3.514 25.478 8.346 26.356 10.982 3.075 7.907-6.589 29.431-11.421 26.356-2.197-1.318-3.075 0-1.757 3.954 3.954 10.103 48.32 37.777 61.498 37.777 0.878 0 1.757-4.832 1.757-10.981 0-9.664 1.757-10.982 15.375-10.982s15.375 1.318 15.375 11.422c0 10.542 1.318 10.981 12.3 8.346 33.824-8.346 67.649-40.853 73.798-71.602 2.635-13.178 1.757-14.057-8.786-14.057-10.103 0-11.421-1.757-11.421-15.375s1.318-15.375 11.421-15.375c10.543 0 11.421-0.878 8.786-14.057-6.15-30.749-39.974-63.255-73.798-71.602-10.981-2.635-12.3-2.197-12.3 8.346 0 10.103-1.757 11.421-15.375 11.421s-15.375-1.318-15.375-11.421c0-9.664-1.318-10.543-9.664-8.346-18.45 5.711-46.123 23.721-53.591 35.142-7.028 10.543-7.907 10.981-20.207 4.392-7.468-3.954-13.178-8.346-13.178-10.103 0-10.103 30.31-37.339 54.909-49.638 59.742-29.431 129.586-12.739 168.681 40.853 44.806 61.060 30.31 149.353-32.067 191.963-32.067 21.964-75.116 30.31-108.501 21.085zM325.183 253.122c-6.589-2.196-7.468-17.131-1.757-21.085 2.197-1.318 5.272-0.439 7.028 2.196 4.392 6.589 15.375 5.272 15.375-2.196 0-3.514-7.028-14.057-15.375-23.721-8.346-9.224-15.375-19.328-15.375-21.964 0-3.075 9.664-4.832 26.356-4.832 23.281 0 26.356 0.878 26.356 8.786 0 5.711-3.075 8.786-8.346 8.786-8.346 0-8.346 0.439 0.878 17.132 8.786 16.253 8.786 17.131 1.757 28.553-7.468 10.981-22.403 14.496-36.899 8.346zM387.999 232.916c-19.767-28.992-19.767-33.824-0.439-33.824 12.3 0 15.375-1.757 15.375-8.786 0-5.711 3.075-8.786 8.786-8.786s8.786 3.075 8.786 8.786c0 4.832 2.197 8.786 4.392 8.786 2.635 0 4.392 3.954 4.392 8.786s-1.757 8.786-4.392 8.786c-2.197 0-4.392 8.786-4.392 19.767 0 28.113-11.861 26.796-32.507-3.514z" />
<glyph unicode="&#xe90c;" glyph-name="shutdown" d="M195.203 471.143c-40.746-10.349-98.956-45.274-127.413-75.672-14.229-15.523-35.572-47.861-46.568-71.792-18.756-39.453-20.697-49.154-20.697-105.423 0-58.209 1.294-64.030 23.93-110.597 29.105-58.856 66.618-95.075 126.767-123.533 39.453-18.756 49.155-20.697 104.776-20.697s65.323 1.94 104.776 20.697c60.149 28.457 97.663 64.677 126.767 123.533 22.637 46.567 23.93 52.389 23.93 111.245s-1.293 64.677-23.93 111.245c-43.98 87.961-121.593 140.349-217.315 144.876-27.165 1.293-60.797-0.647-75.025-3.88zM274.755 416.815c5.174-5.821 7.115-37.513 5.821-97.662-1.94-76.966-3.233-89.901-12.935-96.368-8.408-5.174-14.875-5.174-22.637 0-10.349 6.468-11.642 19.403-13.582 96.368-1.94 91.841 1.94 106.717 24.577 106.717 6.468 0 14.875-3.88 18.756-9.055zM170.625 385.77c13.582-13.582 9.054-24.577-23.284-60.15-63.383-69.204-62.737-149.404 1.94-213.434 65.323-65.971 148.111-65.971 213.434 0 64.677 64.030 65.323 144.23 1.94 213.434-16.816 18.756-31.045 38.159-31.045 43.334 0 12.289 12.935 24.577 26.517 24.577 17.463 0 64.030-50.448 82.14-89.254 23.93-50.448 24.577-126.12 1.94-169.454-25.224-48.508-49.801-74.379-92.488-97.663-37.513-20.050-45.274-21.99-95.722-21.344-64.677 0-103.483 15.522-145.524 57.563-42.687 42.040-58.209 80.846-58.209 145.524 0 65.323 15.523 103.483 59.503 147.464 27.811 27.811 44.627 33.632 58.856 19.403z" />
<glyph unicode="&#xe90d;" glyph-name="statistics" d="M235.487 449.668c-7.693-12.18-15.386-12.821-114.11-12.821-74.364 0-108.981-2.565-114.11-7.693-11.539-11.539-8.975-29.489 5.128-38.464 12.18-7.693 12.821-15.386 12.821-144.881 0-136.547 0-136.547 16.027-151.933 14.745-14.745 19.873-16.027 83.98-16.027 51.926 0 67.312-1.923 64.748-7.693-25.643-67.953-26.925-75.005-15.386-86.544 16.667-17.309 30.13-4.488 51.927 48.080 25.001 60.26 33.976 60.26 58.978 0 21.796-52.567 35.259-65.389 51.926-48.080 11.539 11.539 10.257 18.591-15.385 85.902-2.565 6.411 12.821 8.334 64.748 8.334 64.107 0 69.235 1.282 83.98 16.027 16.027 15.385 16.027 15.385 16.027 151.933 0 129.495 0.642 137.188 12.821 144.881 14.103 8.975 16.667 26.925 5.128 38.464-5.128 5.129-39.746 7.693-114.11 7.693-98.725 0-106.417 0.641-114.11 12.821-4.488 7.051-13.462 12.821-20.514 12.821s-16.027-5.769-20.514-12.821zM408.575 307.351c4.488-4.488 7.693-12.18 7.693-17.309 0-12.821-96.16-109.623-108.341-109.623-5.769 0-25.002 14.745-43.593 33.336l-33.976 33.335-33.976-33.335c-18.59-18.591-37.822-33.336-42.952-33.336-12.821 0-57.696 44.875-57.696 57.696 0 24.361 26.284 32.695 46.157 14.745 11.539-10.257 13.463-8.975 45.516 22.437 18.59 18.59 37.822 33.335 42.952 33.335s24.361-15.385 42.951-33.335l33.976-33.976 37.182 37.182c36.541 37.182 50.003 42.952 64.107 28.848z" />
<glyph unicode="&#xe90e;" glyph-name="user" d="M200.601 461.922c-51.261-23.030-78.006-69.091-78.006-132.981 0-89.149 75.035-155.269 158.983-139.667 86.178 16.344 134.467 122.58 94.35 208.758-16.344 35.66-32.688 51.261-69.834 66.862-35.659 14.858-69.091 14.115-105.493-2.971zM178.313 109.039c-20.059-5.2-57.204-17.83-81.721-29.716-76.52-34.917-104.008-74.291-72.062-103.264 11.886-11.144 39.374-12.63 233.274-12.63 202.815 0 219.902 0.743 231.046 13.373 28.231 30.459 5.2 65.376-66.862 101.036-76.52 38.631-167.155 49.775-243.675 31.202z" />
<glyph unicode="&#xe90f;" glyph-name="big-down" d="M210.052 462.301c-12.472-12.472-13.129-21.661-13.129-167.384v-153.6l-47.262-1.969c-70.236-2.625-68.266-10.502 21.661-101.088 41.354-41.354 79.425-74.831 84.677-74.831s43.323 33.477 84.677 74.831c89.928 90.584 91.897 98.462 21.661 101.087l-47.262 1.969v153.6c0 145.723-0.656 154.913-13.128 167.385-9.846 9.846-21.661 13.129-45.948 13.129s-36.102-3.282-45.948-13.129z" />
<glyph unicode="&#xe910;" glyph-name="angle-right" d="M281.952 358.62c-115.826 115.826-138.163 130.719-161.329 107.552-21.512-21.512-7.445-46.332 81.081-141.472 50.466-53.776 91.004-101.762 91.004-105.899s-39.713-50.466-88.524-103.416c-90.18-96.798-103.416-118.31-85.214-140.647 23.165-26.474 45.504-12.411 163.811 106.724 88.524 88.524 117.481 122.443 117.481 138.163s-28.956 49.641-118.31 138.991z" />
<glyph unicode="&#xe911;" glyph-name="angle-left" d="M230.048 80.238c115.826-115.826 138.163-130.719 161.329-107.552 21.512 21.512 7.445 46.332-81.080 141.472-50.466 53.776-91.004 101.762-91.004 105.899s39.712 50.466 88.524 103.416c90.18 96.798 103.416 118.31 85.214 140.647-23.165 26.474-45.503 12.411-163.811-106.725-88.523-88.523-117.481-122.443-117.481-138.163s28.956-49.641 118.309-138.991z" />
<glyph unicode="&#xe912;" glyph-name="angle-up" d="M116.809 245.38c-115.826-115.826-130.719-138.163-107.552-161.329 21.512-21.512 46.331-7.445 141.472 81.080 53.776 50.466 101.762 91.004 105.899 91.004s50.466-39.712 103.416-88.524c96.798-90.18 118.31-103.416 140.647-85.214 26.474 23.165 12.411 45.503-106.724 163.811-88.524 88.524-122.443 117.481-138.163 117.481s-49.641-28.956-138.992-118.309z" />
<glyph unicode="&#xe913;" glyph-name="angle-down" d="M395.191 193.477c115.826 115.826 130.719 138.163 107.552 161.329-21.512 21.512-46.332 7.445-141.472-81.081-53.776-50.466-101.762-91.004-105.899-91.004s-50.466 39.712-103.416 88.524c-96.799 90.18-118.309 103.416-140.647 85.214-26.474-23.165-12.412-45.504 106.725-163.811 88.523-88.524 122.444-117.481 138.163-117.481s49.641 28.956 138.991 118.31z" />
<glyph unicode="&#xe914;" glyph-name="border-dual-left" d="M391.466 355.962c-66.134 65.067-126.933 119.466-136.534 119.466-20.267 0-41.6-21.334-41.6-41.6 0-9.6 44.8-60.8 98.133-115.2l99.2-99.2-99.2-99.2c-53.334-54.4-98.133-105.6-98.133-115.2 0-20.267 21.333-41.6 42.667-41.6s256 234.667 256 256c0 9.6-54.4 70.4-120.534 136.534zM373.334 96.762c-92.8-92.8-119.466-114.133-130.133-103.466s8.534 35.2 92.8 119.466l106.666 106.666-106.666 106.666c-84.267 84.267-103.466 108.8-92.8 119.466s37.334-10.666 130.133-103.466c65.067-64 117.334-119.466 117.334-122.666s-52.267-58.666-117.334-122.666zM178.133 355.962c-66.133 65.067-126.933 119.466-136.534 119.466-20.267 0-41.6-21.334-41.6-41.6 0-9.6 44.8-60.8 98.133-115.2l99.2-99.2-99.2-99.2c-53.334-54.4-98.133-105.6-98.133-115.2 0-20.267 21.334-41.6 42.666-41.6s256 234.667 256 256c0 9.6-54.4 70.4-120.534 136.534zM160 96.762c-92.8-92.8-119.466-114.133-130.133-103.466s8.534 35.2 92.8 119.466l106.666 106.666-106.666 106.666c-84.266 84.267-103.466 108.8-92.8 119.466s37.334-10.666 130.133-103.466c65.067-64 117.334-119.466 117.334-122.666s-52.267-58.666-117.334-122.666z" />
<glyph unicode="&#xe915;" glyph-name="border-dual-right" d="M120.534 82.895c66.133-65.067 126.933-119.466 136.534-119.466 20.267 0 41.6 21.334 41.6 41.6 0 9.6-44.8 60.8-98.133 115.2l-99.2 99.2 99.2 99.2c53.333 54.4 98.133 105.6 98.133 115.2 0 20.267-21.334 41.6-42.666 41.6s-256-234.667-256-256c0-9.6 54.4-70.4 120.534-136.534zM138.667 342.095c92.8 92.8 119.467 114.134 130.133 103.466s-8.534-35.2-92.8-119.466l-106.666-106.666 106.666-106.666c84.267-84.267 103.466-108.8 92.8-119.466s-37.334 10.666-130.133 103.466c-65.067 64-117.334 119.466-117.334 122.666s52.266 58.666 117.334 122.666zM333.866 82.895c66.134-65.067 126.933-119.466 136.534-119.466 20.267 0 41.6 21.334 41.6 41.6 0 9.6-44.8 60.8-98.134 115.2l-99.2 99.2 99.2 99.2c53.334 54.4 98.134 105.6 98.134 115.2 0 20.267-21.334 41.6-42.666 41.6s-256-234.667-256-256c0-9.6 54.4-70.4 120.534-136.534zM352 342.095c92.8 92.8 119.466 114.134 130.134 103.466s-8.534-35.2-92.8-119.466l-106.666-106.666 106.666-106.666c84.267-84.267 103.466-108.8 92.8-119.466s-37.334 10.666-130.134 103.466c-65.067 64-117.334 119.466-117.334 122.666s52.267 58.666 117.334 122.666z" />
<glyph unicode="&#xe916;" glyph-name="border-dual-up" d="M119.466 354.895c-65.067-66.134-119.466-126.933-119.466-136.534 0-20.267 21.334-41.6 41.6-41.6 9.6 0 60.8 44.8 115.2 98.133l99.2 99.2 99.2-99.2c54.4-53.333 105.6-98.133 115.2-98.133 20.267 0 41.6 21.334 41.6 42.666s-234.667 256-256 256c-9.6 0-70.4-54.4-136.534-120.534zM378.666 336.762c92.8-92.8 114.133-119.466 103.466-130.133s-35.2 8.534-119.466 92.8l-106.666 106.666-106.666-106.666c-84.266-84.267-108.8-103.466-119.466-92.8s10.666 37.334 103.466 130.133c64 65.067 119.466 117.334 122.666 117.334s58.666-52.267 122.666-117.334zM119.466 141.562c-65.067-66.134-119.466-126.933-119.466-136.534 0-20.267 21.334-41.6 41.6-41.6 9.6 0 60.8 44.8 115.2 98.134l99.2 99.2 99.2-99.2c54.4-53.334 105.6-98.134 115.2-98.134 20.267 0 41.6 21.334 41.6 42.666s-234.667 256-256 256c-9.6 0-70.4-54.4-136.534-120.534zM378.666 123.429c92.8-92.8 114.133-119.466 103.466-130.134s-35.2 8.534-119.466 92.8l-106.666 106.666-106.666-106.666c-84.266-84.267-108.8-103.466-119.466-92.8s10.666 37.334 103.466 130.134c64 65.067 119.466 117.334 122.666 117.334s58.666-52.267 122.666-117.334z" />
<glyph unicode="&#xe917;" glyph-name="border-dual-down" d="M392.534 83.962c65.067 66.134 119.466 126.933 119.466 136.534 0 20.267-21.334 41.6-41.6 41.6-9.6 0-60.8-44.8-115.2-98.133l-99.2-99.2-99.2 99.2c-54.4 53.334-105.6 98.133-115.2 98.133-20.267 0-41.6-21.333-41.6-42.666s234.667-256 256-256c9.6 0 70.4 54.4 136.534 120.534zM133.333 102.095c-92.8 92.8-114.133 119.466-103.466 130.133s35.2-8.534 119.466-92.8l106.667-106.666 106.666 106.666c84.267 84.267 108.8 103.466 119.466 92.8s-10.666-37.334-103.466-130.133c-64-65.067-119.466-117.334-122.666-117.334s-58.666 52.267-122.666 117.334zM392.534 297.295c65.067 66.134 119.466 126.933 119.466 136.534 0 20.267-21.334 41.6-41.6 41.6-9.6 0-60.8-44.8-115.2-98.134l-99.2-99.2-99.2 99.2c-54.4 53.334-105.6 98.134-115.2 98.134-20.267 0-41.6-21.334-41.6-42.667s234.667-256 256-256c9.6 0 70.4 54.4 136.534 120.534zM133.333 315.429c-92.8 92.8-114.133 119.466-103.466 130.133s35.2-8.534 119.466-92.8l106.667-106.666 106.666 106.666c84.267 84.267 108.8 103.466 119.466 92.8s-10.666-37.334-103.466-130.133c-64-65.067-119.466-117.334-122.666-117.334s-58.666 52.267-122.666 117.334z" />
<glyph unicode="&#xe918;" glyph-name="big-left" d="M74.079 303.323c-40.645-40.645-74.079-78.668-74.079-83.913 0-5.9 33.434-43.267 74.735-84.568 90.469-89.813 98.335-91.78 100.958-21.634l1.966 47.201h153.404c145.536 0 154.714 0.656 167.17 13.111 18.356 18.356 18.356 73.423 0 91.78-12.456 12.456-21.634 13.112-167.17 13.112h-153.404l-1.966 47.856c-2.622 69.49-11.144 67.523-101.614-22.945z" />
<glyph unicode="&#xe919;" glyph-name="big-right" d="M339.584 371.357c-2.622-1.966-4.589-24.256-4.589-49.168v-44.579h-154.059c-145.536 0-154.714-0.655-167.17-13.111-18.356-18.356-18.356-73.423 0-91.78 12.456-12.456 21.634-13.111 167.17-13.111h153.404l1.966-47.201c2.622-70.146 10.489-68.18 100.958 21.634 41.301 41.301 74.735 79.324 74.735 84.568 0 13.111-144.881 157.337-157.992 157.337-5.9 0-12.456-1.966-14.423-4.589z" />
<glyph unicode="&#xe91a;" glyph-name="big-up" d="M171.431 400.693c-89.814-90.469-91.78-98.336-21.634-100.958l47.201-1.966v-153.403c0-145.536 0.655-154.714 13.112-167.17 18.356-18.356 73.423-18.356 91.78 0 12.456 12.456 13.111 21.634 13.111 167.17v153.404l47.201 1.966c70.146 2.622 68.18 10.489-21.634 100.958-41.301 41.301-79.324 74.735-84.569 74.735s-43.268-33.435-84.569-74.735z" />
<glyph unicode="&#xe91b;" glyph-name="cart" d="M2.443 448.063c-7.621-19.053 2.541-28.579 31.119-28.579h27.944l30.484-102.886c57.794-196.88 59.063-200.69 79.386-211.486 14.607-7.621 43.186-9.526 132.735-9.526 116.858 0 137.815 3.811 151.152 25.404 11.432 17.783 60.334 203.231 56.524 213.392-2.541 7.621-34.93 8.892-195.61 8.892h-192.434l-12.702 42.551c-15.877 57.159-31.12 71.766-73.035 71.766-22.863 0-33.025-2.541-35.566-9.526zM184.081 44.778c-6.987-6.986-12.702-18.418-12.702-25.404 0-16.512 21.593-38.106 38.106-38.106s38.106 21.593 38.106 38.106c0 6.986-5.716 18.418-12.702 25.404s-18.418 12.702-25.404 12.702c-6.987 0-18.418-5.716-25.404-12.702zM374.609 44.778c-6.986-6.986-12.702-18.418-12.702-25.404 0-16.512 21.593-38.106 38.106-38.106s38.106 21.593 38.106 38.106c0 6.986-5.716 18.418-12.702 25.404s-18.418 12.702-25.404 12.702c-6.986 0-18.418-5.716-25.404-12.702z" />
<glyph unicode="&#xe91c;" glyph-name="chat" d="M151.948 459.193c-64.082-21.802-107.686-56.155-134.111-106.364-14.534-27.747-17.177-42.281-17.837-83.241 0-52.851 11.231-82.581 46.245-124.201 15.855-19.159 16.516-21.801 7.928-38.978-5.285-9.91-15.855-24.444-23.783-31.050-7.928-7.267-13.873-15.195-13.873-18.498 0-13.873 61.44 0 92.49 21.14 11.231 7.928 21.14 9.91 29.729 5.946 7.268-2.642 14.534-5.285 16.516-5.285 1.982-0.661 3.304 21.14 3.304 46.906 0 62.101 18.498 101.74 64.082 138.075 42.281 33.032 93.151 48.227 146.663 43.602 22.462-1.981 45.584-5.285 51.531-7.928 9.91-3.964 10.57-1.981 5.946 14.534-25.105 87.865-104.382 147.324-201.496 151.949-27.087 0.661-58.136-1.982-73.332-6.607zM307.2 263.643c-48.888-15.856-85.223-46.906-101.74-87.865-25.765-61.44 3.304-128.826 72.010-165.822 21.14-11.892 38.317-14.534 85.884-15.195 33.032 0 68.046-3.964 79.277-8.589 24.444-10.57 69.368-17.176 69.368-10.57 0 2.642-8.589 15.195-19.819 27.748-20.48 23.123-24.444 37.656-12.553 45.584 11.892 7.267 32.371 57.476 32.371 80.599 0 46.906-33.693 96.454-82.581 121.558-28.408 14.534-95.133 21.801-122.219 12.553z" />
<glyph unicode="&#xe91d;" glyph-name="circle-down" d="M188.446 466.684c-77.961-26.464-133.749-74.385-165.22-143.762-58.65-129.458-2.861-276.796 129.458-338.307 36.477-17.166 52.213-20.026 103.709-20.026s67.232 2.861 103.709 20.026c202.411 94.411 202.411 374.784 0.716 467.048-50.781 22.887-127.311 29.325-172.371 15.019zM276.42 254.974l2.146-88.689 27.179 26.464c29.325 28.609 52.212 32.185 56.504 8.582 3.576-15.735-87.974-111.577-105.855-111.577s-109.431 95.841-105.855 111.577c4.292 23.603 27.179 20.026 56.504-8.582l27.894-27.179v85.828c0 47.921 2.145 88.689 5.006 91.55s11.444 4.292 20.027 2.861c13.589-2.145 14.305-7.868 16.45-90.835z" />
<glyph unicode="&#xe91e;" glyph-name="circle-left" d="M181.615 464.809c-70.808-22.172-127.311-72.954-159.497-142.332-17.166-36.477-20.026-52.212-20.026-103.709s2.861-67.232 20.026-103.709c94.411-201.696 374.784-202.411 467.764-0.716 17.166 37.192 20.026 52.928 20.026 104.425s-2.861 67.232-20.026 104.424c-53.642 115.153-191.683 178.809-308.266 141.617zM254.569 308.888c1.43-7.868-7.868-23.603-24.317-40.768l-26.464-27.179 177.379-4.292v-35.762l-177.379-4.291 26.464-27.179c28.609-29.325 32.186-52.212 8.583-56.503-15.019-3.576-111.576 87.974-111.576 105.139 0 6.437 21.457 32.901 48.636 60.079 48.636 49.351 73.669 59.365 78.676 30.755z" />
<glyph unicode="&#xe91f;" glyph-name="circle-right" d="M188.022 466.465c-76.564-24.329-133.094-72.987-166.009-143.827-17.174-36.493-20.035-52.236-20.035-103.756s2.862-67.262 20.035-104.471c93.022-201.787 373.52-201.072 467.974 0.716 17.173 36.493 20.036 52.236 20.036 103.756s-2.862 67.262-20.036 103.756c-21.466 46.512-57.96 88.728-98.746 114.489-55.813 35.778-142.396 48.658-203.218 29.338zM336.142 278.274c27.192-26.476 48.658-52.952 48.658-59.391 0-17.889-95.885-109.48-111.627-105.902-23.613 4.293-20.036 27.192 8.587 56.529l26.476 27.192-177.458 4.293v35.778l176.026 7.156-25.044 24.328c-24.329 23.613-31.484 42.218-20.752 52.952 11.449 12.165 30.053 1.432 75.133-42.933z" />
</font>
</defs>
</svg>
